Fraunces9ptSoft-Light.ufo
<glyph name="exclam" format="2">
  <advance width="599.6"/>
  <unicode hex="0021"/>
  <outline>
    <contour>
      <point x="302.59999999999997" y="1468.3999999999999" type="curve" smooth="yes"/>
      <point x="236.1" y="1468.3999999999999"/>
      <point x="208.40000000000003" y="1427.7"/>
      <point x="208.40000000000003" y="1370.3999999999999" type="curve" smooth="yes"/>
      <point x="208.40000000000003" y="1350.1999999999998"/>
      <point x="209.9" y="1321.8999999999999"/>
      <point x="213.2" y="1297.0" type="curve" smooth="yes"/>
      <point x="261.4" y="471.0" type="line" smooth="yes"/>
      <point x="265.8" y="431.79999999999995"/>
      <point x="278.1" y="416.0"/>
      <point x="302.59999999999997" y="416.0" type="curve" smooth="yes"/>
      <point x="327.5" y="416.0"/>
      <point x="339.0" y="432.19999999999993"/>
      <point x="343.4" y="471.80000000000007" type="curve" smooth="yes"/>
      <point x="391.99999999999994" y="1297.0" type="line" smooth="yes"/>
      <point x="395.29999999999995" y="1321.9"/>
      <point x="396.8" y="1350.2"/>
      <point x="396.8" y="1370.4" type="curve" smooth="yes"/>
      <point x="396.8" y="1427.7"/>
      <point x="369.49999999999994" y="1468.3999999999999"/>
    </contour>
    <component base="period" xOffset="82.70000000000002"/>
  </outline>
</glyph>
<glyph name="numbersign" format="2">
  <advance width="1283.1"/>
  <unicode hex="0023"/>
  <outline>
    <contour>
      <point x="504.2" y="687.0000000000001" type="curve" smooth="yes"/>
      <point x="546.1999999999999" y="848.2"/>
      <point x="645.4999999999999" y="1176.7"/>
      <point x="685.3" y="1321.2000000000003" type="curve" smooth="yes"/>
      <point x="696.6999999999999" y="1362.4"/>
      <point x="688.3000000000001" y="1389.2"/>
      <point x="659.0" y="1396.0" type="curve" smooth="yes"/>
      <point x="631.5" y="1403.1000000000001"/>
      <point x="611.1999999999999" y="1385.8999999999999"/>
      <point x="600.1" y="1346.5" type="curve" smooth="yes"/>
      <point x="560.0000000000001" y="1191.6999999999998"/>
      <point x="481.79999999999995" y="867.7"/>
      <point x="439.8" y="710.3000000000001" type="curve" smooth="yes"/>
      <point x="396.70000000000005" y="545.3"/>
      <point x="287.8" y="215.49999999999997"/>
      <point x="248.39999999999998" y="67.7" type="curve" smooth="yes"/>
      <point x="238.4" y="30.500000000000004"/>
      <point x="247.19999999999996" y="2.8"/>
      <point x="276.8" y="-3.4999999999999982" type="curve" smooth="yes"/>
      <point x="305.09999999999997" y="-9.3"/>
      <point x="324.5" y="7.799999999999999"/>
      <point x="334.9" y="44.599999999999994" type="curve" smooth="yes"/>
      <point x="375.9" y="197.2"/>
      <point x="462.1" y="527.0999999999999"/>
    </contour>
    <contour>
      <point x="688.3999999999999" y="962.0" type="curve" smooth="yes"/>
      <point x="561.9" y="960.8"/>
      <point x="308.8" y="977.8"/>
      <point x="186.0" y="977.2" type="curve" smooth="yes"/>
      <point x="150.09999999999997" y="977.0"/>
      <point x="127.29999999999998" y="962.2"/>
      <point x="127.29999999999998" y="933.2" type="curve" smooth="yes"/>
      <point x="127.89999999999998" y="904.3"/>
      <point x="150.0" y="888.2"/>
      <point x="186.5" y="888.8000000000001" type="curve" smooth="yes"/>
      <point x="301.3" y="888.2"/>
      <point x="560.6" y="896.5"/>
      <point x="687.8" y="897.6999999999999" type="curve" smooth="yes"/>
      <point x="812.5999999999999" y="897.6999999999999"/>
      <point x="1064.6000000000001" y="886.0000000000001"/>
      <point x="1176.3" y="884.9000000000001" type="curve" smooth="yes"/>
      <point x="1214.7" y="885.6"/>
      <point x="1238.8999999999999" y="901.2000000000002"/>
      <point x="1239.3" y="930.8000000000001" type="curve" smooth="yes"/>
      <point x="1238.8999999999999" y="958.9"/>
      <point x="1214.5000000000002" y="973.5000000000001"/>
      <point x="1176.8999999999999" y="973.5000000000001" type="curve" smooth="yes"/>
      <point x="1057.7" y="972.2"/>
      <point x="811.1" y="962.0"/>
    </contour>
    <contour>
      <point x="604.3" y="459.50000000000006" type="curve" smooth="yes"/>
      <point x="729.0" y="459.50000000000006"/>
      <point x="981.0" y="447.9"/>
      <point x="1092.8" y="446.7" type="curve" smooth="yes"/>
      <point x="1131.1999999999998" y="447.49999999999994"/>
      <point x="1155.4" y="463.0"/>
      <point x="1156.2" y="492.6" type="curve" smooth="yes"/>
      <point x="1155.4" y="520.7"/>
      <point x="1131.0" y="535.3"/>
      <point x="1093.3999999999999" y="535.3" type="curve" smooth="yes"/>
      <point x="974.1999999999999" y="534.0"/>
      <point x="727.6" y="523.8"/>
      <point x="604.9" y="523.8" type="curve" smooth="yes"/>
      <point x="478.80000000000007" y="522.6999999999999"/>
      <point x="225.2" y="539.5999999999999"/>
      <point x="102.89999999999999" y="539.0000000000001" type="curve" smooth="yes"/>
      <point x="66.6" y="538.9000000000001"/>
      <point x="43.8" y="524.1"/>
      <point x="43.8" y="495.1" type="curve" smooth="yes"/>
      <point x="44.400000000000006" y="466.2"/>
      <point x="66.5" y="450.1"/>
      <point x="103.0" y="450.6" type="curve" smooth="yes"/>
      <point x="217.8" y="450.1"/>
      <point x="477.1" y="458.4"/>
    </contour>
    <contour>
      <point x="674.3000000000001" y="44.599999999999994" type="curve" smooth="yes"/>
      <point x="714.4999999999999" y="197.59999999999997"/>
      <point x="801.0999999999999" y="527.0999999999999"/>
      <point x="843.2" y="687.0000000000001" type="curve" smooth="yes"/>
      <point x="885.5999999999999" y="848.0999999999999"/>
      <point x="984.9" y="1176.7"/>
      <point x="1024.6" y="1321.1000000000001" type="curve" smooth="yes"/>
      <point x="1035.7" y="1362.3000000000002"/>
      <point x="1027.7" y="1389.2"/>
      <point x="998.4" y="1396.0" type="curve" smooth="yes"/>
      <point x="970.5" y="1403.1000000000001"/>
      <point x="950.7" y="1385.9"/>
      <point x="939.6999999999999" y="1346.4" type="curve" smooth="yes"/>
      <point x="898.6999999999999" y="1191.7"/>
      <point x="821.3999999999999" y="867.8"/>
      <point x="779.4" y="710.3000000000001" type="curve" smooth="yes"/>
      <point x="735.4" y="545.3"/>
      <point x="626.8000000000001" y="215.5"/>
      <point x="587.4" y="67.7" type="curve" smooth="yes"/>
      <point x="577.8" y="30.500000000000004"/>
      <point x="586.6" y="2.8"/>
      <point x="616.2" y="-3.4999999999999982" type="curve" smooth="yes"/>
      <point x="644.5" y="-9.3"/>
      <point x="663.9000000000001" y="7.800000000000001"/>
    </contour>
  </outline>
</glyph>
<glyph name="dollar" format="2">
  <advance width="1162.8"/>
  <unicode hex="0024"/>
  <outline>
    <contour>
      <point x="600.0000000000001" y="1390.8" type="curve" smooth="yes"/>
      <point x="325.3082614379085" y="1390.8"/>
      <point x="142.9" y="1224.5"/>
      <point x="142.9" y="1019.6" type="curve" smooth="yes"/>
      <point x="142.9" y="851.9568421052631"/>
      <point x="244.4483546885642" y="717.5154762044369"/>
      <point x="546.1" y="628.2" type="curve" smooth="yes"/>
      <point x="811.5494633027691" y="551.3146241724588"/>
      <point x="894.4999999999999" y="448.79999999999995"/>
      <point x="894.4999999999999" y="309.7" type="curve" smooth="yes"/>
      <point x="894.4999999999999" y="152.10000000000002"/>
      <point x="771.8238532110091" y="60.19999999999999"/>
      <point x="588.1999999999999" y="60.19999999999999" type="curve" smooth="yes"/>
      <point x="402.1499999999999" y="60.19999999999999"/>
      <point x="289.90000000000003" y="152.79999999999998"/>
      <point x="289.90000000000003" y="274.20000000000005" type="curve" smooth="yes"/>
      <point x="289.90000000000003" y="333.2" type="line" smooth="yes"/>
      <point x="289.90000000000003" y="384.4"/>
      <point x="259.9" y="416.2"/>
      <point x="216.09999999999997" y="416.2" type="curve" smooth="yes"/>
      <point x="167.84623115577892" y="416.2"/>
      <point x="134.7" y="374.4"/>
      <point x="134.7" y="313.8" type="curve" smooth="yes"/>
      <point x="134.7" y="147.3"/>
      <point x="326.44707268040605" y="6.400000000000002"/>
      <point x="588.7999999999998" y="6.400000000000002" type="curve" smooth="yes"/>
      <point x="863.7363507277246" y="6.400000000000002"/>
      <point x="1031.3" y="153.70000000000002"/>
      <point x="1031.3" y="362.9" type="curve" smooth="yes"/>
      <point x="1031.3" y="517.5"/>
      <point x="920.3999999999999" y="657.3000000000001"/>
      <point x="625.1" y="744.8000000000001" type="curve" smooth="yes"/>
      <point x="361.1" y="821.3000000000001"/>
      <point x="279.1" y="928.1"/>
      <point x="279.1" y="1064.1" type="curve" smooth="yes"/>
      <point x="279.1" y="1226.5"/>
      <point x="403.4809116809116" y="1340.6"/>
      <point x="592.0" y="1340.6" type="curve" smooth="yes"/>
      <point x="757.8972222222221" y="1340.6"/>
      <point x="858.4999999999999" y="1252.0805309734512"/>
      <point x="858.4999999999999" y="1132.4" type="curve" smooth="yes"/>
      <point x="858.4999999999999" y="1078.2" type="line" smooth="yes"/>
      <point x="858.4999999999999" y="1033.3999999999999"/>
      <point x="892.6" y="1002.8000000000001"/>
      <point x="939.8" y="1002.8000000000001" type="curve" smooth="yes"/>
      <point x="981.3222222222222" y="1002.8000000000001"/>
      <point x="1014.8999999999999" y="1039.1999999999998"/>
      <point x="1014.8999999999999" y="1098.8" type="curve" smooth="yes"/>
      <point x="1014.8999999999999" y="1265.049466192171"/>
      <point x="856.4009823820342" y="1390.8"/>
    </contour>
    <contour>
      <point x="618.1999999999999" y="713.9000000000001" type="line"/>
      <point x="617.4" y="1292.5"/>
      <point x="651.3" y="1412.4000000000003"/>
      <point x="651.3" y="1485.5" type="curve" smooth="yes"/>
      <point x="651.3" y="1531.0"/>
      <point x="624.9000000000001" y="1553.6000000000001"/>
      <point x="593.3" y="1553.6000000000001" type="curve" smooth="yes"/>
      <point x="560.4000000000001" y="1553.6000000000001"/>
      <point x="533.6999999999999" y="1530.6000000000001"/>
      <point x="533.6999999999999" y="1486.5" type="curve" smooth="yes"/>
      <point x="533.6999999999999" y="1411.9"/>
      <point x="563.8000000000002" y="1292.0"/>
      <point x="561.9" y="713.9000000000001" type="curve"/>
    </contour>
    <contour>
      <point x="556.1999999999999" y="676.9" type="line"/>
      <point x="556.4999999999999" y="123.60000000000002"/>
      <point x="527.4" y="6.900000000000004"/>
      <point x="527.4" y="-67.5" type="curve" smooth="yes"/>
      <point x="527.4" y="-116.99999999999999"/>
      <point x="552.5" y="-140.8"/>
      <point x="585.8" y="-140.8" type="curve" smooth="yes"/>
      <point x="620.3" y="-140.8"/>
      <point x="644.9999999999999" y="-117.0"/>
      <point x="644.9999999999999" y="-68.9" type="curve" smooth="yes"/>
      <point x="644.9999999999999" y="5.5000000000000036"/>
      <point x="611.6999999999999" y="123.39999999999999"/>
      <point x="612.4000000000001" y="676.9" type="curve"/>
    </contour>
  </outline>
</glyph>
<glyph name="ampersand" format="2">
  <advance width="1438.0"/>
  <unicode hex="0026"/>
  <outline>
    <contour>
      <point x="623.0999999999999" y="1358.1000000000001" type="curve" smooth="yes"/>
      <point x="483.3167300380228" y="1358.1000000000001"/>
      <point x="395.6" y="1245.6"/>
      <point x="395.6" y="1092.9999999999998" type="curve" smooth="yes"/>
      <point x="395.6" y="952.5999999999999"/>
      <point x="459.87970330176324" y="839.69133217482"/>
      <point x="599.9000000000001" y="794.1999999999999" type="curve" smooth="yes"/>
      <point x="694.553824517252" y="762.9160978747194"/>
      <point x="744.8111814683396" y="718.1254044129337"/>
      <point x="824.8000000000001" y="616.3" type="curve" smooth="yes"/>
      <point x="1178.9999999999998" y="163.79999999999998" type="line" smooth="yes"/>
      <point x="1219.1" y="112.19999999999999"/>
      <point x="1247.0000000000002" y="92.60000000000001"/>
      <point x="1310.8999999999999" y="87.29999999999998" type="curve" smooth="yes"/>
      <point x="1347.5" y="84.0"/>
      <point x="1365.1" y="71.79999999999998"/>
      <point x="1365.1" y="48.39999999999999" type="curve" smooth="yes"/>
      <point x="1365.1" y="22.099999999999994"/>
      <point x="1345.4" y="9.6"/>
      <point x="1308.8" y="9.6" type="curve" smooth="yes"/>
      <point x="1185.9999999999998" y="9.6" type="line" smooth="yes"/>
      <point x="1131.2" y="9.6"/>
      <point x="1098.2000000000003" y="23.200000000000003"/>
      <point x="1064.1000000000001" y="67.39999999999999" type="curve" smooth="yes"/>
      <point x="693.6" y="545.4" type="line" smooth="yes"/>
      <point x="618.5999999999999" y="641.9000000000001"/>
      <point x="574.1" y="685.9"/>
      <point x="496.9" y="710.0" type="curve" smooth="yes"/>
      <point x="328.1" y="763.6"/>
      <point x="245.6" y="891.8236760124611"/>
      <point x="245.6" y="1050.6" type="curve" smooth="yes"/>
      <point x="245.6" y="1262.3999999999999"/>
      <point x="405.4" y="1421.8"/>
      <point x="640.0" y="1421.8" type="curve" smooth="yes"/>
      <point x="855.27" y="1421.8"/>
      <point x="996.0000000000001" y="1279.3846153846155"/>
      <point x="996.0000000000001" y="1098.4" type="curve" smooth="yes"/>
      <point x="996.0000000000001" y="892.2883116883116"/>
      <point x="862.6032691661401" y="757.46083526144"/>
      <point x="617.3000000000001" y="729.0000000000001" type="curve"/>
      <point x="600.9" y="769.5000000000001" type="line"/>
      <point x="765.8570844944062" y="798.684669823797"/>
      <point x="846.4" y="911.2003021148037"/>
      <point x="846.4" y="1079.8000000000002" type="curve" smooth="yes"/>
      <point x="846.4" y="1255.224832214765"/>
      <point x="753.2355731225297" y="1358.1000000000001"/>
    </contour>
    <contour>
      <point x="541.8" y="700.9" type="line"/>
      <point x="360.1194955421757" y="675.302707714191"/>
      <point x="259.0" y="543.7787062288645"/>
      <point x="259.0" y="391.1" type="curve" smooth="yes"/>
      <point x="259.0" y="185.70000000000002"/>
      <point x="377.9" y="66.89999999999998"/>
      <point x="572.7" y="66.89999999999998" type="curve" smooth="yes"/>
      <point x="727.4999999999999" y="66.89999999999998"/>
      <point x="858.6999999999999" y="144.20000000000002"/>
      <point x="937.9" y="287.6" type="curve"/>
      <point x="986.0" y="245.49999999999997" type="line"/>
      <point x="887.3232065936379" y="82.21451784799936"/>
      <point x="748.9991614255764" y="-22.8"/>
      <point x="512.7" y="-22.8" type="curve" smooth="yes"/>
      <point x="249.10000000000002" y="-22.8"/>
      <point x="104.80000000000001" y="149.5818181818182"/>
      <point x="104.80000000000001" y="351.8" type="curve" smooth="yes"/>
      <point x="104.80000000000001" y="564.8067977067977"/>
      <point x="259.9719944441335" y="722.9974731829293"/>
      <point x="540.5999999999999" y="744.1" type="curve"/>
    </contour>
    <contour>
      <point x="1009.5" y="331.8" type="line"/>
      <point x="1127.6999999999998" y="567.6" type="line" smooth="yes"/>
      <point x="1159.4" y="623.2999999999998"/>
      <point x="1153.4" y="654.5"/>
      <point x="1109.0" y="666.6" type="curve" smooth="yes"/>
      <point x="1037.3000000000002" y="681.8" type="line" smooth="yes"/>
      <point x="1011.5" y="689.4"/>
      <point x="1003.6" y="701.7"/>
      <point x="1003.6" y="716.5" type="curve" smooth="yes"/>
      <point x="1003.6" y="735.9"/>
      <point x="1020.8" y="751.5"/>
      <point x="1046.9999999999998" y="751.5" type="curve" smooth="yes"/>
      <point x="1341.1000000000001" y="751.5" type="line" smooth="yes"/>
      <point x="1369.9" y="751.5"/>
      <point x="1385.5" y="737.9000000000001"/>
      <point x="1385.5" y="715.3000000000001" type="curve" smooth="yes"/>
      <point x="1385.5" y="697.5999999999999"/>
      <point x="1375.3000000000002" y="683.8"/>
      <point x="1344.5" y="675.4000000000001" type="curve" smooth="yes"/>
      <point x="1277.2" y="662.3"/>
      <point x="1248.0" y="635.4999999999999"/>
      <point x="1210.3" y="572.9000000000001" type="curve" smooth="yes"/>
      <point x="1049.5" y="281.09999999999997" type="line"/>
    </contour>
  </outline>
</glyph>
<glyph name="quotesingle" format="2">
  <advance width="274.4"/>
  <unicode hex="0027"/>
  <outline>
    <contour>
      <point x="134.0" y="956.0" type="curve" smooth="yes"/>
      <point x="154.8624716553288" y="956.0"/>
      <point x="169.3148212411272" y="968.253686306268"/>
      <point x="172.89999999999998" y="998.6" type="curve" smooth="yes"/>
      <point x="208.59999999999997" y="1423.6" type="line" smooth="yes"/>
      <point x="218.59600802661978" y="1505.4712713267472"/>
      <point x="192.88559364133135" y="1545.0"/>
      <point x="137.39999999999998" y="1545.0" type="curve" smooth="yes"/>
      <point x="82.09431818181818" y="1545.0"/>
      <point x="55.929636300949795" y="1502.6590311346818"/>
      <point x="64.8" y="1423.4" type="curve" smooth="yes"/>
      <point x="95.10000000000001" y="999.0000000000001" type="line" smooth="yes"/>
      <point x="98.20845505265115" y="969.5653271594018"/>
      <point x="114.52196969696969" y="956.0"/>
    </contour>
  </outline>
</glyph>
<glyph name="parenleft" format="2">
  <advance width="656.5999999999999"/>
  <unicode hex="0028"/>
  <outline>
    <contour>
      <point x="150.0" y="611.8000000000001" type="curve" smooth="yes"/>
      <point x="150.0" y="222.09999999999997"/>
      <point x="339.70000000000005" y="-125.0"/>
      <point x="572.0999999999999" y="-249.1" type="curve" smooth="yes"/>
      <point x="601.5" y="-262.9"/>
      <point x="622.1999999999999" y="-260.29999999999995"/>
      <point x="631.8999999999999" y="-242.60000000000002" type="curve" smooth="yes"/>
      <point x="640.9999999999999" y="-227.0"/>
      <point x="631.6999999999999" y="-209.19999999999996"/>
      <point x="607.6" y="-187.60000000000002" type="curve" smooth="yes"/>
      <point x="416.8" y="-28.60000000000001"/>
      <point x="288.0" y="270.90000000000003"/>
      <point x="288.0" y="611.8000000000001" type="curve" smooth="yes"/>
      <point x="288.0" y="952.7"/>
      <point x="416.8" y="1252.1999999999998"/>
      <point x="607.6" y="1411.2" type="curve" smooth="yes"/>
      <point x="631.6999999999999" y="1432.8"/>
      <point x="640.9999999999999" y="1450.2"/>
      <point x="631.8999999999999" y="1466.2" type="curve" smooth="yes"/>
      <point x="622.1999999999999" y="1483.9"/>
      <point x="601.5" y="1486.5000000000002"/>
      <point x="572.0999999999999" y="1472.7" type="curve" smooth="yes"/>
      <point x="339.7" y="1348.6000000000001"/>
      <point x="150.0" y="1001.5"/>
    </contour>
  </outline>
</glyph>
<glyph name="asterisk" format="2">
  <advance width="1250.0"/>
  <unicode hex="002A"/>
  <outline>
    <contour>
      <point x="652.3" y="1006.4000000000001" type="line"/>
      <point x="652.3" y="1192.5"/>
      <point x="708.1999999999999" y="1343.7000000000003"/>
      <point x="708.1999999999999" y="1440.9" type="curve" smooth="yes"/>
      <point x="708.1999999999999" y="1501.3"/>
      <point x="679.1000000000001" y="1532.9"/>
      <point x="629.4" y="1532.9" type="curve" smooth="yes"/>
      <point x="576.9000000000001" y="1532.9"/>
      <point x="549.9" y="1501.3"/>
      <point x="549.9" y="1440.9" type="curve" smooth="yes"/>
      <point x="549.9" y="1343.8000000000002"/>
      <point x="607.4000000000001" y="1192.5"/>
      <point x="607.4000000000001" y="1006.4000000000001" type="curve"/>
    </contour>
    <contour>
      <point x="636.2957427527497" y="1028.488874736879" type="line"/>
      <point x="459.0810788927038" y="1085.7767974328744"/>
      <point x="332.2458625628011" y="1185.2683345161274"/>
      <point x="239.49458968046457" y="1215.615237549626" type="curve" smooth="yes"/>
      <point x="182.1517689284892" y="1233.9900046281246"/>
      <point x="143.2790429907519" y="1216.660203856567"/>
      <point x="127.62362546275253" y="1169.3866804479894" type="curve" smooth="yes"/>
      <point x="111.46820793475318" y="1119.9131570394113"/>
      <point x="133.33830274899128" y="1084.3085891893547"/>
      <point x="190.5811235009666" y="1065.833822110856" type="curve" smooth="yes"/>
      <point x="283.13239638330316" y="1035.6869190773575"/>
      <point x="445.43680698270475" y="1043.659893172152"/>
      <point x="622.4514708427504" y="985.7719704761568" type="curve"/>
    </contour>
    <contour>
      <point x="610.3042572472505" y="1019.8373961192567" type="line"/>
      <point x="500.5386986418448" y="869.4494734232615"/>
      <point x="366.5075328828859" y="779.6929641481901"/>
      <point x="308.90908941502875" y="701.1460611146915" type="curve" smooth="yes"/>
      <point x="273.6129279655113" y="651.9712940361927"/>
      <point x="278.5661628025022" y="609.7369707813544"/>
      <point x="318.7215803305014" y="580.4133195520108" type="curve" smooth="yes"/>
      <point x="361.3769978585007" y="549.889668322667"/>
      <point x="402.0263941450092" y="559.6301121463277"/>
      <point x="437.42255559452667" y="608.4048792248266" type="curve" smooth="yes"/>
      <point x="494.4209990623838" y="686.9517822583251"/>
      <point x="537.2829705518441" y="842.8449093865819"/>
      <point x="646.3485291572497" y="993.6328320825771" type="curve"/>
    </contour>
    <contour>
      <point x="610.3042572472505" y="992.7626038807433" type="line"/>
      <point x="719.869815852656" y="841.9746811847481"/>
      <point x="763.6790009376161" y="687.0517822583251"/>
      <point x="820.6774444054735" y="608.4048792248266" type="curve" smooth="yes"/>
      <point x="856.0736058549909" y="559.6301121463277"/>
      <point x="898.5230021414992" y="551.0896683226672"/>
      <point x="938.5784196694984" y="580.0133195520108" type="curve" smooth="yes"/>
      <point x="981.2338371974979" y="611.0369707813543"/>
      <point x="984.5870720344888" y="651.9712940361927"/>
      <point x="949.1909105849714" y="701.1460611146915" type="curve" smooth="yes"/>
      <point x="891.692467117114" y="779.6929641481901"/>
      <point x="756.1140877626552" y="868.5792452214275"/>
      <point x="646.3485291572497" y="1018.9671679174226" type="curve"/>
    </contour>
    <contour>
      <point x="622.4" y="1026.9" type="curve"/>
      <point x="636.1" y="984.2" type="line"/>
      <point x="813.5" y="1042.0"/>
      <point x="975.0999999999999" y="1035.8"/>
      <point x="1067.4999999999998" y="1066.0000000000002" type="curve" smooth="yes"/>
      <point x="1124.6" y="1084.1999999999998"/>
      <point x="1146.1" y="1121.8000000000002"/>
      <point x="1130.5000000000002" y="1168.3999999999999" type="curve" smooth="yes"/>
      <point x="1114.3" y="1218.6"/>
      <point x="1075.9" y="1233.7999999999997"/>
      <point x="1018.6999999999999" y="1215.7" type="curve" smooth="yes"/>
      <point x="925.7" y="1185.3"/>
      <point x="799.6" y="1084.1000000000001"/>
    </contour>
  </outline>
</glyph>
<glyph name="comma" format="2">
  <advance width="452.2"/>
  <unicode hex="002C"/>
  <outline>
    <contour>
      <point x="219.20000000000002" y="4.400000000000002" type="curve" smooth="yes"/>
      <point x="239.39999999999998" y="4.400000000000002" type="line" smooth="yes"/>
      <point x="274.3" y="4.400000000000002"/>
      <point x="284.0" y="-8.200000000000001"/>
      <point x="284.0" y="-40.2" type="curve" smooth="yes"/>
      <point x="284.0" y="-111.9"/>
      <point x="226.7476861118925" y="-197.1145524486275"/>
      <point x="140.3" y="-228.00000000000006" type="curve" smooth="yes"/>
      <point x="105.60000000000002" y="-239.89999999999998"/>
      <point x="97.10000000000002" y="-252.9"/>
      <point x="98.6" y="-271.09999999999997" type="curve" smooth="yes"/>
      <point x="100.20000000000002" y="-287.6"/>
      <point x="115.0" y="-297.0"/>
      <point x="140.60000000000002" y="-293.8" type="curve" smooth="yes"/>
      <point x="223.8884411982712" y="-282.6257443388605"/>
      <point x="367.8" y="-185.7715530343829"/>
      <point x="367.8" y="34.599999999999994" type="curve" smooth="yes"/>
      <point x="367.8" y="176.85915492957744"/>
      <point x="308.2" y="233.6"/>
      <point x="232.0" y="233.6" type="curve" smooth="yes"/>
      <point x="162.2" y="233.6"/>
      <point x="110.0" y="182.6"/>
      <point x="110.0" y="114.0" type="curve" smooth="yes"/>
      <point x="110.0" y="52.599999999999994"/>
      <point x="151.8" y="4.400000000000002"/>
    </contour>
  </outline>
</glyph>
<glyph name="hyphen" format="2">
  <advance width="853.6"/>
  <unicode hex="002D"/>
  <outline>
    <contour>
      <point x="689.9999999999999" y="624.1999999999999" type="curve" smooth="yes"/>
      <point x="201.4" y="624.1999999999999" type="line" smooth="yes"/>
      <point x="175.20000000000002" y="624.1999999999999"/>
      <point x="163.99999999999997" y="617.9999999999999"/>
      <point x="154.6" y="593.8" type="curve" smooth="yes"/>
      <point x="134.00000000000003" y="543.0" type="line" smooth="yes"/>
      <point x="125.00000000000001" y="520.3999999999999"/>
      <point x="133.4" y="504.6000000000001"/>
      <point x="163.6" y="504.6000000000001" type="curve" smooth="yes"/>
      <point x="652.1999999999999" y="504.6000000000001" type="line" smooth="yes"/>
      <point x="678.4" y="504.6000000000001"/>
      <point x="689.6" y="510.8"/>
      <point x="699.0000000000001" y="535.0000000000001" type="curve" smooth="yes"/>
      <point x="719.6" y="585.8" type="line" smooth="yes"/>
      <point x="728.6" y="608.4"/>
      <point x="720.2" y="624.1999999999999"/>
    </contour>
  </outline>
</glyph>
<glyph name="period" format="2">
  <advance width="432.8"/>
  <unicode hex="002E"/>
  <outline>
    <contour>
      <point x="216.6" y="-13.999999999999998" type="curve" smooth="yes"/>
      <point x="283.6" y="-13.999999999999998"/>
      <point x="334.79999999999995" y="41.4"/>
      <point x="334.79999999999995" y="106.0" type="curve" smooth="yes"/>
      <point x="334.79999999999995" y="174.2"/>
      <point x="283.6" y="226.39999999999998"/>
      <point x="216.6" y="226.39999999999998" type="curve" smooth="yes"/>
      <point x="151.6" y="226.39999999999998"/>
      <point x="98.0" y="174.2"/>
      <point x="98.0" y="106.0" type="curve" smooth="yes"/>
      <point x="98.0" y="41.4"/>
      <point x="151.6" y="-13.999999999999998"/>
    </contour>
  </outline>
</glyph>
<glyph name="slash" format="2">
  <advance width="981.6"/>
  <unicode hex="002F"/>
  <outline>
    <contour>
      <point x="529.0" y="598.3000000000001" type="curve" smooth="yes"/>
      <point x="623.4000000000001" y="801.3"/>
      <point x="849.9999999999999" y="1240.7"/>
      <point x="948.5" y="1452.2" type="curve" smooth="yes"/>
      <point x="965.1000000000001" y="1488.2999999999997"/>
      <point x="956.5" y="1521.7000000000003"/>
      <point x="922.1" y="1537.2" type="curve" smooth="yes"/>
      <point x="888.0" y="1552.7"/>
      <point x="857.7" y="1538.3"/>
      <point x="840.7" y="1502.3" type="curve" smooth="yes"/>
      <point x="735.4000000000001" y="1276.8999999999999"/>
      <point x="549.5" y="828.8"/>
      <point x="457.9" y="631.4" type="curve" smooth="yes"/>
      <point x="365.7117441962596" y="433.60817871227863"/>
      <point x="140.0613870519223" y="3.751117278149472"/>
      <point x="34.5" y="-221.70000000000002" type="curve" smooth="yes"/>
      <point x="17.9" y="-258.19999999999993"/>
      <point x="27.0" y="-291.09999999999997"/>
      <point x="60.7" y="-306.29999999999995" type="curve" smooth="yes"/>
      <point x="95.5" y="-322.2"/>
      <point x="125.29999999999998" y="-308.3"/>
      <point x="142.3" y="-272.20000000000005" type="curve" smooth="yes"/>
      <point x="241.3645774071582" y="-60.43535309447954"/>
      <point x="434.5982357235148" y="394.4775873544858"/>
    </contour>
  </outline>
</glyph>
<glyph name="zero" format="2">
  <advance width="1246.6000000000001"/>
  <unicode hex="0030"/>
  <outline>
    <contour>
      <point x="632.9" y="1422.3999999999999" type="curve" smooth="yes"/>
      <point x="304.1" y="1422.3999999999999"/>
      <point x="92.10000000000001" y="1150.4"/>
      <point x="92.10000000000001" y="702.6" type="curve" smooth="yes"/>
      <point x="92.10000000000001" y="248.79999999999998"/>
      <point x="285.4" y="-24.0"/>
      <point x="620.8999999999999" y="-24.0" type="curve" smooth="yes"/>
      <point x="941.2" y="-24.0"/>
      <point x="1154.4999999999998" y="246.2"/>
      <point x="1154.4999999999998" y="700.0" type="curve" smooth="yes"/>
      <point x="1154.4999999999998" y="1148.9"/>
      <point x="961.6999999999999" y="1422.3999999999999"/>
    </contour>
    <contour>
      <point x="992.9" y="671.1" type="curve" smooth="yes"/>
      <point x="992.9" y="268.29999999999995"/>
      <point x="843.4000000000001" y="47.6"/>
      <point x="627.0" y="47.6" type="curve" smooth="yes"/>
      <point x="393.09999999999997" y="47.6"/>
      <point x="253.79999999999995" y="257.79999999999995"/>
      <point x="253.79999999999995" y="727.8000000000001" type="curve" smooth="yes"/>
      <point x="253.79999999999995" y="1123.0"/>
      <point x="400.99999999999994" y="1351.2"/>
      <point x="625.4000000000001" y="1351.2" type="curve" smooth="yes"/>
      <point x="854.1999999999999" y="1351.2"/>
      <point x="992.9" y="1137.6"/>
    </contour>
  </outline>
</glyph>
<glyph name="one" format="2">
  <advance width="860.8"/>
  <unicode hex="0031"/>
  <outline>
    <contour>
      <point x="155.5" y="1251.7000000000003" type="line" smooth="yes"/>
      <point x="121.69999999999999" y="1251.7000000000003"/>
      <point x="104.6" y="1265.6"/>
      <point x="104.6" y="1293.0" type="curve" smooth="yes"/>
      <point x="104.6" y="1316.6"/>
      <point x="122.9" y="1333.3999999999999"/>
      <point x="156.2" y="1333.3999999999999" type="curve" smooth="yes"/>
      <point x="321.40000000000003" y="1333.4" type="line" smooth="yes"/>
      <point x="378.87142857142857" y="1333.3999999999999"/>
      <point x="410.97176138158875" y="1350.2058712719622"/>
      <point x="444.09999999999997" y="1402.8" type="curve" smooth="yes"/>
      <point x="458.78937465455704" y="1426.4650881506875"/>
      <point x="473.59999999999997" y="1436.9"/>
      <point x="493.8999999999999" y="1436.9" type="curve" smooth="yes"/>
      <point x="520.1333333333332" y="1436.9"/>
      <point x="536.8" y="1421.3999999999999"/>
      <point x="536.8" y="1386.5" type="curve" smooth="yes"/>
      <point x="536.8" y="161.4" type="line" smooth="yes"/>
      <point x="536.8" y="116.1"/>
      <point x="555.8" y="90.29999999999998"/>
      <point x="608.4" y="84.79999999999998" type="curve" smooth="yes"/>
      <point x="750.9999999999999" y="69.5" type="line" smooth="yes"/>
      <point x="778.9095144367193" y="65.36720413433096"/>
      <point x="793.2" y="52.800000000000004"/>
      <point x="793.2" y="33.099999999999994" type="curve" smooth="yes"/>
      <point x="793.2" y="11.7"/>
      <point x="778.7218390804597" y="0.0"/>
      <point x="748.8000000000001" y="0.0" type="curve" smooth="yes"/>
      <point x="147.29999999999998" y="0.0" type="line" smooth="yes"/>
      <point x="117.39999999999999" y="0.0"/>
      <point x="101.80000000000001" y="12.100000000000001"/>
      <point x="101.80000000000001" y="33.5" type="curve" smooth="yes"/>
      <point x="101.80000000000001" y="53.20000000000001"/>
      <point x="116.9" y="66.59999999999998"/>
      <point x="145.1" y="70.1" type="curve" smooth="yes"/>
      <point x="306.0" y="84.79999999999998" type="line" smooth="yes"/>
      <point x="352.0" y="89.30000000000001"/>
      <point x="378.40000000000003" y="116.0"/>
      <point x="378.40000000000003" y="161.8" type="curve" smooth="yes"/>
      <point x="378.40000000000003" y="1174.5" type="line" smooth="yes"/>
      <point x="378.40000000000003" y="1235.6"/>
      <point x="361.59999999999997" y="1251.7000000000003"/>
      <point x="313.6000000000001" y="1251.7000000000003" type="curve" smooth="yes"/>
    </contour>
  </outline>
</glyph>
<glyph name="two" format="2">
  <advance width="1144.4"/>
  <unicode hex="0032"/>
  <outline>
    <contour>
      <point x="224.4" y="178.4" type="line"/>
      <point x="604.9" y="478.6" type="line" smooth="yes"/>
      <point x="917.3451571851882" y="716.6081063883897"/>
      <point x="1013.4000000000001" y="857.1583643122677"/>
      <point x="1013.4000000000001" y="1043.3999999999999" type="curve" smooth="yes"/>
      <point x="1013.4000000000001" y="1261.5715846994538"/>
      <point x="871.6" y="1422.3999999999999"/>
      <point x="593.0" y="1422.3999999999999" type="curve" smooth="yes"/>
      <point x="300.6" y="1422.3999999999999"/>
      <point x="142.20000000000002" y="1251.0"/>
      <point x="142.20000000000002" y="1064.1" type="curve" smooth="yes"/>
      <point x="142.20000000000002" y="991.5840909090911"/>
      <point x="174.79999999999995" y="951.8000000000001"/>
      <point x="225.5" y="951.8000000000001" type="curve" smooth="yes"/>
      <point x="277.0" y="951.8000000000001"/>
      <point x="312.2" y="985.1999999999999"/>
      <point x="312.2" y="1049.8" type="curve" smooth="yes"/>
      <point x="312.2" y="1125.5" type="line" smooth="yes"/>
      <point x="312.2" y="1252.676923076923"/>
      <point x="396.4791068180392" y="1358.7"/>
      <point x="580.1999999999999" y="1358.7" type="curve" smooth="yes"/>
      <point x="747.4394957257576" y="1358.7"/>
      <point x="850.0" y="1246.2985745238911"/>
      <point x="850.0" y="1035.4" type="curve" smooth="yes"/>
      <point x="850.0" y="847.4820105820105"/>
      <point x="761.745366508509" y="705.3962945550873"/>
      <point x="507.1" y="496.2" type="curve" smooth="yes"/>
      <point x="181.1" y="221.29999999999995" type="line"/>
    </contour>
    <contour>
      <point x="112.80000000000001" y="78.89999999999998" type="curve" smooth="yes"/>
      <point x="112.80000000000001" y="12.637313432835821"/>
      <point x="149.79999999999998" y="-23.999999999999996"/>
      <point x="194.3" y="-23.999999999999996" type="curve" smooth="yes"/>
      <point x="248.5" y="-23.999999999999996"/>
      <point x="280.5594407660898" y="5.785209723447025"/>
      <point x="286.29999999999995" y="72.5" type="curve" smooth="yes"/>
      <point x="292.70000000000005" y="158.1"/>
      <point x="317.59999999999997" y="199.99999999999997"/>
      <point x="376.0" y="199.99999999999997" type="curve" smooth="yes"/>
      <point x="425.69999999999993" y="199.99999999999997"/>
      <point x="465.5" y="175.8"/>
      <point x="538.1000000000001" y="113.29999999999997" type="curve" smooth="yes"/>
      <point x="634.5" y="18.9"/>
      <point x="712.2980056980058" y="-23.599999999999994"/>
      <point x="822.5" y="-23.599999999999994" type="curve" smooth="yes"/>
      <point x="961.7280991735537" y="-23.599999999999994"/>
      <point x="1044.6623406804365" y="53.59536511784536"/>
      <point x="1072.1000000000001" y="248.90000000000006" type="curve" smooth="yes"/>
      <point x="1076.2" y="282.70000000000005"/>
      <point x="1066.2" y="298.29999999999995"/>
      <point x="1047.8" y="300.5" type="curve" smooth="yes"/>
      <point x="1030.6" y="302.6"/>
      <point x="1016.4000000000001" y="293.5"/>
      <point x="1007.1" y="270.80000000000007" type="curve" smooth="yes"/>
      <point x="975.591644811754" y="171.54942088872951"/>
      <point x="928.9" y="124.59999999999998"/>
      <point x="827.1999999999999" y="124.59999999999998" type="curve" smooth="yes"/>
      <point x="674.1999999999999" y="124.59999999999998"/>
      <point x="522.5814471243042" y="278.20000000000005"/>
      <point x="356.40000000000003" y="278.20000000000005" type="curve" smooth="yes"/>
      <point x="198.9" y="278.20000000000005"/>
      <point x="112.80000000000001" y="188.47380073800736"/>
    </contour>
  </outline>
</glyph>
<glyph name="three" format="2">
  <advance width="1028.2"/>
  <unicode hex="0033"/>
  <outline>
    <contour>
      <point x="432.90000000000003" y="735.4999999999999" type="line"/>
      <point x="922.5" y="1289.5999999999997" type="line" smooth="yes"/>
      <point x="957.0527581677704" y="1326.4703454372316"/>
      <point x="971.0" y="1344.0"/>
      <point x="971.0" y="1364.8999999999999" type="curve" smooth="yes"/>
      <point x="971.0" y="1386.5"/>
      <point x="954.5999999999999" y="1400.0"/>
      <point x="925.1999999999999" y="1400.0" type="curve" smooth="yes"/>
      <point x="220.29999999999998" y="1400.0" type="line" smooth="yes"/>
      <point x="171.62941176470588" y="1400.0"/>
      <point x="148.20000000000002" y="1377.6000000000001"/>
      <point x="143.79999999999998" y="1338.4" type="curve" smooth="yes"/>
      <point x="116.9" y="1107.7" type="line" smooth="yes"/>
      <point x="112.89999999999999" y="1072.1"/>
      <point x="129.20000000000002" y="1057.4"/>
      <point x="151.99999999999997" y="1056.6000000000001" type="curve" smooth="yes"/>
      <point x="174.6" y="1056.1999999999998"/>
      <point x="188.70000000000002" y="1070.5"/>
      <point x="194.2" y="1093.6999999999998" type="curve" smooth="yes"/>
      <point x="223.19999999999996" y="1208.0" type="line" smooth="yes"/>
      <point x="233.7275137188145" y="1249.6370535291212"/>
      <point x="252.5" y="1267.8"/>
      <point x="297.29999999999995" y="1267.8" type="curve" smooth="yes"/>
      <point x="859.8" y="1267.8" type="line"/>
      <point x="853.8" y="1323.1000000000001" type="line"/>
      <point x="386.4" y="796.4" type="line" smooth="yes"/>
      <point x="360.29999999999995" y="768.1"/>
      <point x="348.5" y="751.3000000000001"/>
      <point x="348.5" y="730.9000000000001" type="curve" smooth="yes"/>
      <point x="348.5" y="706.6999999999999"/>
      <point x="364.9" y="692.9999999999999"/>
      <point x="395.6" y="692.9999999999999" type="curve" smooth="yes"/>
      <point x="459.5" y="692.9999999999999" type="line" smooth="yes"/>
      <point x="705.6545454545455" y="692.9999999999999"/>
      <point x="808.2" y="582.4000000000001"/>
      <point x="808.2" y="361.8" type="curve" smooth="yes"/>
      <point x="808.2" y="156.3"/>
      <point x="678.862626199676" y="43.49999999999999"/>
      <point x="510.5" y="43.5" type="curve" smooth="yes"/>
      <point x="345.87244161016145" y="43.10135131424699"/>
      <point x="254.0" y="109.49898477157362"/>
      <point x="254.0" y="222.4" type="curve" smooth="yes"/>
      <point x="254.0" y="299.6" type="line" smooth="yes"/>
      <point x="254.0" y="360.3"/>
      <point x="228.44935064935063" y="395.6"/>
      <point x="177.2" y="395.6" type="curve" smooth="yes"/>
      <point x="122.53754385964913" y="395.6"/>
      <point x="85.0" y="353.1861386138613"/>
      <point x="85.0" y="280.59999999999997" type="curve" smooth="yes"/>
      <point x="85.0" y="115.3"/>
      <point x="234.99274611398963" y="-24.0"/>
      <point x="500.7" y="-24.0" type="curve" smooth="yes"/>
      <point x="778.1372093023256" y="-24.0"/>
      <point x="962.8" y="144.50822679107836"/>
      <point x="962.8" y="392.49999999999994" type="curve" smooth="yes"/>
      <point x="962.8" y="625.3613838300928"/>
      <point x="803.091304347826" y="771.0000000000001"/>
      <point x="509.0" y="771.0000000000001" type="curve" smooth="yes"/>
      <point x="484.20000000000005" y="771.0000000000001"/>
      <point x="442.40000000000003" y="769.2"/>
      <point x="424.29999999999995" y="766.1" type="curve"/>
    </contour>
  </outline>
</glyph>
<glyph name="four" format="2">
  <advance width="1124.2"/>
  <unicode hex="0034"/>
  <outline>
    <contour>
      <point x="658.1999999999999" y="766.8000000000001" type="curve" smooth="yes"/>
      <point x="658.1999999999999" y="159.4" type="line" smooth="yes"/>
      <point x="658.1999999999999" y="114.5"/>
      <point x="632.1" y="90.80000000000001"/>
      <point x="587.1" y="83.99999999999999" type="curve" smooth="yes"/>
      <point x="499.2000000000001" y="69.89999999999999" type="line" smooth="yes"/>
      <point x="472.2" y="64.7"/>
      <point x="456.2" y="53.10000000000001"/>
      <point x="456.2" y="33.39999999999999" type="curve" smooth="yes"/>
      <point x="456.2" y="11.899999999999999"/>
      <point x="471.4" y="0.0"/>
      <point x="501.1000000000001" y="0.0" type="curve" smooth="yes"/>
      <point x="965.7" y="0.0" type="line" smooth="yes"/>
      <point x="995.8000000000001" y="0.0"/>
      <point x="1010.9" y="12.099999999999998"/>
      <point x="1010.9" y="33.5" type="curve" smooth="yes"/>
      <point x="1010.9" y="53.0"/>
      <point x="995.0" y="64.3"/>
      <point x="967.8" y="69.79999999999998" type="curve" smooth="yes"/>
      <point x="883.9" y="83.59999999999997" type="line" smooth="yes"/>
      <point x="838.8000000000001" y="90.49999999999999"/>
      <point x="812.5999999999999" y="114.59999999999997"/>
      <point x="812.5999999999999" y="159.60000000000002" type="curve" smooth="yes"/>
      <point x="812.1" y="891.2" type="line" smooth="yes"/>
      <point x="812.1" y="911.3"/>
      <point x="802.3" y="921.0"/>
      <point x="788.6999999999999" y="921.0" type="curve" smooth="yes"/>
      <point x="775.8" y="921.0"/>
      <point x="765.8" y="916.1"/>
      <point x="751.0999999999999" y="900.5999999999999" type="curve" smooth="yes"/>
      <point x="681.6999999999999" y="830.3000000000001" type="line" smooth="yes"/>
      <point x="667.4000000000001" y="813.7"/>
      <point x="658.1999999999999" y="795.9999999999999"/>
    </contour>
    <contour>
      <point x="567.8000000000001" y="1064.6999999999998" type="curve" smooth="yes"/>
      <point x="72.8" y="471.09999999999997" type="line" smooth="yes"/>
      <point x="46.68348044078671" y="442.58997958308635"/>
      <point x="38.5" y="425.0785714285714"/>
      <point x="38.5" y="407.3" type="curve" smooth="yes"/>
      <point x="38.5" y="380.8955555555556"/>
      <point x="57.37273574484472" y="363.41433482772476"/>
      <point x="92.79999999999998" y="363.3999999999999" type="curve" smooth="yes"/>
      <point x="990.5" y="362.99999999999994" type="line" smooth="yes"/>
      <point x="1021.5000000000001" y="362.99999999999994"/>
      <point x="1035.0" y="375.8000000000001"/>
      <point x="1035.0" y="400.2" type="curve" smooth="yes"/>
      <point x="1035.0" y="425.778947368421"/>
      <point x="1017.7" y="436.1"/>
      <point x="991.5999999999999" y="436.1" type="curve" smooth="yes"/>
      <point x="102.39999999999998" y="436.1" type="line"/>
      <point x="113.0" y="403.59999999999997" type="line"/>
      <point x="679.1999999999999" y="1067.8" type="line" smooth="yes"/>
      <point x="772.9490344967415" y="1171.5378680144825"/>
      <point x="802.8000000000001" y="1233.6999999999998"/>
      <point x="802.8000000000001" y="1305.8999999999999" type="curve" smooth="yes"/>
      <point x="802.8000000000001" y="1383.5"/>
      <point x="756.6139534883721" y="1430.0"/>
      <point x="691.4" y="1430.0" type="curve" smooth="yes"/>
      <point x="615.0" y="1430.0"/>
      <point x="573.0" y="1383.6000000000001"/>
      <point x="573.0" y="1322.0" type="curve" smooth="yes"/>
      <point x="573.0" y="1257.793984962406"/>
      <point x="621.3" y="1230.5606299212598"/>
      <point x="621.3" y="1169.3000000000002" type="curve" smooth="yes"/>
      <point x="621.3" y="1129.1000000000001"/>
      <point x="602.687282662424" y="1103.1232350164282"/>
    </contour>
  </outline>
</glyph>
<glyph name="five" format="2">
  <advance width="1088.6"/>
  <unicode hex="0035"/>
  <outline>
    <contour>
      <point x="134.2" y="283.4" type="curve" smooth="yes"/>
      <point x="134.2" y="116.20000000000002"/>
      <point x="290.8" y="-24.0"/>
      <point x="545.3" y="-24.0" type="curve" smooth="yes"/>
      <point x="823.6562352941178" y="-24.0"/>
      <point x="1008.0" y="150.60000000000002"/>
      <point x="1008.0" y="423.8" type="curve" smooth="yes"/>
      <point x="1008.0" y="670.4"/>
      <point x="850.054376657825" y="844.4"/>
      <point x="601.7" y="844.4" type="curve" smooth="yes"/>
      <point x="451.8903495120213" y="844.4"/>
      <point x="326.65109657165095" y="773.4515302458625"/>
      <point x="239.00000000000003" y="649.1999999999999" type="curve"/>
      <point x="265.7" y="650.2" type="line"/>
      <point x="265.7" y="1336.8" type="line"/>
      <point x="235.8" y="1301.3" type="line"/>
      <point x="346.4349644134207" y="1217.8733271863653"/>
      <point x="481.3" y="1165.6"/>
      <point x="639.6000000000001" y="1165.6" type="curve" smooth="yes"/>
      <point x="816.2676229508196" y="1165.6"/>
      <point x="947.7791101654403" y="1249.062812319847"/>
      <point x="987.7" y="1394.3" type="curve" smooth="yes"/>
      <point x="997.3" y="1427.8000000000002"/>
      <point x="988.0" y="1441.2"/>
      <point x="975.0" y="1446.7" type="curve" smooth="yes"/>
      <point x="958.3" y="1453.9"/>
      <point x="941.4000000000001" y="1448.6000000000001"/>
      <point x="922.2999999999998" y="1423.8999999999999" type="curve" smooth="yes"/>
      <point x="870.5537086786853" y="1342.43580578579"/>
      <point x="783.0019157088121" y="1298.6000000000001"/>
      <point x="658.0" y="1298.6000000000001" type="curve" smooth="yes"/>
      <point x="516.7986301369863" y="1298.6000000000001"/>
      <point x="429.2728538285654" y="1342.5304289722553"/>
      <point x="337.5" y="1398.3" type="curve" smooth="yes"/>
      <point x="297.2091417570584" y="1423.276249212481"/>
      <point x="276.56" y="1430.0"/>
      <point x="253.29999999999998" y="1430.0" type="curve" smooth="yes"/>
      <point x="208.2703539823009" y="1430.0"/>
      <point x="187.6" y="1404.6888888888886"/>
      <point x="187.6" y="1364.8000000000002" type="curve" smooth="yes"/>
      <point x="187.6" y="614.5000000000001" type="line" smooth="yes"/>
      <point x="187.6" y="583.6999999999999"/>
      <point x="202.2941176470588" y="566.1"/>
      <point x="228.1" y="566.1" type="curve" smooth="yes"/>
      <point x="251.19233247422682" y="566.1"/>
      <point x="268.7" y="579.9"/>
      <point x="290.5" y="604.0" type="curve" smooth="yes"/>
      <point x="364.80615525916147" y="710.2545870457577"/>
      <point x="458.0530612244898" y="766.6999999999999"/>
      <point x="567.6" y="766.6999999999999" type="curve" smooth="yes"/>
      <point x="735.620792079208" y="766.6999999999999"/>
      <point x="853.1999999999999" y="646.8585751978892"/>
      <point x="853.1999999999999" y="411.69999999999993" type="curve" smooth="yes"/>
      <point x="853.1999999999999" y="163.39999999999998"/>
      <point x="727.2747729765694" y="42.70000000000001"/>
      <point x="561.3000000000002" y="42.70000000000001" type="curve" smooth="yes"/>
      <point x="391.1988014440433" y="42.70000000000001"/>
      <point x="303.20000000000005" y="114.79593908629442"/>
      <point x="303.20000000000005" y="220.60000000000002" type="curve" smooth="yes"/>
      <point x="303.20000000000005" y="299.8" type="line" smooth="yes"/>
      <point x="303.20000000000005" y="359.59999999999997"/>
      <point x="276.29999999999995" y="396.0"/>
      <point x="224.2" y="396.0" type="curve" smooth="yes"/>
      <point x="170.464" y="396.0"/>
      <point x="134.2" y="352.2"/>
    </contour>
  </outline>
</glyph>
<glyph name="six" format="2">
  <advance width="1132.0"/>
  <unicode hex="0036"/>
  <outline>
    <contour>
      <point x="650.6999999999999" y="1422.8" type="curve" smooth="yes"/>
      <point x="319.78065764023216" y="1422.8"/>
      <point x="90.399999994595" y="1181.9000028808584"/>
      <point x="91.2" y="654.0999999999999" type="curve" smooth="yes"/>
      <point x="92.0000000086842" y="219.89999618764426"/>
      <point x="280.0" y="-23.599999999999994"/>
      <point x="600.2" y="-23.599999999999994" type="curve" smooth="yes"/>
      <point x="872.6" y="-23.599999999999994"/>
      <point x="1055.2" y="152.4"/>
      <point x="1055.2" y="426.5" type="curve" smooth="yes"/>
      <point x="1055.2" y="677.9"/>
      <point x="897.1581176470589" y="841.7"/>
      <point x="641.7" y="841.7" type="curve" smooth="yes"/>
      <point x="402.4" y="841.7"/>
      <point x="207.0" y="661.7"/>
      <point x="203.60000000000002" y="442.8" type="curve"/>
      <point x="251.29999999999995" y="422.9" type="line"/>
      <point x="256.40000000000003" y="605.8365482233503"/>
      <point x="410.29999999999995" y="759.1999999999999"/>
      <point x="591.6999999999999" y="759.1999999999999" type="curve" smooth="yes"/>
      <point x="778.4173410404625" y="759.1999999999999"/>
      <point x="899.9" y="637.0739130434782"/>
      <point x="899.9" y="406.29999999999995" type="curve" smooth="yes"/>
      <point x="899.9" y="176.94219948849104"/>
      <point x="784.1999999999999" y="47.0"/>
      <point x="607.6" y="47.0" type="curve" smooth="yes"/>
      <point x="398.4" y="47.0"/>
      <point x="249.2006154045286" y="212.41075987154838"/>
      <point x="248.6" y="670.0" type="curve" smooth="yes"/>
      <point x="247.99999998232008" y="1173.800009105155"/>
      <point x="436.57902097902104" y="1351.2"/>
      <point x="633.3000000000001" y="1351.2" type="curve" smooth="yes"/>
      <point x="772.4620018393625" y="1351.2"/>
      <point x="835.6" y="1283.6819444444445"/>
      <point x="835.6" y="1174.3" type="curve" smooth="yes"/>
      <point x="835.6" y="1122.6" type="line" smooth="yes"/>
      <point x="835.6" y="1059.12736318408"/>
      <point x="863.7" y="1025.8"/>
      <point x="920.9" y="1025.8" type="curve" smooth="yes"/>
      <point x="977.6392857142857" y="1025.8"/>
      <point x="1009.8000000000001" y="1065.9101010101008"/>
      <point x="1009.8000000000001" y="1138.9" type="curve" smooth="yes"/>
      <point x="1009.8000000000001" y="1290.3423220973782"/>
      <point x="874.6138972809667" y="1422.8"/>
    </contour>
  </outline>
</glyph>
<glyph name="seven" format="2">
  <advance width="973.8000000000001"/>
  <unicode hex="0037"/>
  <outline>
    <contour>
      <point x="841.9" y="1284.1999999999998" type="line"/>
      <point x="559.3" y="829.6000000000001" type="line" smooth="yes"/>
      <point x="381.7" y="562.0999999999999"/>
      <point x="290.20000000000005" y="380.3"/>
      <point x="290.20000000000005" y="187.79999999999998" type="curve" smooth="yes"/>
      <point x="290.20000000000005" y="45.800000000000004"/>
      <point x="341.8037735849057" y="-23.6"/>
      <point x="422.09999999999997" y="-23.6" type="curve" smooth="yes"/>
      <point x="488.79999999999995" y="-23.6"/>
      <point x="526.0" y="18.399999999999995"/>
      <point x="526.0" y="81.79999999999998" type="curve" smooth="yes"/>
      <point x="526.0" y="166.49999999999997"/>
      <point x="442.49999999999994" y="222.5"/>
      <point x="442.49999999999994" y="326.3" type="curve" smooth="yes"/>
      <point x="442.49999999999994" y="459.4"/>
      <point x="514.5999999999999" y="606.9"/>
      <point x="665.7" y="842.4000000000001" type="curve" smooth="yes"/>
      <point x="926.0" y="1272.0" type="line" smooth="yes"/>
      <point x="954.8000000000001" y="1311.8"/>
      <point x="960.8000000000001" y="1331.1"/>
      <point x="960.8000000000001" y="1352.3" type="curve" smooth="yes"/>
      <point x="960.8000000000001" y="1381.4999999999998"/>
      <point x="941.4" y="1400.0"/>
      <point x="901.3" y="1400.0" type="curve" smooth="yes"/>
      <point x="152.60000000000002" y="1400.0" type="line" smooth="yes"/>
      <point x="105.8" y="1400.0"/>
      <point x="83.89999999999999" y="1377.1999999999998"/>
      <point x="79.9" y="1338.1" type="curve" smooth="yes"/>
      <point x="53.9" y="1093.6" type="line" smooth="yes"/>
      <point x="50.3" y="1058.3999999999999"/>
      <point x="64.9" y="1043.2"/>
      <point x="89.1" y="1042.4" type="curve" smooth="yes"/>
      <point x="111.30000000000001" y="1042.0000000000002"/>
      <point x="125.5" y="1056.0999999999997"/>
      <point x="131.4" y="1079.4" type="curve" smooth="yes"/>
      <point x="162.2" y="1199.6" type="line" smooth="yes"/>
      <point x="173.10000000000002" y="1241.9999999999998"/>
      <point x="189.7" y="1259.1999999999998"/>
      <point x="234.9" y="1259.1999999999998" type="curve" smooth="yes"/>
      <point x="868.6" y="1259.1999999999998" type="line"/>
    </contour>
  </outline>
</glyph>
<glyph name="eight" format="2">
  <advance width="1092.2"/>
  <unicode hex="0038"/>
  <outline>
    <contour>
      <point x="540.4000000000001" y="-23.800000000000004" type="curve" smooth="yes"/>
      <point x="825.6475177304964" y="-23.800000000000004"/>
      <point x="1005.1999999999998" y="112.64670658682635"/>
      <point x="1005.1999999999998" y="327.8999999999999" type="curve" smooth="yes"/>
      <point x="1005.1999999999998" y="482.9781050533025"/>
      <point x="891.2721661305504" y="612.4777509933059"/>
      <point x="603.9999999999999" y="705.5000000000001" type="curve" smooth="yes"/>
      <point x="328.15968322256185" y="795.2814403364534"/>
      <point x="257.6" y="915.888604061846"/>
      <point x="257.6" y="1066.9" type="curve" smooth="yes"/>
      <point x="257.6" y="1232.9000000000003"/>
      <point x="380.20334346504563" y="1355.5000000000002"/>
      <point x="556.8" y="1355.5000000000002" type="curve" smooth="yes"/>
      <point x="739.668451968706" y="1355.5000000000002"/>
      <point x="863.4" y="1242.6380952380953"/>
      <point x="863.4" y="1047.4" type="curve" smooth="yes"/>
      <point x="863.4" y="882.4715969118245"/>
      <point x="762.778235985247" y="748.6907978726143"/>
      <point x="608.9" y="668.2" type="curve"/>
      <point x="639.5" y="636.3000000000001" type="line"/>
      <point x="877.0884757721614" y="697.0293285005962"/>
      <point x="1014.2000000000002" y="855.2940845070423"/>
      <point x="1014.2000000000002" y="1050.8" type="curve" smooth="yes"/>
      <point x="1014.2000000000002" y="1254.1"/>
      <point x="860.2064694494929" y="1422.8"/>
      <point x="574.9" y="1422.8" type="curve" smooth="yes"/>
      <point x="289.83262411347516" y="1422.8"/>
      <point x="107.19999999999999" y="1250.407268170426"/>
      <point x="107.19999999999999" y="1020.1" type="curve" smooth="yes"/>
      <point x="107.19999999999999" y="828.5033285362158"/>
      <point x="218.94235091800795" y="700.0503954068402"/>
      <point x="512.6" y="604.9" type="curve" smooth="yes"/>
      <point x="773.6231386229697" y="519.8210269227984"/>
      <point x="848.8" y="428.20563674567916"/>
      <point x="848.8" y="294.1" type="curve" smooth="yes"/>
      <point x="848.8" y="135.35323741007196"/>
      <point x="738.5570093457944" y="41.80000000000001"/>
      <point x="566.4" y="41.80000000000001" type="curve" smooth="yes"/>
      <point x="381.06435045317215" y="41.80000000000001"/>
      <point x="262.79999999999995" y="141.16164383561645"/>
      <point x="262.79999999999995" y="317.20000000000005" type="curve" smooth="yes"/>
      <point x="262.79999999999995" y="432.4"/>
      <point x="330.8073712504266" y="562.9250225752882"/>
      <point x="487.70000000000005" y="628.8000000000001" type="curve"/>
      <point x="466.49999999999994" y="662.1999999999999" type="line"/>
      <point x="237.26976094969075" y="612.6528811938564"/>
      <point x="110.60000000000001" y="460.0847176079734"/>
      <point x="110.60000000000001" y="304.2" type="curve"/>
      <point x="110.60000000000001" y="106.74246153846155"/>
      <point x="259.76769230769236" y="-23.800000000000004"/>
    </contour>
  </outline>
</glyph>
<glyph name="nine" format="2">
  <advance width="1144.0"/>
  <unicode hex="0039"/>
  <outline>
    <contour>
      <point x="506.9000000000001" y="-23.199999999999996" type="curve" smooth="yes"/>
      <point x="835.4870229007633" y="-23.199999999999996"/>
      <point x="1049.60522188782" y="227.31673379184477"/>
      <point x="1054.3999999999999" y="749.5000000000001" type="curve" smooth="yes"/>
      <point x="1058.4059523690673" y="1181.0869099793576"/>
      <point x="870.3609147609147" y="1423.2"/>
      <point x="551.4000000000001" y="1423.2" type="curve" smooth="yes"/>
      <point x="277.81534772182255" y="1423.2"/>
      <point x="90.4" y="1248.6874439461883"/>
      <point x="90.4" y="976.8999999999999" type="curve" smooth="yes"/>
      <point x="90.4" y="727.961224489796"/>
      <point x="248.39999999999998" y="565.9999999999999"/>
      <point x="503.90000000000003" y="565.9999999999999" type="curve" smooth="yes"/>
      <point x="743.1999999999999" y="565.9999999999999"/>
      <point x="938.6" y="746.0000000000001"/>
      <point x="942.0" y="964.9" type="curve"/>
      <point x="894.3000000000001" y="983.1999999999999" type="line"/>
      <point x="889.4062618584761" y="801.2232673665121"/>
      <point x="735.3" y="648.5"/>
      <point x="553.9" y="648.5" type="curve" smooth="yes"/>
      <point x="367.20000000000005" y="648.5"/>
      <point x="245.70000000000002" y="769.2956043956043"/>
      <point x="245.70000000000002" y="997.0999999999999" type="curve" smooth="yes"/>
      <point x="245.70000000000002" y="1224.2183673469387"/>
      <point x="366.19999999999993" y="1352.6000000000001"/>
      <point x="544.0" y="1352.6000000000001" type="curve" smooth="yes"/>
      <point x="752.0255528255527" y="1352.6000000000001"/>
      <point x="900.406144385235" y="1192.4059945543208"/>
      <point x="897.0" y="737.6" type="curve" smooth="yes"/>
      <point x="893.205673703958" y="231.27804246165164"/>
      <point x="720.326267281106" y="48.39999999999999"/>
      <point x="524.3000000000001" y="48.39999999999999" type="curve" smooth="yes"/>
      <point x="379.8906631963891" y="48.39999999999999"/>
      <point x="302.00000000000006" y="115.1632183908046"/>
      <point x="302.00000000000006" y="222.9" type="curve" smooth="yes"/>
      <point x="302.00000000000006" y="277.40000000000003" type="line" smooth="yes"/>
      <point x="302.00000000000006" y="340.90000000000003"/>
      <point x="274.15454545454537" y="374.19999999999993"/>
      <point x="217.89999999999998" y="374.19999999999993" type="curve" smooth="yes"/>
      <point x="160.2909090909091" y="374.19999999999993"/>
      <point x="127.79999999999998" y="333.9484848484848"/>
      <point x="127.79999999999998" y="260.7" type="curve" smooth="yes"/>
      <point x="127.79999999999998" y="109.4"/>
      <point x="277.9311572700297" y="-23.199999999999996"/>
    </contour>
  </outline>
</glyph>
<glyph name="less" format="2">
  <advance width="1025.4"/>
  <unicode hex="003C"/>
  <outline>
    <contour>
      <point x="216.39999999999998" y="690.8" type="line"/>
      <point x="875.0000000000001" y="332.0" type="line" smooth="yes"/>
      <point x="905.2" y="316.8"/>
      <point x="919.5" y="295.3"/>
      <point x="919.5" y="278.59999999999997" type="curve" smooth="yes"/>
      <point x="919.7" y="257.40000000000003"/>
      <point x="908.4" y="242.90000000000003"/>
      <point x="882.2" y="242.90000000000003" type="curve" smooth="yes"/>
      <point x="860.2" y="242.90000000000003"/>
      <point x="839.5999999999999" y="253.59999999999997"/>
      <point x="808.6" y="269.09999999999997" type="curve" smooth="yes"/>
      <point x="180.2" y="605.3000000000001" type="line" smooth="yes"/>
      <point x="139.5" y="624.7999999999998"/>
      <point x="118.7" y="650.6"/>
      <point x="118.7" y="684.0" type="curve" smooth="yes"/>
      <point x="118.7" y="717.3"/>
      <point x="139.5" y="743.1"/>
      <point x="180.2" y="762.6" type="curve" smooth="yes"/>
      <point x="807.0" y="1097.9" type="line" smooth="yes"/>
      <point x="838.5" y="1113.8999999999999"/>
      <point x="858.7" y="1124.5000000000002"/>
      <point x="880.6" y="1124.5000000000002" type="curve" smooth="yes"/>
      <point x="906.9" y="1124.5000000000002"/>
      <point x="918.6" y="1109.6000000000001"/>
      <point x="918.4" y="1088.5" type="curve" smooth="yes"/>
      <point x="918.4" y="1071.7"/>
      <point x="903.7" y="1051.1999999999998"/>
      <point x="873.0000000000001" y="1035.5" type="curve" smooth="yes"/>
      <point x="216.39999999999998" y="677.6" type="line"/>
    </contour>
  </outline>
</glyph>
<glyph name="question" format="2">
  <advance width="916.4"/>
  <unicode hex="003F"/>
  <outline>
    <contour>
      <point x="371.6" y="673.4" type="line" smooth="yes"/>
      <point x="365.4" y="726.3"/>
      <point x="380.9094528579304" y="762.660176952766"/>
      <point x="428.0" y="785.4000000000001" type="curve" smooth="yes"/>
      <point x="490.0" y="815.4" type="line" smooth="yes"/>
      <point x="641.4" y="889.7"/>
      <point x="687.0" y="990.5744364794904"/>
      <point x="687.0" y="1123.4999999999998" type="curve" smooth="yes"/>
      <point x="687.0" y="1292.5646464646463"/>
      <point x="595.7" y="1378.6000000000001"/>
      <point x="472.09999999999997" y="1378.6000000000001" type="curve" smooth="yes"/>
      <point x="332.1" y="1378.6000000000001"/>
      <point x="268.8" y="1301.9"/>
      <point x="268.8" y="1194.3" type="curve" smooth="yes"/>
      <point x="268.8" y="1138.3" type="line" smooth="yes"/>
      <point x="268.8" y="1070.8999999999999"/>
      <point x="232.2707423580786" y="1029.6"/>
      <point x="174.5" y="1029.6" type="curve" smooth="yes"/>
      <point x="123.10046948356808" y="1029.6"/>
      <point x="89.0" y="1071.5738532110092"/>
      <point x="89.0" y="1135.0" type="curve" smooth="yes"/>
      <point x="89.0" y="1299.1999999999998"/>
      <point x="259.99999999999994" y="1446.3999999999999"/>
      <point x="477.09999999999997" y="1446.3999999999999" type="curve" smooth="yes"/>
      <point x="702.1999999999999" y="1446.3999999999999"/>
      <point x="845.2999999999998" y="1322.0251889168767"/>
      <point x="845.2999999999998" y="1114.8" type="curve" smooth="yes"/>
      <point x="845.2999999999998" y="959.0348600186747"/>
      <point x="772.6281524085791" y="830.6447108966872"/>
      <point x="580.6" y="760.3000000000001" type="curve" smooth="yes"/>
      <point x="522.1999999999999" y="737.9" type="line" smooth="yes"/>
      <point x="489.69872131037187" y="726.2072762293151"/>
      <point x="479.09999999999997" y="704.6999999999999"/>
      <point x="475.5" y="663.1999999999999" type="curve" smooth="yes"/>
      <point x="466.5" y="453.59999999999997" type="line" smooth="yes"/>
      <point x="460.2780307813457" y="422.7783154103597"/>
      <point x="447.4090909090909" y="409.20000000000005"/>
      <point x="424.2" y="409.20000000000005" type="curve" smooth="yes"/>
      <point x="400.7137404580152" y="409.20000000000005"/>
      <point x="387.23499156143373" y="423.69002084822256"/>
      <point x="382.8" y="452.5" type="curve" smooth="yes"/>
    </contour>
    <component base="period" xOffset="203.2"/>
  </outline>
</glyph>
<glyph name="at" format="2">
  <advance width="1714.8"/>
  <unicode hex="0040"/>
  <outline>
    <contour>
      <point x="1069.7999999999997" y="497.50000000000006" type="curve"/>
      <point x="1079.9" y="550.9000000000001" type="line"/>
      <point x="1019.3000000000001" y="573.4000000000001"/>
      <point x="946.0" y="588.6"/>
      <point x="864.4" y="588.6" type="curve" smooth="yes"/>
      <point x="641.5" y="588.6"/>
      <point x="509.20000000000005" y="484.2666666666667"/>
      <point x="509.20000000000005" y="348.3" type="curve" smooth="yes"/>
      <point x="509.20000000000005" y="213.00000000000003"/>
      <point x="615.1999999999999" y="137.4"/>
      <point x="769.1999999999999" y="137.4" type="curve" smooth="yes"/>
      <point x="898.4" y="137.4"/>
      <point x="1020.8" y="204.39999999999998"/>
      <point x="1099.7000000000003" y="317.3" type="curve"/>
      <point x="1078.1999999999998" y="358.9" type="line"/>
      <point x="1009.1557128550085" y="266.5033315357799"/>
      <point x="914.9" y="217.2"/>
      <point x="814.0" y="217.2" type="curve" smooth="yes"/>
      <point x="723.4" y="217.2"/>
      <point x="655.1999999999999" y="270.14437869822484"/>
      <point x="655.1999999999999" y="368.90000000000003" type="curve" smooth="yes"/>
      <point x="655.1999999999999" y="470.4"/>
      <point x="741.6" y="532.7"/>
      <point x="876.0" y="532.7" type="curve" smooth="yes"/>
      <point x="949.9000000000001" y="532.7"/>
      <point x="1011.2665501261471" y="516.8771544343076"/>
    </contour>
    <contour>
      <point x="1277.0" y="215.19999999999996" type="curve" smooth="yes"/>
      <point x="1220.3000000000002" y="215.19999999999996"/>
      <point x="1184.0" y="250.59999999999997"/>
      <point x="1184.0" y="316.3" type="curve" smooth="yes"/>
      <point x="1184.0" y="776.1999999999999" type="line" smooth="yes"/>
      <point x="1184.0" y="927.4999999999999"/>
      <point x="1079.6656488549618" y="1019.5999999999999"/>
      <point x="897.2000000000002" y="1019.5999999999999" type="curve" smooth="yes"/>
      <point x="682.7785234899329" y="1019.5999999999999"/>
      <point x="553.8" y="908.237614678899"/>
      <point x="553.8" y="778.4" type="curve" smooth="yes"/>
      <point x="553.8" y="732.9000000000001"/>
      <point x="585.9" y="707.5999999999999"/>
      <point x="626.4000000000001" y="707.5999999999999" type="curve" smooth="yes"/>
      <point x="670.5999999999999" y="707.5999999999999"/>
      <point x="706.2" y="731.5"/>
      <point x="706.2" y="776.9" type="curve" smooth="yes"/>
      <point x="706.2" y="829.0" type="line" smooth="yes"/>
      <point x="706.2" y="895.6212765957446"/>
      <point x="759.5" y="953.8"/>
      <point x="868.9000000000001" y="953.8" type="curve" smooth="yes"/>
      <point x="984.0000000000001" y="953.8"/>
      <point x="1049.0" y="890.4657142857142"/>
      <point x="1049.0" y="776.1999999999999" type="curve" smooth="yes"/>
      <point x="1049.0" y="300.7" type="line"/>
      <point x="1055.3" y="297.1" type="line"/>
      <point x="1057.8999518772869" y="187.90160598199247"/>
      <point x="1138.5386819484238" y="137.5"/>
      <point x="1253.2999999999997" y="137.4" type="curve" smooth="yes"/>
      <point x="1469.885074300903" y="137.29783552261162"/>
      <point x="1606.3000000000002" y="340.3"/>
      <point x="1606.3000000000002" y="630.8000000000001" type="curve" smooth="yes"/>
      <point x="1606.3000000000002" y="1095.0999999999997"/>
      <point x="1290.8999999999999" y="1364.4"/>
      <point x="891.1000000000001" y="1364.4" type="curve" smooth="yes"/>
      <point x="391.8" y="1364.4"/>
      <point x="90.69999999999999" y="1013.4000000000002"/>
      <point x="90.69999999999999" y="548.7" type="curve" smooth="yes"/>
      <point x="90.69999999999999" y="54.300000000000004"/>
      <point x="433.69999999999993" y="-250.29999999999995"/>
      <point x="893.5" y="-250.29999999999995" type="curve" smooth="yes"/>
      <point x="1184.3000000000002" y="-250.29999999999995"/>
      <point x="1445.1999999999998" y="-140.3"/>
      <point x="1584.7" y="38.0" type="curve" smooth="yes"/>
      <point x="1606.3999999999999" y="63.70000000000002"/>
      <point x="1610.8000000000002" y="85.8"/>
      <point x="1594.8" y="100.50000000000001" type="curve" smooth="yes"/>
      <point x="1578.6000000000001" y="115.19999999999999"/>
      <point x="1555.3" y="108.6"/>
      <point x="1535.1" y="87.39999999999999" type="curve" smooth="yes"/>
      <point x="1382.6260345820474" y="-83.08875850154311"/>
      <point x="1161.0" y="-178.7"/>
      <point x="895.7999999999998" y="-178.7" type="curve" smooth="yes"/>
      <point x="471.29499999999996" y="-178.7"/>
      <point x="174.3" y="111.67817403708989"/>
      <point x="174.3" y="548.7" type="curve" smooth="yes"/>
      <point x="174.3" y="984.1999999999999"/>
      <point x="446.0620437956204" y="1293.9"/>
      <point x="887.8000000000001" y="1293.9" type="curve" smooth="yes"/>
      <point x="1244.87972972973" y="1293.9"/>
      <point x="1521.6000000000001" y="1039.8"/>
      <point x="1521.6000000000001" y="629.6" type="curve" smooth="yes"/>
      <point x="1521.6000000000001" y="361.49999999999994"/>
      <point x="1420.2800486665174" y="215.19999999999996"/>
    </contour>
  </outline>
</glyph>
<glyph name="A" format="2">
  <advance width="1386.6"/>
  <unicode hex="0041"/>
  <anchor x="691.0" y="1460.3999999999999" name="center"/>
  <outline>
    <contour>
      <point x="347.8" y="552.0" type="line"/>
      <point x="334.4" y="475.3" type="line"/>
      <point x="965.9" y="475.3" type="line"/>
      <point x="957.0" y="552.0" type="line"/>
    </contour>
    <contour>
      <point x="435.70000000000005" y="33.0" type="curve" smooth="yes"/>
      <point x="435.70000000000005" y="51.599999999999994"/>
      <point x="422.69999999999993" y="62.099999999999994"/>
      <point x="396.4" y="67.80000000000001" type="curve" smooth="yes"/>
      <point x="312.4" y="79.29999999999998" type="line" smooth="yes"/>
      <point x="257.0" y="92.69999999999999"/>
      <point x="252.9" y="116.99999999999997"/>
      <point x="274.29999999999995" y="180.5" type="curve" smooth="yes"/>
      <point x="668.3" y="1334.3999999999999" type="line" smooth="yes"/>
      <point x="643.3" y="1328.3" type="line"/>
      <point x="1045.6000000000001" y="153.59999999999997" type="line" smooth="yes"/>
      <point x="1062.4" y="104.30000000000001"/>
      <point x="1063.2" y="84.39999999999999"/>
      <point x="1029.0" y="78.7" type="curve" smooth="yes"/>
      <point x="943.4" y="68.3" type="line" smooth="yes"/>
      <point x="916.6999999999999" y="62.800000000000004"/>
      <point x="904.0" y="51.099999999999994"/>
      <point x="904.0" y="33.0" type="curve" smooth="yes"/>
      <point x="904.0" y="12.100000000000001"/>
      <point x="918.9000000000001" y="0.0"/>
      <point x="948.9000000000001" y="0.0" type="curve" smooth="yes"/>
      <point x="1304.5" y="0.0" type="line" smooth="yes"/>
      <point x="1334.7" y="0.0"/>
      <point x="1349.8" y="12.099999999999998"/>
      <point x="1349.8" y="33.0" type="curve" smooth="yes"/>
      <point x="1349.8" y="51.8"/>
      <point x="1339.6000000000001" y="61.79999999999999"/>
      <point x="1302.7" y="71.69999999999999" type="curve" smooth="yes"/>
      <point x="1252.1" y="82.49999999999999"/>
      <point x="1229.4" y="102.69999999999997"/>
      <point x="1213.6" y="150.5" type="curve" smooth="yes"/>
      <point x="823.8" y="1279.7999999999997" type="line" smooth="yes"/>
      <point x="812.9" y="1312.7"/>
      <point x="818.7" y="1322.8000000000002"/>
      <point x="854.8999999999999" y="1330.4" type="curve" smooth="yes"/>
      <point x="893.2" y="1338.7"/>
      <point x="909.0999999999999" y="1348.6"/>
      <point x="909.0999999999999" y="1368.1999999999998" type="curve" smooth="yes"/>
      <point x="909.0999999999999" y="1387.5"/>
      <point x="894.7999999999998" y="1400.0"/>
      <point x="864.1999999999999" y="1400.0" type="curve" smooth="yes"/>
      <point x="512.0999999999999" y="1400.0" type="line" smooth="yes"/>
      <point x="481.9" y="1400.0"/>
      <point x="466.8" y="1388.3000000000002"/>
      <point x="466.8" y="1367.7999999999997" type="curve" smooth="yes"/>
      <point x="466.8" y="1348.8999999999999"/>
      <point x="483.5999999999999" y="1339.0"/>
      <point x="521.8" y="1330.7" type="curve" smooth="yes"/>
      <point x="567.2" y="1320.2000000000003"/>
      <point x="572.9" y="1309.1"/>
      <point x="559.5000000000001" y="1268.9999999999998" type="curve" smooth="yes"/>
      <point x="184.6" y="172.3" type="line" smooth="yes"/>
      <point x="163.5" y="108.29999999999998"/>
      <point x="154.10000000000002" y="90.99999999999997"/>
      <point x="117.6" y="79.99999999999999" type="curve" smooth="yes"/>
      <point x="74.5" y="68.19999999999999" type="line" smooth="yes"/>
      <point x="46.8" y="58.19999999999999"/>
      <point x="36.199999999999996" y="49.19999999999999"/>
      <point x="36.199999999999996" y="32.599999999999994" type="curve" smooth="yes"/>
      <point x="36.199999999999996" y="12.100000000000001"/>
      <point x="50.89999999999998" y="0.0"/>
      <point x="81.39999999999999" y="0.0" type="curve" smooth="yes"/>
      <point x="390.9" y="0.0" type="line" smooth="yes"/>
      <point x="421.5" y="0.0"/>
      <point x="435.70000000000005" y="12.100000000000001"/>
    </contour>
  </outline>
</glyph>
<glyph name="B" format="2">
  <advance width="1295.1999999999998"/>
  <unicode hex="0042"/>
  <outline>
    <contour>
      <point x="1236.2" y="338.3" type="curve" smooth="yes"/>
      <point x="1236.2" y="534.3426913560808"/>
      <point x="1050.9" y="675.6999999999999"/>
      <point x="741.4000000000001" y="675.6999999999999" type="curve"/>
      <point x="669.3000000000001" y="648.3000000000001" type="line"/>
      <point x="1001.8" y="648.3000000000001"/>
      <point x="1156.1999999999998" y="802.2331367970921"/>
      <point x="1156.1999999999998" y="1002.2" type="curve" smooth="yes"/>
      <point x="1156.1999999999998" y="1237.6099744245525"/>
      <point x="961.5" y="1400.0"/>
      <point x="608.3" y="1400.0" type="curve" smooth="yes"/>
      <point x="159.4" y="1400.0" type="line" smooth="yes"/>
      <point x="129.6" y="1400.0"/>
      <point x="115.70000000000002" y="1387.9"/>
      <point x="115.70000000000002" y="1366.9999999999998" type="curve" smooth="yes"/>
      <point x="115.70000000000002" y="1348.0"/>
      <point x="128.1" y="1336.8999999999999"/>
      <point x="154.3" y="1329.8999999999999" type="curve" smooth="yes"/>
      <point x="215.7" y="1318.3999999999999" type="line" smooth="yes"/>
      <point x="255.3" y="1309.8999999999999"/>
      <point x="278.4" y="1288.9"/>
      <point x="278.4" y="1249.6" type="curve" smooth="yes"/>
      <point x="278.4" y="150.4" type="line" smooth="yes"/>
      <point x="278.4" y="111.1"/>
      <point x="255.3" y="90.1"/>
      <point x="215.7" y="81.60000000000001" type="curve" smooth="yes"/>
      <point x="154.3" y="70.1" type="line" smooth="yes"/>
      <point x="128.1" y="63.099999999999994"/>
      <point x="115.70000000000002" y="51.999999999999986"/>
      <point x="115.70000000000002" y="33.0" type="curve" smooth="yes"/>
      <point x="115.70000000000002" y="12.099999999999998"/>
      <point x="129.6" y="0.0"/>
      <point x="159.4" y="0.0" type="curve" smooth="yes"/>
      <point x="738.1" y="0.0" type="line" smooth="yes"/>
      <point x="1063.6807692307693" y="0.0"/>
      <point x="1236.2" y="141.86744186046514"/>
    </contour>
    <contour>
      <point x="666.4000000000001" y="624.4" type="line" smooth="yes"/>
      <point x="936.3373390557939" y="624.4"/>
      <point x="1069.8000000000002" y="507.9319540229883"/>
      <point x="1069.8000000000002" y="341.3" type="curve" smooth="yes"/>
      <point x="1069.8000000000002" y="182.89300699300702"/>
      <point x="952.9379120879121" y="71.1"/>
      <point x="709.9" y="71.1" type="curve" smooth="yes"/>
      <point x="558.1" y="71.1" type="line" smooth="yes"/>
      <point x="474.8" y="71.1"/>
      <point x="436.4" y="101.90000000000002"/>
      <point x="436.4" y="163.60000000000002" type="curve" smooth="yes"/>
      <point x="436.4" y="1328.8" type="line"/>
      <point x="590.9" y="1328.8" type="line" smooth="yes"/>
      <point x="861.7996466431096" y="1328.8"/>
      <point x="997.3000000000001" y="1192.894011976048"/>
      <point x="997.3000000000001" y="996.9000000000001" type="curve" smooth="yes"/>
      <point x="997.3000000000001" y="807.8869316613432"/>
      <point x="871.4678260869565" y="690.7"/>
      <point x="658.8000000000001" y="690.7" type="curve" smooth="yes"/>
      <point x="383.0999999999999" y="690.7" type="line"/>
      <point x="383.0999999999999" y="624.4" type="line"/>
    </contour>
  </outline>
</glyph>
<glyph name="C" format="2">
  <advance width="1379.1000000000001"/>
  <unicode hex="0043"/>
  <anchor x="760.8" y="1550.0" name="center"/>
  <outline>
    <contour>
      <point x="1303.8999999999999" y="332.3" type="curve" smooth="yes"/>
      <point x="1303.9" y="346.2"/>
      <point x="1297.1999999999998" y="355.4"/>
      <point x="1286.1000000000001" y="357.0" type="curve" smooth="yes"/>
      <point x="1272.225806451613" y="358.8"/>
      <point x="1259.6" y="347.3999999999999"/>
      <point x="1246.5" y="325.3" type="curve" smooth="yes"/>
      <point x="1169.4" y="166.8"/>
      <point x="1025.5511041009463" y="75.29999999999998"/>
      <point x="814.1" y="75.29999999999998" type="curve" smooth="yes"/>
      <point x="501.98708458632126" y="75.29999999999998"/>
      <point x="259.79999999999995" y="321.20000000000005"/>
      <point x="259.79999999999995" y="729.7" type="curve" smooth="yes"/>
      <point x="259.79999999999995" y="1098.0837209302329"/>
      <point x="474.6539325842697" y="1355.6"/>
      <point x="750.6999999999999" y="1355.6" type="curve" smooth="yes"/>
      <point x="961.4" y="1355.6"/>
      <point x="1110.4688337166065" y="1258.6680750602432"/>
      <point x="1226.9" y="1019.5999999999999" type="curve" smooth="yes"/>
      <point x="1236.9999999999998" y="998.2000000000002"/>
      <point x="1253.4999999999998" y="987.7"/>
      <point x="1273.1000000000001" y="989.6000000000001" type="curve" smooth="yes"/>
      <point x="1297.7" y="991.6"/>
      <point x="1311.1" y="1013.0000000000001"/>
      <point x="1303.0" y="1037.9" type="curve" smooth="yes"/>
      <point x="1193.9" y="1376.3" type="line" smooth="yes"/>
      <point x="1185.6000000000001" y="1403.5999999999997"/>
      <point x="1174.9" y="1413.6"/>
      <point x="1155.8999999999999" y="1413.6" type="curve" smooth="yes"/>
      <point x="1113.2" y="1413.6"/>
      <point x="1120.4999999999998" y="1339.1"/>
      <point x="1083.4" y="1339.1" type="curve" smooth="yes"/>
      <point x="1049.1" y="1339.1"/>
      <point x="963.9999999999999" y="1430.4"/>
      <point x="750.5999999999999" y="1430.4" type="curve" smooth="yes"/>
      <point x="375.2" y="1430.4"/>
      <point x="100.0" y="1118.1000000000001"/>
      <point x="100.0" y="692.6999999999999" type="curve" smooth="yes"/>
      <point x="100.0" y="269.6346260387812"/>
      <point x="356.6030674846625" y="-35.2"/>
      <point x="775.5000000000001" y="-35.2" type="curve" smooth="yes"/>
      <point x="1115.5140432541903" y="-35.2"/>
      <point x="1302.2000355091275" y="186.10103864197546"/>
    </contour>
  </outline>
</glyph>
<glyph name="D" format="2">
  <advance width="1534.8"/>
  <unicode hex="0044"/>
  <anchor x="755.8000000000001" y="1570.0" name="center"/>
  <outline>
    <contour>
      <point x="116.10000000000001" y="33.0" type="curve" smooth="yes"/>
      <point x="116.10000000000001" y="12.1"/>
      <point x="130.0" y="0.0"/>
      <point x="159.8" y="0.0" type="curve" smooth="yes"/>
      <point x="688.1999999999999" y="0.0" type="line" smooth="yes"/>
      <point x="1174.0" y="0.0"/>
      <point x="1437.6" y="286.4"/>
      <point x="1437.6" y="667.6" type="curve" smooth="yes"/>
      <point x="1437.6" y="1091.2"/>
      <point x="1105.1999999999998" y="1400.0"/>
      <point x="604.8" y="1400.0" type="curve" smooth="yes"/>
      <point x="159.8" y="1400.0" type="line" smooth="yes"/>
      <point x="130.10000000000002" y="1400.0"/>
      <point x="116.10000000000001" y="1387.9000000000003"/>
      <point x="116.10000000000001" y="1367.0" type="curve" smooth="yes"/>
      <point x="116.10000000000001" y="1347.9999999999998"/>
      <point x="128.5" y="1336.9"/>
      <point x="154.7" y="1329.8999999999999" type="curve" smooth="yes"/>
      <point x="216.1" y="1318.3999999999999" type="line" smooth="yes"/>
      <point x="255.69999999999996" y="1309.9"/>
      <point x="278.8" y="1288.8999999999996"/>
      <point x="278.8" y="1249.6000000000001" type="curve" smooth="yes"/>
      <point x="278.8" y="150.40000000000003" type="line" smooth="yes"/>
      <point x="278.8" y="111.1"/>
      <point x="255.70000000000002" y="90.1"/>
      <point x="216.1" y="81.6" type="curve" smooth="yes"/>
      <point x="154.70000000000002" y="70.1" type="line" smooth="yes"/>
      <point x="128.5" y="63.09999999999998"/>
      <point x="116.10000000000001" y="51.999999999999986"/>
    </contour>
    <contour>
      <point x="685.0000000000001" y="74.9" type="curve" smooth="yes"/>
      <point x="553.1" y="74.9" type="line" smooth="yes"/>
      <point x="472.8999999999999" y="74.9"/>
      <point x="436.4" y="103.39999999999998"/>
      <point x="436.4" y="164.79999999999998" type="curve" smooth="yes"/>
      <point x="436.4" y="1325.1000000000001" type="line"/>
      <point x="586.4" y="1325.1000000000001" type="line" smooth="yes"/>
      <point x="1000.5" y="1325.1000000000001"/>
      <point x="1271.0" y="1059.1000000000001"/>
      <point x="1271.0" y="673.5999999999999" type="curve" smooth="yes"/>
      <point x="1271.0" y="304.8"/>
      <point x="1056.2" y="74.9"/>
    </contour>
  </outline>
</glyph>
<glyph name="E" format="2">
  <advance width="1271.4"/>
  <unicode hex="0045"/>
  <anchor x="645.8000000000001" y="1510.0" name="center"/>
  <outline>
    <contour>
      <point x="372.40000000000003" y="727.5999999999999" type="line"/>
      <point x="372.40000000000003" y="654.6000000000001" type="line"/>
      <point x="790.3000000000001" y="654.6000000000001" type="line" smooth="yes"/>
      <point x="866.3" y="654.6000000000001"/>
      <point x="894.1" y="632.5000000000001"/>
      <point x="934.6999999999999" y="550.7" type="curve" smooth="yes"/>
      <point x="946.1" y="530.2"/>
      <point x="962.5999999999999" y="520.1"/>
      <point x="981.4999999999999" y="525.3" type="curve" smooth="yes"/>
      <point x="1001.9" y="531.2"/>
      <point x="1009.1" y="547.3000000000001"/>
      <point x="1002.6" y="573.5999999999999" type="curve" smooth="yes"/>
      <point x="932.0" y="844.0999999999999" type="line" smooth="yes"/>
      <point x="926.2" y="868.0"/>
      <point x="912.6" y="879.9000000000001"/>
      <point x="892.6" y="877.1" type="curve" smooth="yes"/>
      <point x="873.9" y="874.3000000000001"/>
      <point x="865.4" y="859.4"/>
      <point x="862.3" y="834.4" type="curve" smooth="yes"/>
      <point x="855.5" y="751.5"/>
      <point x="831.9000000000001" y="727.5999999999999"/>
      <point x="747.5" y="727.5999999999999" type="curve" smooth="yes"/>
    </contour>
    <contour>
      <point x="116.10000000000001" y="1366.9999999999998" type="curve" smooth="yes"/>
      <point x="116.10000000000001" y="1348.0"/>
      <point x="128.5" y="1336.8999999999999"/>
      <point x="154.7" y="1329.8999999999999" type="curve" smooth="yes"/>
      <point x="216.1" y="1318.3999999999999" type="line" smooth="yes"/>
      <point x="255.70000000000002" y="1309.8999999999999"/>
      <point x="278.8" y="1288.9"/>
      <point x="278.8" y="1249.6" type="curve" smooth="yes"/>
      <point x="278.8" y="150.4" type="line" smooth="yes"/>
      <point x="278.8" y="111.1"/>
      <point x="255.70000000000002" y="90.1"/>
      <point x="216.1" y="81.60000000000001" type="curve" smooth="yes"/>
      <point x="154.7" y="70.1" type="line" smooth="yes"/>
      <point x="128.5" y="63.09999999999999"/>
      <point x="116.10000000000001" y="51.999999999999986"/>
      <point x="116.10000000000001" y="33.0" type="curve" smooth="yes"/>
      <point x="116.10000000000001" y="12.099999999999998"/>
      <point x="130.0" y="0.0"/>
      <point x="159.8" y="0.0" type="curve" smooth="yes"/>
      <point x="953.5999999999999" y="0.0" type="line" smooth="yes"/>
      <point x="999.4" y="0.0"/>
      <point x="1026.2" y="-38.400000000000006"/>
      <point x="1061.6999999999998" y="-38.400000000000006" type="curve" smooth="yes"/>
      <point x="1090.2" y="-38.400000000000006"/>
      <point x="1105.1" y="-23.5"/>
      <point x="1113.3" y="9.2" type="curve" smooth="yes"/>
      <point x="1187.0" y="328.5" type="line" smooth="yes"/>
      <point x="1194.1000000000001" y="357.6"/>
      <point x="1184.5" y="375.3"/>
      <point x="1161.4" y="378.49999999999994" type="curve" smooth="yes"/>
      <point x="1142.5" y="381.29999999999995"/>
      <point x="1127.0" y="372.9"/>
      <point x="1117.3999999999999" y="349.59999999999997" type="curve" smooth="yes"/>
      <point x="1022.2" y="114.70000000000002"/>
      <point x="966.8000000000001" y="75.3"/>
      <point x="845.8" y="75.3" type="curve" smooth="yes"/>
      <point x="556.8000000000001" y="75.3" type="line" smooth="yes"/>
      <point x="473.49999999999994" y="75.3"/>
      <point x="436.4" y="106.29999999999998"/>
      <point x="436.4" y="167.3" type="curve" smooth="yes"/>
      <point x="436.4" y="1324.7" type="line"/>
      <point x="824.0" y="1324.7" type="line" smooth="yes"/>
      <point x="941.2" y="1324.7"/>
      <point x="990.0999999999999" y="1304.1999999999998"/>
      <point x="1071.4" y="1112.1999999999998" type="curve" smooth="yes"/>
      <point x="1083.6" y="1084.5"/>
      <point x="1103.1000000000001" y="1075.3999999999999"/>
      <point x="1123.8999999999999" y="1079.5000000000002" type="curve" smooth="yes"/>
      <point x="1145.6000000000001" y="1084.0"/>
      <point x="1156.7" y="1100.6"/>
      <point x="1149.7" y="1126.2" type="curve" smooth="yes"/>
      <point x="1076.3999999999999" y="1401.6" type="line" smooth="yes"/>
      <point x="1067.4999999999998" y="1434.4"/>
      <point x="1053.9999999999998" y="1448.3999999999999"/>
      <point x="1026.8000000000002" y="1448.3999999999999" type="curve" smooth="yes"/>
      <point x="987.6999999999998" y="1448.3999999999999"/>
      <point x="963.1999999999999" y="1400.0"/>
      <point x="913.8" y="1400.0" type="curve" smooth="yes"/>
      <point x="159.8" y="1400.0" type="line" smooth="yes"/>
      <point x="130.0" y="1400.0"/>
      <point x="116.10000000000001" y="1387.9"/>
    </contour>
  </outline>
</glyph>
<glyph name="F" format="2">
  <advance width="1163.3"/>
  <unicode hex="0046"/>
  <outline>
    <contour>
      <point x="851.4" y="1400.0" type="curve" smooth="yes"/>
      <point x="159.8" y="1400.0" type="line" smooth="yes"/>
      <point x="130.0" y="1400.0"/>
      <point x="116.10000000000001" y="1387.9"/>
      <point x="116.10000000000001" y="1366.9999999999998" type="curve" smooth="yes"/>
      <point x="116.10000000000001" y="1348.0"/>
      <point x="128.5" y="1336.8999999999999"/>
      <point x="154.7" y="1329.8999999999999" type="curve" smooth="yes"/>
      <point x="216.1" y="1318.3999999999999" type="line" smooth="yes"/>
      <point x="255.70000000000002" y="1309.8999999999999"/>
      <point x="278.8" y="1288.9"/>
      <point x="278.8" y="1249.6" type="curve" smooth="yes"/>
      <point x="278.8" y="150.4" type="line" smooth="yes"/>
      <point x="278.8" y="111.10000000000001"/>
      <point x="255.69999999999996" y="90.1"/>
      <point x="216.1" y="81.60000000000001" type="curve" smooth="yes"/>
      <point x="154.7" y="70.1" type="line" smooth="yes"/>
      <point x="128.5" y="63.09999999999999"/>
      <point x="116.10000000000001" y="51.999999999999986"/>
      <point x="116.10000000000001" y="33.0" type="curve" smooth="yes"/>
      <point x="116.10000000000001" y="12.099999999999998"/>
      <point x="130.0" y="0.0"/>
      <point x="159.8" y="0.0" type="curve" smooth="yes"/>
      <point x="595.4" y="0.0" type="line" smooth="yes"/>
      <point x="625.2" y="0.0"/>
      <point x="639.1" y="12.099999999999998"/>
      <point x="639.1" y="33.0" type="curve" smooth="yes"/>
      <point x="639.1" y="52.699999999999996"/>
      <point x="626.4999999999999" y="64.5"/>
      <point x="599.7" y="69.39999999999999" type="curve" smooth="yes"/>
      <point x="499.49999999999994" y="81.60000000000001" type="line" smooth="yes"/>
      <point x="459.0" y="87.50000000000003"/>
      <point x="436.4" y="111.0"/>
      <point x="436.4" y="150.5" type="curve" smooth="yes"/>
      <point x="436.4" y="1324.7000000000003" type="line"/>
      <point x="765.9" y="1324.7000000000003" type="line" smooth="yes"/>
      <point x="880.3000000000001" y="1324.7000000000003"/>
      <point x="929.1822145518393" y="1301.3491357883977"/>
      <point x="1010.2" y="1109.8" type="curve" smooth="yes"/>
      <point x="1022.2999999999998" y="1082.0"/>
      <point x="1039.7000000000003" y="1072.8"/>
      <point x="1060.3" y="1076.9" type="curve" smooth="yes"/>
      <point x="1082.3" y="1080.9999999999998"/>
      <point x="1094.8" y="1097.5"/>
      <point x="1087.6000000000001" y="1123.9999999999998" type="curve" smooth="yes"/>
      <point x="1013.9" y="1401.6" type="line" smooth="yes"/>
      <point x="1005.1999999999999" y="1434.1"/>
      <point x="991.9000000000001" y="1447.8999999999999"/>
      <point x="964.7" y="1447.8999999999999" type="curve" smooth="yes"/>
      <point x="927.6" y="1447.8999999999999"/>
      <point x="905.3" y="1400.0"/>
    </contour>
    <contour>
      <point x="352.0999999999999" y="696.0" type="line"/>
      <point x="352.0999999999999" y="623.0" type="line"/>
      <point x="771.2" y="623.0" type="line" smooth="yes"/>
      <point x="847.0" y="623.0"/>
      <point x="874.0553908983328" y="600.4712161613762"/>
      <point x="914.1" y="519.9000000000001" type="curve" smooth="yes"/>
      <point x="926.1000000000001" y="498.79999999999995"/>
      <point x="942.4" y="488.50000000000006"/>
      <point x="961.4" y="493.8" type="curve" smooth="yes"/>
      <point x="981.4000000000001" y="499.69999999999993"/>
      <point x="988.9999999999999" y="515.4999999999999"/>
      <point x="982.5" y="541.6999999999999" type="curve" smooth="yes"/>
      <point x="913.1" y="812.5000000000001" type="line" smooth="yes"/>
      <point x="907.3" y="836.4999999999999"/>
      <point x="893.4" y="847.9"/>
      <point x="873.3" y="845.0999999999999" type="curve" smooth="yes"/>
      <point x="854.6999999999999" y="842.3"/>
      <point x="846.4" y="827.8999999999999"/>
      <point x="843.3" y="803.4" type="curve" smooth="yes"/>
      <point x="836.0" y="719.9000000000001"/>
      <point x="812.3" y="696.0"/>
      <point x="727.4000000000001" y="696.0" type="curve" smooth="yes"/>
    </contour>
  </outline>
</glyph>
<glyph name="G" format="2">
  <advance width="1502.0"/>
  <unicode hex="0047"/>
  <anchor x="774.0" y="1544.0" name="center"/>
  <outline>
    <contour>
      <point x="1280.0" y="24.700000000000003" type="curve" smooth="yes"/>
      <point x="1280.0" y="445.2" type="line" smooth="yes"/>
      <point x="1280.0" y="488.7"/>
      <point x="1302.9" y="507.4"/>
      <point x="1351.6000000000001" y="518.7" type="curve" smooth="yes"/>
      <point x="1401.3" y="529.7" type="line" smooth="yes"/>
      <point x="1428.5" y="537.3"/>
      <point x="1440.6000000000001" y="546.9"/>
      <point x="1440.6000000000001" y="565.0" type="curve" smooth="yes"/>
      <point x="1440.6000000000001" y="585.0"/>
      <point x="1425.6" y="596.6"/>
      <point x="1395.6" y="596.6" type="curve" smooth="yes"/>
      <point x="993.0" y="596.6" type="line" smooth="yes"/>
      <point x="962.8000000000001" y="596.6"/>
      <point x="947.7" y="585.2"/>
      <point x="947.7" y="564.8000000000001" type="curve" smooth="yes"/>
      <point x="947.7" y="545.7"/>
      <point x="963.3" y="535.3000000000001"/>
      <point x="990.9" y="528.9" type="curve" smooth="yes"/>
      <point x="1060.5" y="516.9" type="line" smooth="yes"/>
      <point x="1111.2" y="507.7"/>
      <point x="1132.4" y="487.5"/>
      <point x="1132.4" y="445.2" type="curve" smooth="yes"/>
      <point x="1132.4" y="223.40000000000003" type="line" smooth="yes"/>
      <point x="1132.4" y="117.3822222222222"/>
      <point x="1025.1" y="54.39999999999999"/>
      <point x="826.1" y="54.39999999999999" type="curve" smooth="yes"/>
      <point x="508.23151125401927" y="54.39999999999999"/>
      <point x="258.59999999999997" y="308.98645833333336"/>
      <point x="258.59999999999997" y="729.8" type="curve" smooth="yes"/>
      <point x="258.59999999999997" y="1111.360683760684"/>
      <point x="484.7983432689315" y="1355.6"/>
      <point x="775.0" y="1355.6" type="curve" smooth="yes"/>
      <point x="991.7955644267021" y="1355.6"/>
      <point x="1152.4044180209085" y="1262.794774796121"/>
      <point x="1271.8999999999999" y="1019.5999999999999" type="curve" smooth="yes"/>
      <point x="1282.3" y="998.0999999999999"/>
      <point x="1298.5" y="987.7"/>
      <point x="1318.1" y="989.6" type="curve" smooth="yes"/>
      <point x="1342.7" y="991.6"/>
      <point x="1356.1" y="1013.0000000000001"/>
      <point x="1348.0000000000002" y="1037.9" type="curve" smooth="yes"/>
      <point x="1238.8999999999999" y="1376.3" type="line" smooth="yes"/>
      <point x="1230.2" y="1404.3999999999999"/>
      <point x="1219.9" y="1413.6"/>
      <point x="1201.0" y="1413.6" type="curve" smooth="yes"/>
      <point x="1158.2" y="1413.6"/>
      <point x="1165.6" y="1339.1"/>
      <point x="1128.2999999999997" y="1339.1" type="curve" smooth="yes"/>
      <point x="1091.6067484942926" y="1339.1"/>
      <point x="999.8670960982837" y="1430.4"/>
      <point x="773.6999999999999" y="1430.4" type="curve" smooth="yes"/>
      <point x="384.44902423919467" y="1430.4"/>
      <point x="100.0" y="1120.0"/>
      <point x="100.0" y="694.8" type="curve" smooth="yes"/>
      <point x="100.0" y="270.80000000000007"/>
      <point x="360.8" y="-35.0"/>
      <point x="786.8" y="-35.0" type="curve" smooth="yes"/>
      <point x="1012.5999999999999" y="-35.0"/>
      <point x="1110.4296089385475" y="60.599999999999994"/>
      <point x="1152.8000000000002" y="60.599999999999994" type="curve" smooth="yes"/>
      <point x="1189.1" y="60.599999999999994"/>
      <point x="1184.7999999999997" y="-35.199999999999996"/>
      <point x="1238.5000000000002" y="-35.199999999999996" type="curve" smooth="yes"/>
      <point x="1266.0" y="-35.199999999999996"/>
      <point x="1280.0" y="-17.600000000000005"/>
    </contour>
  </outline>
</glyph>
<glyph name="H" format="2">
  <advance width="1613.0"/>
  <unicode hex="0048"/>
  <outline>
    <contour>
      <point x="341.90000000000003" y="702.0" type="line"/>
      <point x="341.90000000000003" y="625.3" type="line"/>
      <point x="1237.1999999999998" y="625.3" type="line"/>
      <point x="1237.1999999999998" y="702.0" type="line"/>
    </contour>
    <contour>
      <point x="434.8" y="150.39999999999998" type="curve" smooth="yes"/>
      <point x="434.8" y="1249.6000000000001" type="line" smooth="yes"/>
      <point x="434.8" y="1288.9"/>
      <point x="457.9" y="1309.8999999999999"/>
      <point x="497.5" y="1318.4000000000003" type="curve" smooth="yes"/>
      <point x="558.9" y="1329.8999999999999" type="line" smooth="yes"/>
      <point x="585.1" y="1336.9"/>
      <point x="597.5" y="1347.8999999999999"/>
      <point x="597.5" y="1366.9999999999998" type="curve" smooth="yes"/>
      <point x="597.5" y="1387.9"/>
      <point x="583.6" y="1400.0"/>
      <point x="553.8000000000001" y="1400.0" type="curve" smooth="yes"/>
      <point x="159.00000000000003" y="1400.0" type="line" smooth="yes"/>
      <point x="129.2" y="1400.0"/>
      <point x="115.30000000000001" y="1387.9"/>
      <point x="115.30000000000001" y="1366.9999999999998" type="curve" smooth="yes"/>
      <point x="115.30000000000001" y="1348.0"/>
      <point x="127.70000000000002" y="1336.9"/>
      <point x="153.9" y="1329.8999999999999" type="curve" smooth="yes"/>
      <point x="215.29999999999998" y="1318.4000000000003" type="line" smooth="yes"/>
      <point x="254.89999999999998" y="1309.8999999999999"/>
      <point x="278.0" y="1288.9"/>
      <point x="278.0" y="1249.6000000000001" type="curve" smooth="yes"/>
      <point x="278.0" y="150.39999999999998" type="line" smooth="yes"/>
      <point x="278.0" y="111.10000000000002"/>
      <point x="254.90000000000003" y="90.10000000000002"/>
      <point x="215.29999999999998" y="81.6" type="curve" smooth="yes"/>
      <point x="153.9" y="70.1" type="line" smooth="yes"/>
      <point x="127.69999999999997" y="63.099999999999994"/>
      <point x="115.30000000000001" y="51.999999999999986"/>
      <point x="115.30000000000001" y="33.0" type="curve" smooth="yes"/>
      <point x="115.30000000000001" y="12.099999999999998"/>
      <point x="129.2" y="0.0"/>
      <point x="159.00000000000003" y="0.0" type="curve" smooth="yes"/>
      <point x="553.8000000000001" y="0.0" type="line" smooth="yes"/>
      <point x="583.6" y="0.0"/>
      <point x="597.5" y="12.099999999999998"/>
      <point x="597.5" y="33.0" type="curve" smooth="yes"/>
      <point x="597.5" y="52.099999999999994"/>
      <point x="585.1" y="63.099999999999994"/>
      <point x="558.9" y="70.1" type="curve" smooth="yes"/>
      <point x="497.5" y="81.6" type="line" smooth="yes"/>
      <point x="457.90000000000003" y="90.10000000000002"/>
      <point x="434.8" y="111.10000000000002"/>
    </contour>
    <contour>
      <point x="1335.0" y="150.39999999999998" type="curve" smooth="yes"/>
      <point x="1335.0" y="1249.6000000000001" type="line" smooth="yes"/>
      <point x="1335.0" y="1288.9"/>
      <point x="1358.1000000000001" y="1309.8999999999999"/>
      <point x="1397.6999999999998" y="1318.4000000000003" type="curve" smooth="yes"/>
      <point x="1459.1000000000001" y="1329.8999999999999" type="line" smooth="yes"/>
      <point x="1485.3" y="1336.9"/>
      <point x="1497.7" y="1347.8999999999999"/>
      <point x="1497.7" y="1366.9999999999998" type="curve" smooth="yes"/>
      <point x="1497.7" y="1387.9"/>
      <point x="1483.8" y="1400.0"/>
      <point x="1454.0000000000002" y="1400.0" type="curve" smooth="yes"/>
      <point x="1059.1999999999998" y="1400.0" type="line" smooth="yes"/>
      <point x="1029.4" y="1400.0"/>
      <point x="1015.5" y="1387.9"/>
      <point x="1015.5" y="1366.9999999999998" type="curve" smooth="yes"/>
      <point x="1015.5" y="1348.0"/>
      <point x="1027.9" y="1336.9"/>
      <point x="1054.1000000000001" y="1329.8999999999999" type="curve" smooth="yes"/>
      <point x="1115.5" y="1318.4000000000003" type="line" smooth="yes"/>
      <point x="1155.1000000000001" y="1309.8999999999999"/>
      <point x="1178.2" y="1288.9"/>
      <point x="1178.2" y="1249.6000000000001" type="curve" smooth="yes"/>
      <point x="1178.2" y="150.39999999999998" type="line" smooth="yes"/>
      <point x="1178.2" y="111.10000000000002"/>
      <point x="1155.1" y="90.10000000000002"/>
      <point x="1115.5" y="81.6" type="curve" smooth="yes"/>
      <point x="1054.1000000000001" y="70.1" type="line" smooth="yes"/>
      <point x="1027.8999999999999" y="63.099999999999994"/>
      <point x="1015.5" y="51.999999999999986"/>
      <point x="1015.5" y="33.0" type="curve" smooth="yes"/>
      <point x="1015.5" y="12.099999999999998"/>
      <point x="1029.4" y="0.0"/>
      <point x="1059.1999999999998" y="0.0" type="curve" smooth="yes"/>
      <point x="1454.0000000000002" y="0.0" type="line" smooth="yes"/>
      <point x="1483.8" y="0.0"/>
      <point x="1497.7" y="12.099999999999998"/>
      <point x="1497.7" y="33.0" type="curve" smooth="yes"/>
      <point x="1497.7" y="52.099999999999994"/>
      <point x="1485.3" y="63.099999999999994"/>
      <point x="1459.1000000000001" y="70.1" type="curve" smooth="yes"/>
      <point x="1397.6999999999998" y="81.6" type="line" smooth="yes"/>
      <point x="1358.0999999999997" y="90.10000000000002"/>
      <point x="1335.0" y="111.10000000000002"/>
    </contour>
  </outline>
</glyph>
<glyph name="I" format="2">
  <advance width="705.6"/>
  <unicode hex="0049"/>
  <outline>
    <contour>
      <point x="431.59999999999997" y="150.39999999999998" type="curve" smooth="yes"/>
      <point x="431.59999999999997" y="1249.6000000000001" type="line" smooth="yes"/>
      <point x="431.59999999999997" y="1288.9"/>
      <point x="454.70000000000005" y="1309.8999999999999"/>
      <point x="494.29999999999995" y="1318.4000000000003" type="curve" smooth="yes"/>
      <point x="555.7" y="1329.8999999999999" type="line" smooth="yes"/>
      <point x="581.9" y="1336.9"/>
      <point x="594.3000000000001" y="1347.8999999999999"/>
      <point x="594.3000000000001" y="1366.9999999999998" type="curve" smooth="yes"/>
      <point x="594.3000000000001" y="1387.9"/>
      <point x="580.4" y="1400.0"/>
      <point x="550.5999999999999" y="1400.0" type="curve" smooth="yes"/>
      <point x="155.0" y="1400.0" type="line" smooth="yes"/>
      <point x="125.19999999999999" y="1400.0"/>
      <point x="111.30000000000001" y="1387.9"/>
      <point x="111.30000000000001" y="1366.9999999999998" type="curve" smooth="yes"/>
      <point x="111.30000000000001" y="1348.0"/>
      <point x="123.69999999999999" y="1336.9"/>
      <point x="149.9" y="1329.8999999999999" type="curve" smooth="yes"/>
      <point x="211.3" y="1318.4000000000003" type="line" smooth="yes"/>
      <point x="250.9" y="1309.8999999999999"/>
      <point x="274.0" y="1288.9"/>
      <point x="274.0" y="1249.6000000000001" type="curve" smooth="yes"/>
      <point x="274.0" y="150.39999999999998" type="line" smooth="yes"/>
      <point x="274.0" y="111.10000000000002"/>
      <point x="250.9" y="90.10000000000002"/>
      <point x="211.3" y="81.6" type="curve" smooth="yes"/>
      <point x="149.9" y="70.1" type="line" smooth="yes"/>
      <point x="123.70000000000002" y="63.099999999999994"/>
      <point x="111.30000000000001" y="51.999999999999986"/>
      <point x="111.30000000000001" y="33.0" type="curve" smooth="yes"/>
      <point x="111.30000000000001" y="12.099999999999998"/>
      <point x="125.19999999999999" y="0.0"/>
      <point x="155.0" y="0.0" type="curve" smooth="yes"/>
      <point x="550.5999999999999" y="0.0" type="line" smooth="yes"/>
      <point x="580.4" y="0.0"/>
      <point x="594.3000000000001" y="12.099999999999998"/>
      <point x="594.3000000000001" y="33.0" type="curve" smooth="yes"/>
      <point x="594.3000000000001" y="52.099999999999994"/>
      <point x="581.9000000000001" y="63.099999999999994"/>
      <point x="555.7" y="70.1" type="curve" smooth="yes"/>
      <point x="494.29999999999995" y="81.6" type="line" smooth="yes"/>
      <point x="454.7" y="90.10000000000002"/>
      <point x="431.59999999999997" y="111.10000000000002"/>
    </contour>
  </outline>
</glyph>
<glyph name="J" format="2">
  <advance width="858.4"/>
  <unicode hex="004A"/>
  <anchor x="507.2" y="1463.8000000000002" name="center"/>
  <outline>
    <contour>
      <point x="690.3000000000001" y="208.2" type="curve" smooth="yes"/>
      <point x="690.3000000000001" y="347.7"/>
      <point x="588.4000000000001" y="396.3"/>
      <point x="588.4000000000001" y="582.0" type="curve" smooth="yes"/>
      <point x="588.4000000000001" y="1249.6000000000001" type="line" smooth="yes"/>
      <point x="588.4000000000001" y="1288.8999999999999"/>
      <point x="611.5" y="1309.9"/>
      <point x="651.0999999999999" y="1318.4" type="curve" smooth="yes"/>
      <point x="712.5" y="1329.8999999999999" type="line" smooth="yes"/>
      <point x="738.6999999999999" y="1336.9"/>
      <point x="751.1" y="1347.9"/>
      <point x="751.1" y="1367.0000000000002" type="curve" smooth="yes"/>
      <point x="751.1" y="1387.9"/>
      <point x="737.1999999999999" y="1400.0"/>
      <point x="707.4000000000001" y="1400.0" type="curve" smooth="yes"/>
      <point x="304.80000000000007" y="1400.0" type="line" smooth="yes"/>
      <point x="275.0" y="1400.0"/>
      <point x="261.1" y="1387.8999999999999"/>
      <point x="261.1" y="1367.0000000000002" type="curve" smooth="yes"/>
      <point x="261.1" y="1347.0999999999997"/>
      <point x="273.7" y="1335.7000000000003"/>
      <point x="301.0" y="1329.8" type="curve" smooth="yes"/>
      <point x="366.1" y="1318.4" type="line" smooth="yes"/>
      <point x="407.5" y="1310.3999999999999"/>
      <point x="430.8" y="1288.9999999999998"/>
      <point x="430.8" y="1249.6" type="curve" smooth="yes"/>
      <point x="430.8" y="567.6" type="line" smooth="yes"/>
      <point x="430.8" y="362.6261663286004"/>
      <point x="554.3999999999999" y="314.53691683569986"/>
      <point x="554.3999999999999" y="184.1" type="curve" smooth="yes"/>
      <point x="554.3999999999999" y="88.81980198019801"/>
      <point x="482.30204020402044" y="40.69999999999999"/>
      <point x="388.2" y="40.69999999999999" type="curve" smooth="yes"/>
      <point x="296.20000000000005" y="40.69999999999999"/>
      <point x="264.59999999999997" y="84.35351913786695"/>
      <point x="264.59999999999997" y="154.10000000000002" type="curve" smooth="yes"/>
      <point x="264.59999999999997" y="207.7" type="line" smooth="yes"/>
      <point x="264.59999999999997" y="261.3384615384615"/>
      <point x="235.56964901602757" y="294.5"/>
      <point x="191.7" y="294.5" type="curve" smooth="yes"/>
      <point x="133.92577831252822" y="294.5"/>
      <point x="99.8" y="251.0"/>
      <point x="99.8" y="185.89999999999998" type="curve" smooth="yes"/>
      <point x="99.8" y="61.13762376237622"/>
      <point x="195.22652910832716" y="-28.0"/>
      <point x="371.09999999999997" y="-28.0" type="curve" smooth="yes"/>
      <point x="558.3117647058823" y="-28.0"/>
      <point x="690.3000000000001" y="65.73219512195122"/>
    </contour>
  </outline>
</glyph>
<glyph name="K" format="2">
  <advance width="1453.8"/>
  <unicode hex="004B"/>
  <anchor x="773.2" y="1460.0" name="center"/>
  <outline>
    <contour>
      <point x="353.9" y="528.3000000000001" type="line"/>
      <point x="384.7" y="451.8999999999999" type="line"/>
      <point x="1167.3" y="1226.1999999999998" type="line" smooth="yes"/>
      <point x="1243.4" y="1299.9"/>
      <point x="1263.9" y="1316.6"/>
      <point x="1315.7999999999997" y="1327.6" type="curve" smooth="yes"/>
      <point x="1361.9" y="1339.0"/>
      <point x="1374.6000000000001" y="1348.1000000000001"/>
      <point x="1374.6000000000001" y="1367.0" type="curve" smooth="yes"/>
      <point x="1374.6000000000001" y="1387.8999999999999"/>
      <point x="1360.3000000000002" y="1400.0"/>
      <point x="1329.3" y="1400.0" type="curve" smooth="yes"/>
      <point x="992.0000000000001" y="1400.0" type="line" smooth="yes"/>
      <point x="962.2000000000002" y="1400.0"/>
      <point x="947.1" y="1388.3"/>
      <point x="947.1" y="1367.0" type="curve" smooth="yes"/>
      <point x="947.1" y="1348.3999999999999"/>
      <point x="959.1999999999999" y="1337.1000000000001"/>
      <point x="986.4" y="1330.6999999999998" type="curve" smooth="yes"/>
      <point x="1058.5" y="1318.5000000000002" type="line" smooth="yes"/>
      <point x="1104.8000000000002" y="1308.1999999999998"/>
      <point x="1109.1000000000001" y="1282.7"/>
      <point x="1076.4" y="1250.6999999999998" type="curve" smooth="yes"/>
    </contour>
    <contour>
      <point x="656.7" y="782.5999999999999" type="line"/>
      <point x="1086.6" y="140.00000000000003" type="line" smooth="yes"/>
      <point x="1106.9337118372964" y="108.72200031136566"/>
      <point x="1107.4311740579212" y="86.35411603861407"/>
      <point x="1074.4" y="80.1" type="curve" smooth="yes"/>
      <point x="1002.0" y="69.09999999999998" type="line" smooth="yes"/>
      <point x="977.0" y="63.60000000000001"/>
      <point x="963.8" y="52.19999999999999"/>
      <point x="963.8" y="33.099999999999994" type="curve" smooth="yes"/>
      <point x="963.8" y="12.100000000000001"/>
      <point x="978.5" y="0.0"/>
      <point x="1009.0999999999999" y="0.0" type="curve" smooth="yes"/>
      <point x="1404.7" y="0.0" type="line" smooth="yes"/>
      <point x="1434.9" y="0.0"/>
      <point x="1450.4" y="12.100000000000001"/>
      <point x="1450.4" y="32.599999999999994" type="curve" smooth="yes"/>
      <point x="1450.4" y="53.219999999999985"/>
      <point x="1438.354842732601" y="63.44709436043966"/>
      <point x="1382.3999999999999" y="76.6" type="curve" smooth="yes"/>
      <point x="1337.816665918763" y="85.13106104800357"/>
      <point x="1298.9257762667958" y="102.16896921860831"/>
      <point x="1272.2" y="141.7" type="curve" smooth="yes"/>
      <point x="777.6999999999999" y="880.0000000000001" type="line"/>
    </contour>
    <contour>
      <point x="436.4" y="150.4" type="curve" smooth="yes"/>
      <point x="436.4" y="1249.6" type="line" smooth="yes"/>
      <point x="436.4" y="1288.9"/>
      <point x="459.5" y="1309.8999999999999"/>
      <point x="499.09999999999997" y="1318.3999999999999" type="curve" smooth="yes"/>
      <point x="560.4999999999999" y="1329.8999999999999" type="line" smooth="yes"/>
      <point x="586.7" y="1336.9"/>
      <point x="599.1" y="1347.8999999999999"/>
      <point x="599.1" y="1366.9999999999998" type="curve" smooth="yes"/>
      <point x="599.1" y="1387.1000000000001"/>
      <point x="585.2" y="1400.0"/>
      <point x="555.4000000000001" y="1400.0" type="curve" smooth="yes"/>
      <point x="159.8" y="1400.0" type="line" smooth="yes"/>
      <point x="130.0" y="1400.0"/>
      <point x="116.10000000000001" y="1387.9"/>
      <point x="116.10000000000001" y="1366.9999999999998" type="curve" smooth="yes"/>
      <point x="116.10000000000001" y="1348.0"/>
      <point x="128.5" y="1336.8999999999999"/>
      <point x="154.7" y="1329.8999999999999" type="curve" smooth="yes"/>
      <point x="216.1" y="1318.3999999999999" type="line" smooth="yes"/>
      <point x="255.69999999999996" y="1309.9"/>
      <point x="278.8" y="1288.9"/>
      <point x="278.8" y="1249.6" type="curve" smooth="yes"/>
      <point x="278.8" y="150.4" type="line" smooth="yes"/>
      <point x="278.8" y="111.09999999999997"/>
      <point x="255.7" y="90.1"/>
      <point x="216.1" y="81.60000000000001" type="curve" smooth="yes"/>
      <point x="154.7" y="70.1" type="line" smooth="yes"/>
      <point x="128.5" y="63.09999999999999"/>
      <point x="116.10000000000001" y="51.999999999999986"/>
      <point x="116.10000000000001" y="33.0" type="curve" smooth="yes"/>
      <point x="116.10000000000001" y="12.099999999999998"/>
      <point x="130.0" y="0.0"/>
      <point x="159.8" y="0.0" type="curve" smooth="yes"/>
      <point x="550.4" y="0.0" type="line" smooth="yes"/>
      <point x="580.0999999999999" y="0.0"/>
      <point x="594.0999999999999" y="12.899999999999999"/>
      <point x="594.0999999999999" y="33.0" type="curve" smooth="yes"/>
      <point x="594.0999999999999" y="51.69999999999999"/>
      <point x="582.2" y="62.199999999999996"/>
      <point x="555.6" y="70.0" type="curve" smooth="yes"/>
      <point x="497.2" y="80.49999999999999" type="line" smooth="yes"/>
      <point x="457.7" y="89.49999999999997"/>
      <point x="436.4" y="110.39999999999999"/>
    </contour>
  </outline>
</glyph>
<glyph name="L" format="2">
  <advance width="1203.0"/>
  <unicode hex="004C"/>
  <anchor x="965.0" y="1482.4" name="right"/>
  <anchor x="472.40000000000003" y="1477.6999999999998" name="center"/>
  <outline>
    <contour>
      <point x="559.6999999999999" y="1329.8999999999999" type="line" smooth="yes"/>
      <point x="585.9000000000001" y="1336.9"/>
      <point x="598.3000000000001" y="1348.0"/>
      <point x="598.3000000000001" y="1366.9999999999998" type="curve" smooth="yes"/>
      <point x="598.3000000000001" y="1387.9"/>
      <point x="584.4000000000001" y="1400.0"/>
      <point x="554.6" y="1400.0" type="curve" smooth="yes"/>
      <point x="159.0" y="1400.0" type="line" smooth="yes"/>
      <point x="129.2" y="1400.0"/>
      <point x="115.30000000000001" y="1387.9"/>
      <point x="115.30000000000001" y="1366.9999999999998" type="curve" smooth="yes"/>
      <point x="115.30000000000001" y="1348.0"/>
      <point x="127.69999999999999" y="1336.8999999999999"/>
      <point x="153.9" y="1329.8999999999999" type="curve" smooth="yes"/>
      <point x="215.29999999999998" y="1318.3999999999999" type="line" smooth="yes"/>
      <point x="254.9" y="1309.9"/>
      <point x="278.0" y="1288.9"/>
      <point x="278.0" y="1249.6" type="curve" smooth="yes"/>
      <point x="278.0" y="150.4" type="line" smooth="yes"/>
      <point x="278.0" y="111.1"/>
      <point x="254.90000000000003" y="90.1"/>
      <point x="215.29999999999998" y="81.60000000000001" type="curve" smooth="yes"/>
      <point x="153.9" y="70.1" type="line" smooth="yes"/>
      <point x="127.69999999999999" y="63.09999999999999"/>
      <point x="115.30000000000001" y="51.999999999999986"/>
      <point x="115.30000000000001" y="33.0" type="curve" smooth="yes"/>
      <point x="115.30000000000001" y="12.099999999999998"/>
      <point x="129.2" y="0.0"/>
      <point x="159.0" y="0.0" type="curve" smooth="yes"/>
      <point x="900.0" y="0.0" type="line" smooth="yes"/>
      <point x="949.0" y="0.0"/>
      <point x="972.3999999999999" y="-39.2"/>
      <point x="1009.2999999999998" y="-39.2" type="curve" smooth="yes"/>
      <point x="1036.5" y="-39.2"/>
      <point x="1051.5" y="-24.500000000000004"/>
      <point x="1059.7" y="8.399999999999988" type="curve" smooth="yes"/>
      <point x="1137.7999999999997" y="349.3" type="line" smooth="yes"/>
      <point x="1144.9" y="377.79999999999995"/>
      <point x="1135.4999999999998" y="395.8"/>
      <point x="1113.0" y="399.2" type="curve" smooth="yes"/>
      <point x="1092.2999999999997" y="402.6"/>
      <point x="1078.1" y="394.2"/>
      <point x="1067.1" y="369.20000000000005" type="curve" smooth="yes"/>
      <point x="1016.3999999999999" y="244.0" type="line" smooth="yes"/>
      <point x="963.5999999999999" y="113.99999999999999"/>
      <point x="904.1" y="75.29999999999998"/>
      <point x="790.1999999999999" y="75.29999999999998" type="curve" smooth="yes"/>
      <point x="544.9" y="75.29999999999998" type="line" smooth="yes"/>
      <point x="468.8" y="75.29999999999998"/>
      <point x="435.59999999999997" y="101.19999999999999"/>
      <point x="435.59999999999997" y="155.6" type="curve" smooth="yes"/>
      <point x="435.59999999999997" y="1249.6" type="line" smooth="yes"/>
      <point x="435.59999999999997" y="1288.9"/>
      <point x="458.70000000000005" y="1309.8999999999999"/>
      <point x="498.29999999999995" y="1318.3999999999999" type="curve" smooth="yes"/>
    </contour>
  </outline>
</glyph>
<glyph name="M" format="2">
  <advance width="1755.3"/>
  <unicode hex="004D"/>
  <anchor x="869.0" y="1484.0" name="center"/>
  <outline>
    <contour>
      <point x="911.5" y="264.40000000000003" type="line"/>
      <point x="462.5" y="1347.2" type="line" smooth="yes"/>
      <point x="447.19999999999993" y="1386.0999999999997"/>
      <point x="426.70000000000005" y="1400.0"/>
      <point x="385.7" y="1400.0" type="curve" smooth="yes"/>
      <point x="207.8" y="1400.0" type="line" smooth="yes"/>
      <point x="177.40000000000003" y="1400.0"/>
      <point x="161.7" y="1388.0"/>
      <point x="161.7" y="1366.1999999999998" type="curve" smooth="yes"/>
      <point x="161.7" y="1346.1"/>
      <point x="175.2" y="1335.6999999999998"/>
      <point x="203.09999999999997" y="1328.6999999999998" type="curve" smooth="yes"/>
      <point x="256.09999999999997" y="1317.6" type="line" smooth="yes"/>
      <point x="308.1" y="1306.6000000000001"/>
      <point x="331.6" y="1279.1"/>
      <point x="327.79999999999995" y="1232.8999999999999" type="curve" smooth="yes"/>
      <point x="231.09999999999997" y="174.3" type="line" smooth="yes"/>
      <point x="226.2" y="119.60000000000001"/>
      <point x="205.7" y="95.5"/>
      <point x="155.5" y="83.9" type="curve" smooth="yes"/>
      <point x="103.60000000000002" y="70.5" type="line" smooth="yes"/>
      <point x="77.89999999999999" y="63.1"/>
      <point x="62.2" y="53.60000000000001"/>
      <point x="62.2" y="33.0" type="curve" smooth="yes"/>
      <point x="62.2" y="12.100000000000001"/>
      <point x="77.20000000000002" y="0.0"/>
      <point x="107.4" y="0.0" type="curve" smooth="yes"/>
      <point x="434.7" y="0.0" type="line" smooth="yes"/>
      <point x="464.8" y="0.0"/>
      <point x="480.29999999999995" y="12.499999999999996"/>
      <point x="480.29999999999995" y="33.7" type="curve" smooth="yes"/>
      <point x="480.29999999999995" y="51.599999999999994"/>
      <point x="466.2" y="60.50000000000001"/>
      <point x="443.8" y="67.5" type="curve" smooth="yes"/>
      <point x="385.79999999999995" y="82.5" type="line" smooth="yes"/>
      <point x="330.69999999999993" y="97.19999999999999"/>
      <point x="307.29999999999995" y="118.5"/>
      <point x="312.30000000000007" y="174.2" type="curve" smooth="yes"/>
      <point x="409.29999999999995" y="1250.3999999999999" type="line"/>
      <point x="348.2" y="1218.8" type="line"/>
      <point x="799.7" y="132.39999999999998" type="line" smooth="yes"/>
      <point x="815.0999999999999" y="94.2"/>
      <point x="827.5000000000001" y="85.8"/>
      <point x="849.3000000000001" y="85.8" type="curve" smooth="yes"/>
      <point x="868.1999999999999" y="85.8"/>
      <point x="880.6" y="94.7"/>
      <point x="894.9" y="130.7" type="curve" smooth="yes"/>
      <point x="1343.2999999999997" y="1223.7" type="line"/>
      <point x="1285.7" y="1222.0" type="line"/>
      <point x="1373.8999999999996" y="159.5" type="line" smooth="yes"/>
      <point x="1377.4" y="114.30000000000001"/>
      <point x="1354.7999999999997" y="93.99999999999999"/>
      <point x="1302.2" y="82.0" type="curve" smooth="yes"/>
      <point x="1247.9" y="69.69999999999999" type="line" smooth="yes"/>
      <point x="1220.1999999999998" y="61.79999999999999"/>
      <point x="1208.1" y="50.89999999999999"/>
      <point x="1208.1" y="33.0" type="curve" smooth="yes"/>
      <point x="1208.1" y="12.100000000000001"/>
      <point x="1223.2000000000003" y="0.0"/>
      <point x="1253.1000000000001" y="0.0" type="curve" smooth="yes"/>
      <point x="1649.6000000000001" y="0.0" type="line" smooth="yes"/>
      <point x="1679.2" y="0.0"/>
      <point x="1694.5" y="12.999999999999998"/>
      <point x="1694.5" y="33.999999999999986" type="curve" smooth="yes"/>
      <point x="1694.5" y="52.300000000000004"/>
      <point x="1682.1" y="62.69999999999999"/>
      <point x="1655.9" y="69.69999999999999" type="curve" smooth="yes"/>
      <point x="1601.7" y="82.0" type="line" smooth="yes"/>
      <point x="1554.0" y="92.89999999999998"/>
      <point x="1534.7" y="110.1"/>
      <point x="1530.8000000000002" y="160.59999999999997" type="curve" smooth="yes"/>
      <point x="1447.1000000000001" y="1204.9999999999998" type="line" smooth="yes"/>
      <point x="1441.2" y="1282.1"/>
      <point x="1458.1999999999998" y="1304.6999999999998"/>
      <point x="1513.7999999999997" y="1317.6" type="curve" smooth="yes"/>
      <point x="1569.2" y="1330.3" type="line" smooth="yes"/>
      <point x="1596.3000000000002" y="1337.6000000000001"/>
      <point x="1608.8" y="1348.5"/>
      <point x="1608.8" y="1366.9999999999998" type="curve" smooth="yes"/>
      <point x="1608.8" y="1387.8999999999999"/>
      <point x="1593.7" y="1400.0"/>
      <point x="1563.5000000000002" y="1400.0" type="curve" smooth="yes"/>
      <point x="1383.0" y="1400.0" type="line" smooth="yes"/>
      <point x="1341.6999999999998" y="1400.0"/>
      <point x="1321.3" y="1384.7"/>
      <point x="1305.3" y="1343.7" type="curve" smooth="yes"/>
      <point x="847.9000000000001" y="230.49999999999997" type="line"/>
    </contour>
  </outline>
</glyph>
<glyph name="N" format="2">
  <advance width="1572.0000000000002"/>
  <unicode hex="004E"/>
  <anchor x="775.3" y="1565.2" name="center"/>
  <outline>
    <contour>
      <point x="543.0000000000001" y="33.0" type="curve" smooth="yes"/>
      <point x="543.0000000000001" y="51.400000000000006"/>
      <point x="531.6999999999999" y="61.199999999999996"/>
      <point x="503.9999999999999" y="70.1" type="curve" smooth="yes"/>
      <point x="445.70000000000005" y="83.9" type="line" smooth="yes"/>
      <point x="388.29999999999995" y="98.9"/>
      <point x="368.7" y="117.99999999999997"/>
      <point x="368.7" y="167.70000000000002" type="curve" smooth="yes"/>
      <point x="368.7" y="1185.3" type="line"/>
      <point x="318.49999999999994" y="1142.9" type="line"/>
      <point x="1140.0000000000002" y="112.60000000000001" type="line" smooth="yes"/>
      <point x="1174.1000000000001" y="69.1"/>
      <point x="1180.1" y="56.1"/>
      <point x="1180.1" y="29.199999999999996" type="curve" smooth="yes"/>
      <point x="1180.1" y="10.1"/>
      <point x="1191.3" y="0.0"/>
      <point x="1213.8000000000002" y="0.0" type="curve" smooth="yes"/>
      <point x="1354.5" y="0.0" type="line" smooth="yes"/>
      <point x="1379.8999999999999" y="0.0"/>
      <point x="1391.2" y="11.899999999999999"/>
      <point x="1391.2" y="27.3" type="curve" smooth="yes"/>
      <point x="1391.2" y="39.099999999999994"/>
      <point x="1385.2" y="50.2"/>
      <point x="1370.1999999999998" y="70.70000000000002" type="curve" smooth="yes"/>
      <point x="1317.0" y="137.8" type="line" smooth="yes"/>
      <point x="1301.5" y="158.89999999999995"/>
      <point x="1292.5000000000002" y="178.09999999999997"/>
      <point x="1292.5000000000002" y="210.39999999999998" type="curve" smooth="yes"/>
      <point x="1292.5000000000002" y="1232.1999999999998" type="line" smooth="yes"/>
      <point x="1292.5000000000002" y="1282.5"/>
      <point x="1312.3" y="1301.6000000000001"/>
      <point x="1368.3000000000002" y="1316.1" type="curve" smooth="yes"/>
      <point x="1426.6999999999998" y="1329.9" type="line" smooth="yes"/>
      <point x="1454.4" y="1338.8"/>
      <point x="1465.7" y="1348.6000000000001"/>
      <point x="1465.7" y="1366.9999999999998" type="curve" smooth="yes"/>
      <point x="1465.7" y="1387.8999999999999"/>
      <point x="1450.6" y="1400.0"/>
      <point x="1420.4" y="1400.0" type="curve" smooth="yes"/>
      <point x="1080.7" y="1400.0" type="line" smooth="yes"/>
      <point x="1050.6000000000001" y="1400.0"/>
      <point x="1035.5" y="1387.8999999999999"/>
      <point x="1035.5" y="1366.9999999999998" type="curve" smooth="yes"/>
      <point x="1035.5" y="1348.7"/>
      <point x="1046.8" y="1338.9"/>
      <point x="1074.5" y="1329.9" type="curve" smooth="yes"/>
      <point x="1132.8" y="1316.1" type="line" smooth="yes"/>
      <point x="1189.9" y="1301.3999999999999"/>
      <point x="1209.8000000000002" y="1282.0000000000002"/>
      <point x="1209.8000000000002" y="1232.1999999999998" type="curve" smooth="yes"/>
      <point x="1209.8000000000002" y="167.39999999999998" type="line"/>
      <point x="1247.8" y="228.59999999999997" type="line"/>
      <point x="339.40000000000003" y="1364.3999999999999" type="line" smooth="yes"/>
      <point x="316.8" y="1393.1999999999998"/>
      <point x="298.59999999999997" y="1400.0"/>
      <point x="269.7" y="1400.0" type="curve" smooth="yes"/>
      <point x="157.0" y="1400.0" type="line" smooth="yes"/>
      <point x="135.60000000000002" y="1400.0"/>
      <point x="124.4" y="1391.6000000000001"/>
      <point x="124.4" y="1377.6000000000001" type="curve" smooth="yes"/>
      <point x="124.4" y="1366.3"/>
      <point x="131.00000000000003" y="1357.3"/>
      <point x="147.7" y="1338.6000000000001" type="curve" smooth="yes"/>
      <point x="236.4" y="1236.6999999999998" type="line" smooth="yes"/>
      <point x="272.99999999999994" y="1194.3"/>
      <point x="286.0" y="1171.1000000000001"/>
      <point x="286.0" y="1128.8000000000002" type="curve" smooth="yes"/>
      <point x="286.0" y="167.8" type="line" smooth="yes"/>
      <point x="286.0" y="117.69999999999997"/>
      <point x="265.9" y="98.30000000000001"/>
      <point x="210.2" y="83.9" type="curve" smooth="yes"/>
      <point x="151.79999999999998" y="70.1" type="line" smooth="yes"/>
      <point x="124.1" y="61.29999999999999"/>
      <point x="112.80000000000001" y="51.5"/>
      <point x="112.80000000000001" y="33.0" type="curve" smooth="yes"/>
      <point x="112.80000000000001" y="12.2"/>
      <point x="127.9" y="0.09999999999999998"/>
      <point x="158.1" y="0.0" type="curve" smooth="yes"/>
      <point x="497.80000000000007" y="0.0" type="line" smooth="yes"/>
      <point x="527.9" y="0.09999999999999998"/>
      <point x="543.0000000000001" y="12.2"/>
    </contour>
  </outline>
</glyph>
<glyph name="O" format="2">
  <advance width="1584.9999999999998"/>
  <unicode hex="004F"/>
  <outline>
    <contour>
      <point x="788.0" y="1430.8" type="curve" smooth="yes"/>
      <point x="379.5768381951273" y="1430.8"/>
      <point x="100.10000000000001" y="1130.2731034482756"/>
      <point x="100.10000000000001" y="708.3" type="curve" smooth="yes"/>
      <point x="100.10000000000001" y="277.2"/>
      <point x="385.152871459695" y="-35.2"/>
      <point x="789.4999999999999" y="-35.2" type="curve" smooth="yes"/>
      <point x="1201.3734936532821" y="-35.2"/>
      <point x="1484.1" y="263.66737967914446"/>
      <point x="1484.1" y="690.7" type="curve" smooth="yes"/>
      <point x="1484.1" y="1118.7876901798065"/>
      <point x="1198.7737063479744" y="1430.8"/>
    </contour>
    <contour>
      <point x="1323.1" y="611.3" type="curve" smooth="yes"/>
      <point x="1323.1" y="266.8720257234727"/>
      <point x="1122.7408450704224" y="45.999999999999986"/>
      <point x="833.5" y="45.999999999999986" type="curve" smooth="yes"/>
      <point x="505.84871794871793" y="45.999999999999986"/>
      <point x="263.59999999999997" y="356.6515254237288"/>
      <point x="263.59999999999997" y="785.1" type="curve" smooth="yes"/>
      <point x="263.59999999999997" y="1124.2279742765274"/>
      <point x="460.5" y="1345.9000000000003"/>
      <point x="748.6999999999999" y="1345.9000000000003" type="curve" smooth="yes"/>
      <point x="1079.4" y="1345.9000000000003"/>
      <point x="1323.1" y="1034.9525655644243"/>
    </contour>
  </outline>
</glyph>
<glyph name="P" format="2">
  <advance width="1265.2"/>
  <unicode hex="0050"/>
  <outline>
    <contour>
      <point x="1203.1999999999998" y="908.1" type="curve" smooth="yes"/>
      <point x="1203.1999999999998" y="1188.1168224299065"/>
      <point x="968.5999999999999" y="1400.0"/>
      <point x="572.0" y="1400.0" type="curve" smooth="yes"/>
      <point x="159.8" y="1400.0" type="line" smooth="yes"/>
      <point x="130.0" y="1400.0"/>
      <point x="116.10000000000001" y="1387.9"/>
      <point x="116.10000000000001" y="1367.0" type="curve" smooth="yes"/>
      <point x="116.10000000000001" y="1347.9999999999998"/>
      <point x="128.5" y="1336.9"/>
      <point x="154.7" y="1329.8999999999999" type="curve" smooth="yes"/>
      <point x="216.1" y="1318.3999999999999" type="line" smooth="yes"/>
      <point x="255.69999999999996" y="1309.9"/>
      <point x="278.8" y="1288.8999999999999"/>
      <point x="278.8" y="1249.6000000000001" type="curve" smooth="yes"/>
      <point x="278.8" y="150.40000000000003" type="line" smooth="yes"/>
      <point x="278.8" y="111.1"/>
      <point x="255.69999999999996" y="90.1"/>
      <point x="216.1" y="81.60000000000001" type="curve" smooth="yes"/>
      <point x="154.70000000000002" y="70.1" type="line" smooth="yes"/>
      <point x="128.5" y="63.09999999999998"/>
      <point x="116.10000000000001" y="51.999999999999986"/>
      <point x="116.10000000000001" y="33.0" type="curve" smooth="yes"/>
      <point x="116.10000000000001" y="12.099999999999994"/>
      <point x="130.0" y="0.0"/>
      <point x="159.8" y="0.0" type="curve" smooth="yes"/>
      <point x="591.4" y="0.0" type="line" smooth="yes"/>
      <point x="621.2" y="0.0"/>
      <point x="635.1" y="12.099999999999994"/>
      <point x="635.1" y="33.0" type="curve" smooth="yes"/>
      <point x="635.1" y="52.699999999999996"/>
      <point x="622.4999999999999" y="64.5"/>
      <point x="595.6999999999999" y="69.4" type="curve" smooth="yes"/>
      <point x="499.5" y="81.6" type="line" smooth="yes"/>
      <point x="459.0" y="87.49999999999999"/>
      <point x="436.4" y="110.99999999999999"/>
      <point x="436.4" y="150.4" type="curve" smooth="yes"/>
      <point x="436.4" y="1325.3" type="line"/>
      <point x="568.6" y="1325.3" type="line" smooth="yes"/>
      <point x="865.4" y="1325.3"/>
      <point x="1041.6" y="1154.9805774278218"/>
      <point x="1041.6" y="911.1000000000001" type="curve" smooth="yes"/>
      <point x="1041.6" y="689.0203282828285"/>
      <point x="891.6999999999999" y="559.7"/>
      <point x="669.6999999999999" y="559.7" type="curve" smooth="yes"/>
      <point x="574.7" y="559.7"/>
      <point x="451.0" y="580.7"/>
      <point x="370.7" y="631.0" type="curve"/>
      <point x="356.79999999999995" y="562.4000000000001" type="line"/>
      <point x="444.2" y="511.0"/>
      <point x="574.4000000000001" y="484.8"/>
      <point x="700.6" y="484.8" type="curve" smooth="yes"/>
      <point x="997.8000000000001" y="484.8"/>
      <point x="1203.1999999999998" y="649.5330269544563"/>
    </contour>
  </outline>
</glyph>
<glyph name="Q" format="2">
  <advance width="1585.0000000000002"/>
  <unicode hex="0051"/>
  <outline>
    <contour>
      <point x="787.8000000000001" y="1430.8" type="curve" smooth="yes"/>
      <point x="379.50000000000006" y="1430.8"/>
      <point x="99.9" y="1130.2999999999997"/>
      <point x="99.9" y="708.3" type="curve" smooth="yes"/>
      <point x="99.9" y="277.20000000000005"/>
      <point x="385.0" y="-35.2"/>
      <point x="789.3" y="-35.2" type="curve" smooth="yes"/>
      <point x="1201.1999999999998" y="-35.2"/>
      <point x="1483.9" y="263.70000000000005"/>
      <point x="1483.9" y="690.7" type="curve" smooth="yes"/>
      <point x="1483.9" y="1118.8000000000002"/>
      <point x="1198.6999999999998" y="1430.8"/>
    </contour>
    <contour>
      <point x="1323.1" y="611.3" type="curve" smooth="yes"/>
      <point x="1323.1" y="266.9"/>
      <point x="1122.6" y="45.99999999999998"/>
      <point x="833.5" y="45.99999999999998" type="curve" smooth="yes"/>
      <point x="505.7" y="45.99999999999998"/>
      <point x="263.59999999999997" y="356.70000000000005"/>
      <point x="263.59999999999997" y="785.0999999999999" type="curve" smooth="yes"/>
      <point x="263.59999999999997" y="1124.2"/>
      <point x="460.5" y="1345.9"/>
      <point x="748.6999999999999" y="1345.9" type="curve" smooth="yes"/>
      <point x="1079.3999999999999" y="1345.9"/>
      <point x="1323.1" y="1035.0"/>
    </contour>
    <contour>
      <point x="832.1" y="353.9" type="curve" smooth="yes"/>
      <point x="936.8785789267877" y="-78.09096977706703"/>
      <point x="1143.835258399844" y="-254.5"/>
      <point x="1386.5" y="-254.5" type="curve" smooth="yes"/>
      <point x="1430.9812154696133" y="-254.5"/>
      <point x="1445.5763693067804" y="-241.56099813013074"/>
      <point x="1464.8999999999999" y="-210.00000000000003" type="curve" smooth="yes"/>
      <point x="1500.1" y="-152.7" type="line" smooth="yes"/>
      <point x="1510.6000000000001" y="-135.79999999999998"/>
      <point x="1511.6000000000001" y="-124.20000000000002"/>
      <point x="1511.6" y="-114.10000000000001" type="curve" smooth="yes"/>
      <point x="1511.6" y="-99.5"/>
      <point x="1500.1" y="-90.5"/>
      <point x="1486.0" y="-94.5" type="curve" smooth="yes"/>
      <point x="1457.1000000000001" y="-104.89999999999999"/>
      <point x="1437.4" y="-122.30000000000001"/>
      <point x="1369.6" y="-122.30000000000001" type="curve" smooth="yes"/>
      <point x="1160.2702970297028" y="-122.30000000000001"/>
      <point x="1009.1056940569058" y="12.892239712691165"/>
      <point x="905.1" y="365.6" type="curve" smooth="yes"/>
      <point x="895.7938089148606" y="399.3198114724461"/>
      <point x="881.4" y="413.7"/>
      <point x="859.9000000000001" y="412.00000000000006" type="curve" smooth="yes"/>
      <point x="835.801976284585" y="410.3"/>
      <point x="824.4132585932842" y="386.7449064123935"/>
    </contour>
  </outline>
</glyph>
<glyph name="R" format="2">
  <advance width="1354.6000000000001"/>
  <unicode hex="0052"/>
  <anchor x="674.2" y="1476.0" name="center"/>
  <outline>
    <contour>
      <point x="1209.6" y="930.1000000000001" type="curve" smooth="yes"/>
      <point x="1209.6" y="1197.1"/>
      <point x="978.8" y="1400.0"/>
      <point x="576.3" y="1400.0" type="curve" smooth="yes"/>
      <point x="159.0" y="1400.0" type="line" smooth="yes"/>
      <point x="129.2" y="1400.0"/>
      <point x="115.30000000000001" y="1387.9"/>
      <point x="115.30000000000001" y="1366.9999999999998" type="curve" smooth="yes"/>
      <point x="115.30000000000001" y="1348.0"/>
      <point x="127.69999999999999" y="1336.9"/>
      <point x="153.9" y="1329.8999999999999" type="curve" smooth="yes"/>
      <point x="215.29999999999998" y="1318.3999999999999" type="line" smooth="yes"/>
      <point x="254.90000000000003" y="1309.9"/>
      <point x="278.0" y="1288.9"/>
      <point x="278.0" y="1249.6" type="curve" smooth="yes"/>
      <point x="278.0" y="150.4" type="line" smooth="yes"/>
      <point x="278.0" y="111.1"/>
      <point x="254.90000000000003" y="90.1"/>
      <point x="215.29999999999998" y="81.60000000000001" type="curve" smooth="yes"/>
      <point x="153.9" y="70.1" type="line" smooth="yes"/>
      <point x="127.69999999999999" y="63.099999999999994"/>
      <point x="115.30000000000001" y="51.999999999999986"/>
      <point x="115.30000000000001" y="33.0" type="curve" smooth="yes"/>
      <point x="115.30000000000001" y="12.099999999999998"/>
      <point x="129.2" y="0.0"/>
      <point x="159.0" y="0.0" type="curve" smooth="yes"/>
      <point x="579.5999999999999" y="0.0" type="line" smooth="yes"/>
      <point x="609.1" y="0.0"/>
      <point x="623.3000000000001" y="11.599999999999998"/>
      <point x="623.3000000000001" y="33.0" type="curve" smooth="yes"/>
      <point x="623.3000000000001" y="51.29999999999999"/>
      <point x="612.3000000000001" y="62.69999999999999"/>
      <point x="586.5" y="69.5" type="curve" smooth="yes"/>
      <point x="497.29999999999995" y="80.79999999999998" type="line" smooth="yes"/>
      <point x="458.1224136593746" y="88.13318975546906"/>
      <point x="435.59999999999997" y="110.61627906976747"/>
      <point x="435.59999999999997" y="150.4" type="curve" smooth="yes"/>
      <point x="435.59999999999997" y="1327.9999999999998" type="line"/>
      <point x="571.7" y="1327.9999999999998" type="line" smooth="yes"/>
      <point x="867.2269230769231" y="1327.9999999999998"/>
      <point x="1042.8000000000002" y="1160.880985915493"/>
      <point x="1042.8000000000002" y="931.5" type="curve" smooth="yes"/>
      <point x="1042.8000000000002" y="720.2415191934044"/>
      <point x="905.1" y="595.2"/>
      <point x="673.3" y="595.2" type="curve" smooth="yes"/>
      <point x="581.2" y="595.2"/>
      <point x="455.50000000000006" y="613.0"/>
      <point x="380.9" y="662.4" type="curve"/>
      <point x="370.40000000000003" y="593.7" type="line"/>
      <point x="447.7" y="546.3000000000001"/>
      <point x="575.6999999999999" y="521.4"/>
      <point x="693.6" y="521.4" type="curve" smooth="yes"/>
      <point x="756.3999999999999" y="521.4"/>
      <point x="805.6124958880423" y="534.48568145399"/>
      <point x="863.8000000000001" y="545.1" type="curve" smooth="yes"/>
      <point x="1072.9098721062992" y="585.7096083509018"/>
      <point x="1209.6" y="731.4"/>
    </contour>
    <contour>
      <point x="742.1" y="557.2" type="line"/>
      <point x="1019.8999999999999" y="128.70000000000002" type="line" smooth="yes"/>
      <point x="1041.3" y="95.20000000000002"/>
      <point x="1036.8" y="76.9"/>
      <point x="1005.0" y="70.69999999999999" type="curve" smooth="yes"/>
      <point x="961.0" y="64.1" type="line" smooth="yes"/>
      <point x="939.2202048435674" y="58.26023044901336"/>
      <point x="927.1" y="48.39999999999998"/>
      <point x="927.1" y="33.0" type="curve" smooth="yes"/>
      <point x="927.1" y="11.499999999999998"/>
      <point x="942.4" y="0.0"/>
      <point x="971.1" y="0.0" type="curve" smooth="yes"/>
      <point x="1322.6" y="0.0" type="line" smooth="yes"/>
      <point x="1352.8000000000002" y="0.0"/>
      <point x="1367.9" y="12.100000000000001"/>
      <point x="1367.9" y="33.0" type="curve" smooth="yes"/>
      <point x="1367.9" y="53.2"/>
      <point x="1355.4999999999998" y="61.89999999999999"/>
      <point x="1300.7000000000003" y="73.99999999999999" type="curve" smooth="yes"/>
      <point x="1251.348589480653" y="84.67130732358874"/>
      <point x="1218.0" y="103.1"/>
      <point x="1192.6000000000001" y="141.3" type="curve" smooth="yes"/>
      <point x="900.4000000000001" y="578.3000000000001" type="line"/>
    </contour>
  </outline>
</glyph>
<glyph name="S" format="2">
  <advance width="1144.4"/>
  <unicode hex="0053"/>
  <anchor x="555.8" y="1530.0" name="center"/>
  <outline>
    <contour>
      <point x="634.8000000000001" y="-32.4" type="curve" smooth="yes"/>
      <point x="889.0999999999999" y="-32.4"/>
      <point x="1025.0" y="126.00000000000001"/>
      <point x="1026.6" y="313.9" type="curve" smooth="yes"/>
      <point x="1027.800000009494" y="504.8000016709039"/>
      <point x="924.4257336743424" y="630.9932930775242"/>
      <point x="600.0000000000001" y="750.8000000000001" type="curve" smooth="yes"/>
      <point x="334.53905817458366" y="851.4848410581162"/>
      <point x="257.3" y="957.4577023498696"/>
      <point x="257.3" y="1095.5" type="curve" smooth="yes"/>
      <point x="257.3" y="1243.9999999999998"/>
      <point x="363.9" y="1350.4"/>
      <point x="527.3000000000001" y="1350.4" type="curve" smooth="yes"/>
      <point x="691.9" y="1350.4"/>
      <point x="840.6999999999999" y="1266.0"/>
      <point x="955.6" y="1047.8" type="curve" smooth="yes"/>
      <point x="968.2" y="1024.1999999999998"/>
      <point x="986.6" y="1014.9"/>
      <point x="1007.4999999999999" y="1021.2" type="curve" smooth="yes"/>
      <point x="1029.1999999999998" y="1028.1"/>
      <point x="1038.5" y="1048.8999999999999"/>
      <point x="1030.5" y="1075.3" type="curve" smooth="yes"/>
      <point x="936.8" y="1381.3999999999999" type="line" smooth="yes"/>
      <point x="926.8000000000001" y="1414.4"/>
      <point x="916.5" y="1426.0"/>
      <point x="895.2" y="1426.0" type="curve" smooth="yes"/>
      <point x="851.9999999999999" y="1426.0"/>
      <point x="868.1999999999999" y="1340.1000000000001"/>
      <point x="830.7" y="1340.1000000000001" type="curve" smooth="yes"/>
      <point x="790.6" y="1340.1000000000001"/>
      <point x="706.4" y="1426.8000000000002"/>
      <point x="521.1999999999999" y="1426.8" type="curve" smooth="yes"/>
      <point x="282.1" y="1426.8"/>
      <point x="114.49999999999999" y="1280.0"/>
      <point x="114.49999999999999" y="1055.6000000000001" type="curve" smooth="yes"/>
      <point x="114.49999999999999" y="859.2961995249406"/>
      <point x="227.15501385781712" y="717.6932473205541"/>
      <point x="529.3000000000001" y="611.1000000000001" type="curve" smooth="yes"/>
      <point x="822.9457880292473" y="505.24570506512043"/>
      <point x="888.9000001402043" y="407.9000098143029"/>
      <point x="887.3" y="278.09999999999997" type="curve" smooth="yes"/>
      <point x="885.6999999999999" y="144.89999999999998"/>
      <point x="793.3000000000001" y="43.6"/>
      <point x="629.6" y="43.6" type="curve" smooth="yes"/>
      <point x="468.4" y="43.6"/>
      <point x="304.04211156109085" y="131.7074471184815"/>
      <point x="209.6" y="319.2" type="curve" smooth="yes"/>
      <point x="195.60000000000002" y="345.0"/>
      <point x="179.79999999999998" y="354.2"/>
      <point x="158.20000000000002" y="348.1" type="curve" smooth="yes"/>
      <point x="136.7" y="342.2"/>
      <point x="127.19999999999999" y="324.3"/>
      <point x="133.29999999999998" y="300.7" type="curve" smooth="yes"/>
      <point x="210.8" y="8.999999999999996" type="line" smooth="yes"/>
      <point x="217.3" y="-19.1"/>
      <point x="228.5" y="-31.200000000000003"/>
      <point x="248.29999999999995" y="-31.200000000000003" type="curve" smooth="yes"/>
      <point x="290.1" y="-31.200000000000003"/>
      <point x="279.5" y="57.400000000000006"/>
      <point x="316.0" y="57.400000000000006" type="curve" smooth="yes"/>
      <point x="344.6882882882883" y="57.400000000000006"/>
      <point x="452.94564564564564" y="-32.4"/>
    </contour>
  </outline>
</glyph>
<glyph name="T" format="2">
  <advance width="1309.2000000000003"/>
  <unicode hex="0054"/>
  <outline>
    <contour>
      <point x="302.09999999999997" y="1400.0" type="line" smooth="yes"/>
      <point x="249.70000000000002" y="1400.0"/>
      <point x="231.3" y="1447.9"/>
      <point x="193.2" y="1447.9" type="curve" smooth="yes"/>
      <point x="164.70000000000002" y="1447.9"/>
      <point x="149.4" y="1433.7999999999997"/>
      <point x="141.2" y="1401.1999999999998" type="curve" smooth="yes"/>
      <point x="70.8" y="1096.7" type="line" smooth="yes"/>
      <point x="64.00000000000001" y="1067.1999999999998"/>
      <point x="74.4" y="1049.1000000000001"/>
      <point x="96.8" y="1044.7" type="curve" smooth="yes"/>
      <point x="118.10000000000002" y="1040.1999999999998"/>
      <point x="135.5" y="1050.4"/>
      <point x="147.2" y="1077.9999999999998" type="curve" smooth="yes"/>
      <point x="234.59999999999997" y="1294.1000000000001"/>
      <point x="274.00000000000006" y="1323.1000000000001"/>
      <point x="386.29999999999995" y="1323.1000000000001" type="curve" smooth="yes"/>
      <point x="575.8000000000001" y="1323.1000000000001" type="line"/>
      <point x="575.8000000000001" y="150.4" type="line" smooth="yes"/>
      <point x="575.8000000000001" y="111.1"/>
      <point x="552.6999999999998" y="88.5"/>
      <point x="513.1" y="81.60000000000001" type="curve" smooth="yes"/>
      <point x="435.7" y="70.1" type="line" smooth="yes"/>
      <point x="409.50000000000006" y="63.899999999999984"/>
      <point x="397.1000000000001" y="51.999999999999986"/>
      <point x="397.1000000000001" y="33.099999999999994" type="curve" smooth="yes"/>
      <point x="397.1000000000001" y="12.099999999999998"/>
      <point x="411.0" y="0.0"/>
      <point x="440.79999999999995" y="0.0" type="curve" smooth="yes"/>
      <point x="868.4000000000001" y="0.0" type="line" smooth="yes"/>
      <point x="898.1999999999999" y="0.0"/>
      <point x="912.1" y="11.899999999999995"/>
      <point x="912.1" y="33.0" type="curve" smooth="yes"/>
      <point x="912.1" y="52.099999999999994"/>
      <point x="899.6999999999999" y="63.899999999999984"/>
      <point x="873.5" y="70.1" type="curve" smooth="yes"/>
      <point x="796.1" y="81.60000000000001" type="line" smooth="yes"/>
      <point x="756.4999999999999" y="88.5"/>
      <point x="733.3999999999999" y="111.1"/>
      <point x="733.3999999999999" y="150.4" type="curve" smooth="yes"/>
      <point x="733.3999999999999" y="1323.1000000000001" type="line"/>
      <point x="922.9" y="1323.1000000000001" type="line" smooth="yes"/>
      <point x="1035.2" y="1323.1000000000001"/>
      <point x="1074.6000000000001" y="1294.1"/>
      <point x="1162.0000000000002" y="1077.9999999999998" type="curve" smooth="yes"/>
      <point x="1173.6999999999998" y="1050.4"/>
      <point x="1191.1" y="1040.1999999999998"/>
      <point x="1212.4" y="1044.7" type="curve" smooth="yes"/>
      <point x="1234.8" y="1049.1000000000001"/>
      <point x="1245.1999999999998" y="1067.1999999999998"/>
      <point x="1238.4" y="1096.7" type="curve" smooth="yes"/>
      <point x="1167.9999999999998" y="1401.2000000000003" type="line" smooth="yes"/>
      <point x="1159.8" y="1433.8"/>
      <point x="1144.5000000000002" y="1447.9"/>
      <point x="1115.9999999999998" y="1447.9" type="curve" smooth="yes"/>
      <point x="1077.8999999999999" y="1447.9"/>
      <point x="1059.4" y="1400.0"/>
      <point x="1007.0999999999998" y="1400.0" type="curve" smooth="yes"/>
    </contour>
  </outline>
</glyph>
<glyph name="U" format="2">
  <advance width="1481.5"/>
  <unicode hex="0055"/>
  <anchor x="772.8" y="1460.0" name="center"/>
  <outline>
    <contour>
      <point x="1164.7" y="575.8" type="line" smooth="yes"/>
      <point x="1167.4" y="525.5"/>
      <point x="1169.8999999999999" y="473.49999999999994"/>
      <point x="1173.1" y="385.79999999999995" type="curve" smooth="yes"/>
      <point x="1182.2996569392758" y="177.80628944661134"/>
      <point x="1038.1658536585367" y="55.1"/>
      <point x="789.1" y="55.1" type="curve" smooth="yes"/>
      <point x="532.9" y="55.1"/>
      <point x="378.2121407116948" y="173.45680822664224"/>
      <point x="385.69999999999993" y="398.0" type="curve" smooth="yes"/>
      <point x="388.49999999999994" y="469.09999999999997"/>
      <point x="391.2" y="547.6999999999999"/>
      <point x="396.5" y="649.3000000000001" type="curve" smooth="yes"/>
      <point x="427.5" y="1247.6" type="line" smooth="yes"/>
      <point x="429.6" y="1290.7"/>
      <point x="450.6000000000001" y="1310.6"/>
      <point x="498.5" y="1319.6" type="curve" smooth="yes"/>
      <point x="553.0" y="1329.6" type="line" smooth="yes"/>
      <point x="584.1" y="1336.3"/>
      <point x="597.8999999999999" y="1347.2"/>
      <point x="597.8999999999999" y="1366.7" type="curve" smooth="yes"/>
      <point x="597.8999999999999" y="1387.3999999999999"/>
      <point x="582.3" y="1400.0"/>
      <point x="554.1999999999999" y="1400.0" type="curve" smooth="yes"/>
      <point x="140.79999999999998" y="1400.0" type="line" smooth="yes"/>
      <point x="112.3" y="1400.0"/>
      <point x="96.7" y="1387.3999999999999"/>
      <point x="96.7" y="1366.7" type="curve" smooth="yes"/>
      <point x="96.7" y="1346.7"/>
      <point x="111.00000000000001" y="1335.6000000000001"/>
      <point x="141.6" y="1329.3" type="curve" smooth="yes"/>
      <point x="195.9" y="1319.6" type="line" smooth="yes"/>
      <point x="245.6" y="1310.5"/>
      <point x="271.1" y="1288.4"/>
      <point x="268.90000000000003" y="1244.1" type="curve" smooth="yes"/>
      <point x="238.29999999999998" y="643.9000000000001" type="line" smooth="yes"/>
      <point x="234.1" y="565.6"/>
      <point x="226.1" y="439.8"/>
      <point x="224.5" y="378.2" type="curve" smooth="yes"/>
      <point x="216.49998665564766" y="128.59967973554393"/>
      <point x="406.26513409961683" y="-32.0"/>
      <point x="760.5000000000001" y="-32.0" type="curve" smooth="yes"/>
      <point x="1094.0" y="-32.0"/>
      <point x="1272.2" y="138.1"/>
      <point x="1260.9999999999998" y="380.49999999999994" type="curve" smooth="yes"/>
      <point x="1257.7999999999997" y="447.8"/>
      <point x="1254.3999999999999" y="508.8"/>
      <point x="1250.9999999999998" y="574.1" type="curve" smooth="yes"/>
      <point x="1216.8" y="1241.2" type="line" smooth="yes"/>
      <point x="1214.3999999999999" y="1284.5"/>
      <point x="1236.5" y="1309.3999999999999"/>
      <point x="1292.8" y="1320.1" type="curve" smooth="yes"/>
      <point x="1346.4" y="1329.2" type="line" smooth="yes"/>
      <point x="1377.8" y="1335.9"/>
      <point x="1391.2999999999997" y="1347.3"/>
      <point x="1391.2999999999997" y="1367.1" type="curve" smooth="yes"/>
      <point x="1391.2999999999997" y="1387.3999999999999"/>
      <point x="1375.7" y="1400.0"/>
      <point x="1347.6000000000001" y="1400.0" type="curve" smooth="yes"/>
      <point x="995.5" y="1400.0" type="line" smooth="yes"/>
      <point x="967.5" y="1400.0"/>
      <point x="951.9" y="1387.3999999999999"/>
      <point x="951.9" y="1367.1" type="curve" smooth="yes"/>
      <point x="951.9" y="1347.7"/>
      <point x="964.6" y="1336.1"/>
      <point x="996.6999999999999" y="1329.3999999999999" type="curve" smooth="yes"/>
      <point x="1052.4" y="1319.3" type="line" smooth="yes"/>
      <point x="1102.8999999999999" y="1309.7"/>
      <point x="1125.9" y="1289.8"/>
      <point x="1128.3999999999999" y="1244.7" type="curve" smooth="yes"/>
    </contour>
  </outline>
</glyph>
<glyph name="V" format="2">
  <advance width="1377.5"/>
  <unicode hex="0056"/>
  <outline>
    <contour>
      <point x="938.6999999999999" y="1366.9999999999998" type="curve" smooth="yes"/>
      <point x="938.6999999999999" y="1347.9999999999998"/>
      <point x="953.5" y="1337.5"/>
      <point x="978.4" y="1332.1999999999998" type="curve" smooth="yes"/>
      <point x="1066.3999999999999" y="1320.3" type="line" smooth="yes"/>
      <point x="1117.4" y="1310.3"/>
      <point x="1126.5" y="1288.6999999999998"/>
      <point x="1105.6999999999998" y="1229.5999999999997" type="curve" smooth="yes"/>
      <point x="691.8000000000001" y="66.60000000000001" type="line"/>
      <point x="750.8000000000001" y="103.8" type="line"/>
      <point x="342.6" y="1243.8" type="line" smooth="yes"/>
      <point x="322.69999999999993" y="1299.3999999999996"/>
      <point x="329.4" y="1313.3999999999999"/>
      <point x="364.4" y="1320.0" type="curve" smooth="yes"/>
      <point x="456.9" y="1332.0" type="line" smooth="yes"/>
      <point x="482.49999999999994" y="1337.5000000000002"/>
      <point x="496.69999999999993" y="1348.5"/>
      <point x="496.69999999999993" y="1366.9999999999998" type="curve" smooth="yes"/>
      <point x="496.69999999999993" y="1387.8999999999999"/>
      <point x="481.8" y="1400.0"/>
      <point x="451.8" y="1400.0" type="curve" smooth="yes"/>
      <point x="77.5" y="1400.0" type="line" smooth="yes"/>
      <point x="47.300000000000004" y="1400.0"/>
      <point x="32.199999999999996" y="1387.8999999999999"/>
      <point x="32.199999999999996" y="1366.9999999999998" type="curve" smooth="yes"/>
      <point x="32.199999999999996" y="1349.1"/>
      <point x="45.400000000000006" y="1338.5"/>
      <point x="69.9" y="1331.3999999999999" type="curve" smooth="yes"/>
      <point x="115.7" y="1320.4" type="line" smooth="yes"/>
      <point x="141.9" y="1312.1999999999998"/>
      <point x="155.8" y="1299.5000000000002"/>
      <point x="168.10000000000002" y="1264.6" type="curve" smooth="yes"/>
      <point x="566.3000000000001" y="158.70000000000002" type="line" smooth="yes"/>
      <point x="578.0" y="125.59999999999998"/>
      <point x="583.5" y="107.7"/>
      <point x="583.5" y="84.1" type="curve" smooth="yes"/>
      <point x="583.5" y="45.79999999999999" type="line" smooth="yes"/>
      <point x="583.5" y="16.200000000000003"/>
      <point x="597.0" y="0.0"/>
      <point x="623.8000000000001" y="0.0" type="curve" smooth="yes"/>
      <point x="753.8000000000001" y="0.0" type="line" smooth="yes"/>
      <point x="777.5999999999999" y="0.0"/>
      <point x="791.6" y="16.4"/>
      <point x="791.6" y="45.1" type="curve" smooth="yes"/>
      <point x="791.6" y="83.5" type="line" smooth="yes"/>
      <point x="791.6" y="106.6"/>
      <point x="797.4" y="127.2"/>
      <point x="809.2999999999998" y="160.9" type="curve" smooth="yes"/>
      <point x="1190.0000000000002" y="1226.4" type="line" smooth="yes"/>
      <point x="1211.3" y="1287.8999999999999"/>
      <point x="1228.6" y="1310.0"/>
      <point x="1261.9000000000003" y="1320.3" type="curve" smooth="yes"/>
      <point x="1306.8000000000002" y="1332.1999999999998" type="line" smooth="yes"/>
      <point x="1335.7" y="1341.1999999999998"/>
      <point x="1346.8999999999999" y="1350.4999999999998"/>
      <point x="1346.8999999999999" y="1367.7999999999997" type="curve" smooth="yes"/>
      <point x="1346.8999999999999" y="1387.5"/>
      <point x="1332.6000000000001" y="1400.0"/>
      <point x="1301.6" y="1400.0" type="curve" smooth="yes"/>
      <point x="983.5000000000001" y="1400.0" type="line" smooth="yes"/>
      <point x="953.6999999999999" y="1400.0"/>
      <point x="938.6999999999999" y="1387.8999999999999"/>
    </contour>
  </outline>
</glyph>
<glyph name="W" format="2">
  <advance width="2023.8000000000002"/>
  <unicode hex="0057"/>
  <anchor x="1032.6" y="1472.0" name="center"/>
  <outline>
    <contour>
      <point x="994.2" y="1155.9" type="line"/>
      <point x="636.0999999999999" y="67.7" type="line"/>
      <point x="694.9" y="113.5" type="line"/>
      <point x="335.40000000000003" y="1245.0" type="line" smooth="yes"/>
      <point x="317.79999999999995" y="1300.8"/>
      <point x="321.99999999999994" y="1315.7"/>
      <point x="356.7" y="1322.0" type="curve" smooth="yes"/>
      <point x="445.09999999999997" y="1332.9" type="line" smooth="yes"/>
      <point x="470.2" y="1337.4999999999998"/>
      <point x="483.0" y="1349.3"/>
      <point x="483.0" y="1367.1" type="curve" smooth="yes"/>
      <point x="483.0" y="1387.9"/>
      <point x="468.5" y="1400.0"/>
      <point x="438.2" y="1400.0" type="curve" smooth="yes"/>
      <point x="74.4" y="1400.0" type="line" smooth="yes"/>
      <point x="43.99999999999999" y="1400.0"/>
      <point x="29.299999999999997" y="1388.3"/>
      <point x="29.299999999999997" y="1367.8999999999999" type="curve" smooth="yes"/>
      <point x="29.299999999999997" y="1350.4999999999998"/>
      <point x="40.3" y="1339.3"/>
      <point x="67.19999999999999" y="1331.6999999999998" type="curve" smooth="yes"/>
      <point x="113.30000000000001" y="1320.5999999999997" type="line" smooth="yes"/>
      <point x="139.5" y="1312.6999999999998"/>
      <point x="154.40000000000003" y="1299.7"/>
      <point x="165.5" y="1265.3999999999999" type="curve" smooth="yes"/>
      <point x="521.0" y="155.39999999999998" type="line" smooth="yes"/>
      <point x="531.6999999999999" y="121.8"/>
      <point x="536.7" y="106.19999999999999"/>
      <point x="536.7" y="83.1" type="curve" smooth="yes"/>
      <point x="536.7" y="45.699999999999996" type="line" smooth="yes"/>
      <point x="536.7" y="16.200000000000003"/>
      <point x="550.9" y="0.0"/>
      <point x="577.3999999999999" y="0.0" type="curve" smooth="yes"/>
      <point x="695.7" y="0.0" type="line" smooth="yes"/>
      <point x="719.6999999999999" y="0.0"/>
      <point x="733.4999999999999" y="16.200000000000003"/>
      <point x="733.4999999999999" y="45.699999999999996" type="curve" smooth="yes"/>
      <point x="733.4999999999999" y="83.1" type="line" smooth="yes"/>
      <point x="733.4999999999999" y="107.0"/>
      <point x="738.8000000000001" y="128.29999999999998"/>
      <point x="748.4999999999999" y="156.89999999999998" type="curve" smooth="yes"/>
      <point x="1064.6" y="1118.1000000000001" type="line"/>
    </contour>
    <contour>
      <point x="1601.2" y="1366.9999999999998" type="curve" smooth="yes"/>
      <point x="1601.2" y="1349.8"/>
      <point x="1613.0" y="1338.3999999999999"/>
      <point x="1639.0000000000002" y="1333.3" type="curve" smooth="yes"/>
      <point x="1722.7" y="1322.0" type="line" smooth="yes"/>
      <point x="1778.0833808346576" y="1311.9937861926805"/>
      <point x="1784.128784138338" y="1290.954804814348"/>
      <point x="1765.3999999999999" y="1230.6" type="curve" smooth="yes"/>
      <point x="1404.1000000000001" y="74.5" type="line"/>
      <point x="1454.3" y="115.59999999999998" type="line"/>
      <point x="1107.8" y="1244.9" type="line" smooth="yes"/>
      <point x="1090.1999999999998" y="1301.8"/>
      <point x="1095.3999999999999" y="1315.2000000000003"/>
      <point x="1128.4" y="1321.1" type="curve" smooth="yes"/>
      <point x="1216.1999999999998" y="1332.1000000000001" type="line" smooth="yes"/>
      <point x="1242.8999999999999" y="1337.8"/>
      <point x="1255.8" y="1348.6"/>
      <point x="1255.8" y="1367.0" type="curve" smooth="yes"/>
      <point x="1255.8" y="1387.9"/>
      <point x="1240.8999999999999" y="1400.0"/>
      <point x="1211.0" y="1400.0" type="curve" smooth="yes"/>
      <point x="854.8" y="1400.0" type="line" smooth="yes"/>
      <point x="825.3" y="1400.0"/>
      <point x="810.0" y="1387.9"/>
      <point x="810.0" y="1367.0" type="curve" smooth="yes"/>
      <point x="810.0" y="1350.1"/>
      <point x="821.7" y="1340.5"/>
      <point x="847.8000000000001" y="1333.3000000000002" type="curve" smooth="yes"/>
      <point x="893.8" y="1322.2" type="line" smooth="yes"/>
      <point x="919.1999999999999" y="1315.2"/>
      <point x="930.6999999999999" y="1302.3"/>
      <point x="942.4" y="1265.3999999999999" type="curve" smooth="yes"/>
      <point x="1283.2" y="157.8" type="line" smooth="yes"/>
      <point x="1293.6" y="123.89999999999999"/>
      <point x="1295.8" y="105.8"/>
      <point x="1295.8" y="83.1" type="curve" smooth="yes"/>
      <point x="1295.8" y="45.699999999999996" type="line" smooth="yes"/>
      <point x="1295.8" y="16.200000000000003"/>
      <point x="1310.0" y="0.0"/>
      <point x="1335.9999999999998" y="0.0" type="curve" smooth="yes"/>
      <point x="1460.0" y="0.0" type="line" smooth="yes"/>
      <point x="1483.6000000000001" y="0.0"/>
      <point x="1497.4" y="16.200000000000003"/>
      <point x="1497.4" y="45.699999999999996" type="curve" smooth="yes"/>
      <point x="1497.4" y="83.1" type="line" smooth="yes"/>
      <point x="1497.4" y="106.00000000000001"/>
      <point x="1503.0000000000002" y="126.2"/>
      <point x="1512.4" y="156.9" type="curve" smooth="yes"/>
      <point x="1848.0" y="1227.0" type="line" smooth="yes"/>
      <point x="1866.6999999999998" y="1287.7"/>
      <point x="1886.0" y="1309.8999999999999"/>
      <point x="1918.9" y="1320.3" type="curve" smooth="yes"/>
      <point x="1963.7" y="1332.1999999999998" type="line" smooth="yes"/>
      <point x="1992.2" y="1341.3999999999999"/>
      <point x="2002.9999999999998" y="1350.1000000000001"/>
      <point x="2002.9999999999998" y="1367.3999999999999" type="curve" smooth="yes"/>
      <point x="2002.9999999999998" y="1386.7"/>
      <point x="1989.1" y="1400.0"/>
      <point x="1958.2" y="1400.0" type="curve" smooth="yes"/>
      <point x="1646.0" y="1400.0" type="line" smooth="yes"/>
      <point x="1616.4" y="1400.0"/>
      <point x="1601.2" y="1387.8999999999999"/>
    </contour>
  </outline>
</glyph>
<glyph name="X" format="2">
  <advance width="1435.7"/>
  <unicode hex="0058"/>
  <outline>
    <contour>
      <point x="1202.7" y="183.20000000000002" type="curve" smooth="yes"/>
      <point x="425.49999999999994" y="1234.2000000000003" type="line" smooth="yes"/>
      <point x="391.69999999999993" y="1279.6"/>
      <point x="403.5" y="1307.3"/>
      <point x="478.90000000000003" y="1321.7" type="curve" smooth="yes"/>
      <point x="532.4" y="1331.5" type="line" smooth="yes"/>
      <point x="556.1999999999999" y="1337.5"/>
      <point x="569.8999999999999" y="1347.7"/>
      <point x="569.8999999999999" y="1367.0" type="curve" smooth="yes"/>
      <point x="569.8999999999999" y="1388.1"/>
      <point x="555.4000000000001" y="1400.0"/>
      <point x="525.3999999999999" y="1400.0" type="curve" smooth="yes"/>
      <point x="108.4" y="1400.0" type="line" smooth="yes"/>
      <point x="77.8" y="1400.0"/>
      <point x="62.699999999999996" y="1388.3"/>
      <point x="62.699999999999996" y="1366.9999999999998" type="curve" smooth="yes"/>
      <point x="62.699999999999996" y="1350.2999999999997"/>
      <point x="71.0" y="1340.3999999999999"/>
      <point x="116.10000000000001" y="1329.4" type="curve" smooth="yes"/>
      <point x="181.5" y="1315.3000000000002"/>
      <point x="199.4" y="1293.0"/>
      <point x="253.0" y="1220.2" type="curve" smooth="yes"/>
      <point x="1025.7" y="172.2" type="line" smooth="yes"/>
      <point x="1064.3" y="119.79999999999998"/>
      <point x="1061.3999999999999" y="92.70000000000002"/>
      <point x="970.5" y="75.30000000000001" type="curve" smooth="yes"/>
      <point x="909.1999999999999" y="63.50000000000001"/>
      <point x="895.3" y="52.599999999999994"/>
      <point x="895.3" y="32.2" type="curve" smooth="yes"/>
      <point x="895.3" y="11.3"/>
      <point x="910.4000000000001" y="0.0"/>
      <point x="940.1999999999999" y="0.0" type="curve" smooth="yes"/>
      <point x="1357.8999999999999" y="0.0" type="line" smooth="yes"/>
      <point x="1387.7" y="0.0"/>
      <point x="1402.8" y="11.7"/>
      <point x="1402.8" y="33.0" type="curve" smooth="yes"/>
      <point x="1402.8" y="52.99999999999999"/>
      <point x="1386.3000000000002" y="62.60000000000001"/>
      <point x="1358.2" y="70.5" type="curve" smooth="yes"/>
      <point x="1276.2" y="89.00000000000001"/>
      <point x="1261.8000000000002" y="103.69999999999999"/>
    </contour>
    <contour>
      <point x="762.3000000000001" y="695.6" type="line"/>
      <point x="1130.7" y="1190.8" type="line" smooth="yes"/>
      <point x="1198.1000000000001" y="1281.5"/>
      <point x="1226.1" y="1310.4"/>
      <point x="1283.8999999999999" y="1322.9" type="curve" smooth="yes"/>
      <point x="1336.5" y="1336.0"/>
      <point x="1350.8" y="1348.4"/>
      <point x="1350.8" y="1367.1" type="curve" smooth="yes"/>
      <point x="1350.8" y="1388.4"/>
      <point x="1335.7" y="1400.0"/>
      <point x="1305.9" y="1400.0" type="curve" smooth="yes"/>
      <point x="957.1" y="1400.0" type="line" smooth="yes"/>
      <point x="927.0999999999999" y="1400.0"/>
      <point x="912.5" y="1387.9"/>
      <point x="912.5" y="1366.9999999999998" type="curve" smooth="yes"/>
      <point x="912.5" y="1347.6000000000001"/>
      <point x="927.3" y="1336.5"/>
      <point x="951.4000000000001" y="1330.3999999999999" type="curve" smooth="yes"/>
      <point x="1012.5" y="1319.3" type="line" smooth="yes"/>
      <point x="1084.5" y="1305.5999999999997"/>
      <point x="1093.0" y="1272.5"/>
      <point x="1048.3" y="1211.5" type="curve" smooth="yes"/>
      <point x="701.3" y="741.4000000000001" type="line"/>
    </contour>
    <contour>
      <point x="654.7" y="731.6" type="line"/>
      <point x="257.59999999999997" y="197.09999999999997" type="line" smooth="yes"/>
      <point x="210.79999999999998" y="134.5"/>
      <point x="174.10000000000002" y="91.79999999999998"/>
      <point x="104.1" y="75.4" type="curve" smooth="yes"/>
      <point x="58.2" y="64.19999999999999"/>
      <point x="48.39999999999999" y="50.3"/>
      <point x="48.39999999999999" y="33.8" type="curve" smooth="yes"/>
      <point x="48.39999999999999" y="12.100000000000001"/>
      <point x="63.499999999999986" y="0.0"/>
      <point x="93.19999999999999" y="0.0" type="curve" smooth="yes"/>
      <point x="437.8" y="0.0" type="line" smooth="yes"/>
      <point x="467.5" y="0.0"/>
      <point x="482.40000000000003" y="12.3"/>
      <point x="482.40000000000003" y="33.0" type="curve" smooth="yes"/>
      <point x="482.40000000000003" y="51.89999999999999"/>
      <point x="468.49999999999994" y="62.099999999999994"/>
      <point x="443.7" y="68.19999999999999" type="curve" smooth="yes"/>
      <point x="380.29999999999995" y="78.39999999999999" type="line" smooth="yes"/>
      <point x="309.90000000000003" y="90.79999999999998"/>
      <point x="296.6" y="117.69999999999999"/>
      <point x="343.6" y="180.9" type="curve" smooth="yes"/>
      <point x="719.0999999999999" y="688.0" type="line"/>
    </contour>
  </outline>
</glyph>
<glyph name="Y" format="2">
  <advance width="1360.9999999999998"/>
  <unicode hex="0059"/>
  <anchor x="725.6" y="1428.0" name="center"/>
  <outline>
    <contour>
      <point x="744.1" y="444.59999999999997" type="line"/>
      <point x="1163.0000000000002" y="1224.0" type="line" smooth="yes"/>
      <point x="1204.6000000000001" y="1301.8"/>
      <point x="1220.4" y="1315.7000000000003"/>
      <point x="1262.4999999999998" y="1326.1000000000001" type="curve" smooth="yes"/>
      <point x="1275.9" y="1330.0" type="line" smooth="yes"/>
      <point x="1312.2" y="1339.7"/>
      <point x="1319.3" y="1350.7"/>
      <point x="1319.3" y="1366.9999999999998" type="curve" smooth="yes"/>
      <point x="1319.3" y="1387.1000000000001"/>
      <point x="1303.8" y="1400.0"/>
      <point x="1273.7" y="1400.0" type="curve" smooth="yes"/>
      <point x="958.3000000000001" y="1400.0" type="line" smooth="yes"/>
      <point x="928.4999999999999" y="1400.0"/>
      <point x="913.4" y="1388.3"/>
      <point x="913.4" y="1367.0" type="curve" smooth="yes"/>
      <point x="913.4" y="1347.5999999999997"/>
      <point x="927.6" y="1335.4"/>
      <point x="950.9999999999999" y="1331.1" type="curve" smooth="yes"/>
      <point x="1034.1000000000001" y="1320.3" type="line" smooth="yes"/>
      <point x="1094.1000000000001" y="1309.8"/>
      <point x="1103.8" y="1282.6"/>
      <point x="1074.4" y="1227.4" type="curve" smooth="yes"/>
      <point x="675.1" y="478.7" type="line"/>
      <point x="749.9" y="520.6999999999999" type="line"/>
      <point x="366.2" y="1246.1" type="line" smooth="yes"/>
      <point x="344.9" y="1287.3"/>
      <point x="358.7" y="1309.5"/>
      <point x="416.40000000000003" y="1320.0" type="curve" smooth="yes"/>
      <point x="480.40000000000003" y="1328.8" type="line" smooth="yes"/>
      <point x="516.7" y="1335.3"/>
      <point x="532.1999999999999" y="1347.3"/>
      <point x="532.1999999999999" y="1366.9999999999998" type="curve" smooth="yes"/>
      <point x="532.1999999999999" y="1388.3"/>
      <point x="513.5" y="1400.0"/>
      <point x="482.09999999999997" y="1400.0" type="curve" smooth="yes"/>
      <point x="93.69999999999999" y="1400.0" type="line" smooth="yes"/>
      <point x="63.50000000000001" y="1400.0"/>
      <point x="48.4" y="1388.3"/>
      <point x="48.4" y="1366.9999999999998" type="curve" smooth="yes"/>
      <point x="48.4" y="1350.8"/>
      <point x="56.900000000000006" y="1338.0"/>
      <point x="91.8" y="1329.9" type="curve" smooth="yes"/>
      <point x="123.00000000000001" y="1322.3" type="line" smooth="yes"/>
      <point x="153.5" y="1313.8000000000002"/>
      <point x="165.9" y="1301.9"/>
      <point x="185.8" y="1264.4999999999998" type="curve" smooth="yes"/>
      <point x="639.5" y="421.7" type="line"/>
    </contour>
    <contour>
      <point x="607.5000000000001" y="513.5000000000001" type="line"/>
      <point x="607.5000000000001" y="150.4" type="line" smooth="yes"/>
      <point x="607.5000000000001" y="113.30000000000001"/>
      <point x="585.8" y="90.80000000000001"/>
      <point x="544.8000000000002" y="81.60000000000001" type="curve" smooth="yes"/>
      <point x="483.4" y="70.1" type="line" smooth="yes"/>
      <point x="457.2" y="63.09999999999999"/>
      <point x="444.79999999999995" y="51.999999999999986"/>
      <point x="444.79999999999995" y="33.0" type="curve" smooth="yes"/>
      <point x="444.79999999999995" y="12.099999999999998"/>
      <point x="458.70000000000005" y="0.0"/>
      <point x="488.5" y="0.0" type="curve" smooth="yes"/>
      <point x="884.1" y="0.0" type="line" smooth="yes"/>
      <point x="913.8999999999999" y="0.0"/>
      <point x="927.8000000000001" y="12.099999999999994"/>
      <point x="927.8000000000001" y="33.0" type="curve" smooth="yes"/>
      <point x="927.8000000000001" y="52.09999999999998"/>
      <point x="915.4" y="63.09999999999999"/>
      <point x="889.1999999999999" y="70.1" type="curve" smooth="yes"/>
      <point x="827.8000000000001" y="81.60000000000001" type="line" smooth="yes"/>
      <point x="787.4000000000001" y="90.5"/>
      <point x="765.1" y="112.80000000000001"/>
      <point x="765.1" y="150.40000000000003" type="curve" smooth="yes"/>
      <point x="765.1" y="513.5000000000001" type="line"/>
    </contour>
  </outline>
</glyph>
<glyph name="Z" format="2">
  <advance width="1262.8"/>
  <unicode hex="005A"/>
  <anchor x="687.6" y="1480.8" name="center"/>
  <outline>
    <contour>
      <point x="1105.5000000000002" y="1292.5000000000002" type="line" smooth="yes"/>
      <point x="1124.6000000000001" y="1321.0"/>
      <point x="1133.4" y="1339.7"/>
      <point x="1133.4" y="1358.7" type="curve" smooth="yes"/>
      <point x="1133.4" y="1382.1"/>
      <point x="1116.4" y="1400.0"/>
      <point x="1082.3000000000002" y="1400.0" type="curve" smooth="yes"/>
      <point x="374.3" y="1400.0" type="line" smooth="yes"/>
      <point x="326.5" y="1400.0"/>
      <point x="304.09999999999997" y="1451.5"/>
      <point x="267.40000000000003" y="1451.5" type="curve" smooth="yes"/>
      <point x="240.1" y="1451.5"/>
      <point x="223.4" y="1435.5"/>
      <point x="215.39999999999998" y="1400.0" type="curve" smooth="yes"/>
      <point x="149.60000000000002" y="1111.4" type="line" smooth="yes"/>
      <point x="142.30000000000004" y="1078.6999999999998"/>
      <point x="154.20000000000002" y="1060.4999999999998"/>
      <point x="176.0" y="1056.8000000000002" type="curve" smooth="yes"/>
      <point x="198.0" y="1052.6999999999998"/>
      <point x="218.7" y="1065.2"/>
      <point x="231.10000000000002" y="1095.3" type="curve" smooth="yes"/>
      <point x="266.20000000000005" y="1188.1000000000001" type="line" smooth="yes"/>
      <point x="304.69999999999993" y="1288.2"/>
      <point x="364.3" y="1324.7000000000003"/>
      <point x="450.1" y="1324.7000000000003" type="curve" smooth="yes"/>
      <point x="1000.1999999999999" y="1324.7000000000003" type="line"/>
      <point x="973.8" y="1361.1000000000001" type="line"/>
      <point x="121.3" y="104.80000000000001" type="line" smooth="yes"/>
      <point x="105.39999999999999" y="81.6"/>
      <point x="94.4" y="62.19999999999999"/>
      <point x="94.4" y="39.9" type="curve" smooth="yes"/>
      <point x="94.4" y="16.099999999999998"/>
      <point x="110.29999999999998" y="0.0"/>
      <point x="145.29999999999998" y="0.0" type="curve" smooth="yes"/>
      <point x="943.3000000000001" y="0.0" type="line" smooth="yes"/>
      <point x="992.4" y="0.0"/>
      <point x="1010.8999999999999" y="-38.7"/>
      <point x="1046.2" y="-38.7" type="curve" smooth="yes"/>
      <point x="1074.3" y="-38.7"/>
      <point x="1088.9000000000003" y="-22.300000000000008"/>
      <point x="1096.6000000000001" y="10.399999999999991" type="curve" smooth="yes"/>
      <point x="1171.6999999999998" y="347.00000000000006" type="line" smooth="yes"/>
      <point x="1178.0" y="374.7"/>
      <point x="1169.7" y="392.8"/>
      <point x="1147.3000000000002" y="396.79999999999995" type="curve" smooth="yes"/>
      <point x="1126.8999999999999" y="400.6"/>
      <point x="1112.1" y="392.29999999999995"/>
      <point x="1101.8" y="368.2" type="curve" smooth="yes"/>
      <point x="1061.3000000000002" y="265.09999999999997" type="line" smooth="yes"/>
      <point x="1002.0" y="111.79999999999998"/>
      <point x="943.0" y="75.30000000000001"/>
      <point x="816.8000000000001" y="75.30000000000001" type="curve" smooth="yes"/>
      <point x="168.60000000000002" y="75.30000000000001" type="line"/>
      <point x="255.60000000000002" y="38.8" type="line"/>
    </contour>
  </outline>
</glyph>
<glyph name="bracketleft" format="2">
  <advance width="614.4"/>
  <unicode hex="005B"/>
  <outline>
    <contour>
      <point x="301.29999999999995" y="1364.3999999999999" type="line" smooth="yes"/>
      <point x="301.29999999999995" y="1393.3999999999999"/>
      <point x="314.4" y="1406.2"/>
      <point x="343.9" y="1406.2" type="curve" smooth="yes"/>
      <point x="566.1999999999999" y="1406.2" type="line" smooth="yes"/>
      <point x="592.2000000000002" y="1406.2"/>
      <point x="607.3" y="1418.7"/>
      <point x="607.3" y="1443.3000000000002" type="curve" smooth="yes"/>
      <point x="607.3" y="1466.2"/>
      <point x="592.2" y="1479.8"/>
      <point x="566.1999999999999" y="1479.8" type="curve" smooth="yes"/>
      <point x="233.29999999999998" y="1479.8" type="line" smooth="yes"/>
      <point x="191.8" y="1479.8"/>
      <point x="174.0" y="1459.8000000000002"/>
      <point x="174.0" y="1417.5000000000002" type="curve" smooth="yes"/>
      <point x="174.0" y="-193.7" type="line" smooth="yes"/>
      <point x="174.0" y="-235.90000000000003"/>
      <point x="191.8" y="-256.0"/>
      <point x="233.29999999999998" y="-256.0" type="curve" smooth="yes"/>
      <point x="566.1999999999999" y="-256.0" type="line" smooth="yes"/>
      <point x="592.2" y="-256.0"/>
      <point x="607.3" y="-242.5"/>
      <point x="607.3" y="-219.60000000000002" type="curve" smooth="yes"/>
      <point x="607.3" y="-194.9"/>
      <point x="592.1999999999999" y="-182.5"/>
      <point x="566.1999999999999" y="-182.5" type="curve" smooth="yes"/>
      <point x="343.9" y="-182.5" type="line" smooth="yes"/>
      <point x="314.4" y="-182.5"/>
      <point x="301.29999999999995" y="-169.60000000000002"/>
      <point x="301.29999999999995" y="-140.6" type="curve" smooth="yes"/>
    </contour>
  </outline>
</glyph>
<glyph name="asciicircum" format="2">
  <advance width="988.8"/>
  <unicode hex="005E"/>
  <outline>
    <contour>
      <point x="533.5999999999999" y="1339.4999999999998" type="line"/>
      <point x="220.9" y="799.3" type="line" smooth="yes"/>
      <point x="197.60000000000002" y="763.0000000000001"/>
      <point x="172.9" y="758.0"/>
      <point x="151.00000000000003" y="770.0" type="curve" smooth="yes"/>
      <point x="130.9" y="781.0"/>
      <point x="126.70000000000002" y="805.4"/>
      <point x="143.4" y="836.8" type="curve" smooth="yes"/>
      <point x="415.5" y="1355.7" type="line" smooth="yes"/>
      <point x="445.59999999999997" y="1411.3000000000002"/>
      <point x="464.7" y="1423.3"/>
      <point x="494.70000000000005" y="1423.3" type="curve" smooth="yes"/>
      <point x="524.6999999999999" y="1423.3"/>
      <point x="543.8" y="1411.3"/>
      <point x="573.9000000000001" y="1355.7" type="curve" smooth="yes"/>
      <point x="845.4000000000001" y="836.4999999999999" type="line" smooth="yes"/>
      <point x="862.1" y="805.1999999999999"/>
      <point x="857.8000000000001" y="780.9"/>
      <point x="837.8" y="769.9" type="curve" smooth="yes"/>
      <point x="815.9" y="757.9"/>
      <point x="791.0999999999999" y="762.9000000000001"/>
      <point x="767.8" y="799.1" type="curve" smooth="yes"/>
      <point x="455.9" y="1339.4999999999998" type="line"/>
    </contour>
  </outline>
</glyph>
<glyph name="underscore" format="2">
  <advance width="934.7"/>
  <unicode hex="005F"/>
  <outline>
    <contour>
      <point x="-4.300000000000001" y="-217.0" type="curve" smooth="yes"/>
      <point x="-4.300000000000001" y="-246.09999999999997"/>
      <point x="7.1" y="-264.2"/>
      <point x="32.2" y="-264.2" type="curve" smooth="yes"/>
      <point x="902.5" y="-264.2" type="line" smooth="yes"/>
      <point x="928.3000000000001" y="-264.2"/>
      <point x="938.9" y="-246.09999999999997"/>
      <point x="938.9" y="-217.0" type="curve" smooth="yes"/>
      <point x="938.9" y="-188.0"/>
      <point x="928.3000000000001" y="-169.1"/>
      <point x="902.5" y="-169.1" type="curve" smooth="yes"/>
      <point x="32.2" y="-169.1" type="line" smooth="yes"/>
      <point x="7.1" y="-169.1"/>
      <point x="-4.300000000000001" y="-188.0"/>
    </contour>
  </outline>
</glyph>
<glyph name="a" format="2">
  <advance width="1051.0"/>
  <unicode hex="0061"/>
  <anchor x="523.2" y="1037.6000000000001" name="center"/>
  <outline>
    <contour>
      <point x="712.4000000000001" y="110.6" type="line" smooth="yes"/>
      <point x="712.4000000000001" y="21.099999999999998"/>
      <point x="768.0999999999999" y="-22.4"/>
      <point x="855.5" y="-22.4" type="curve" smooth="yes"/>
      <point x="938.6999999999999" y="-22.4"/>
      <point x="990.6" y="33.199999999999996"/>
      <point x="990.6" y="81.7" type="curve" smooth="yes"/>
      <point x="990.6" y="99.8"/>
      <point x="981.2" y="110.1"/>
      <point x="967.3999999999999" y="110.1" type="curve" smooth="yes"/>
      <point x="956.5" y="110.1"/>
      <point x="949.6999999999998" y="101.69999999999999"/>
      <point x="941.8" y="93.19999999999999" type="curve" smooth="yes"/>
      <point x="931.8" y="81.50000000000001"/>
      <point x="921.0" y="67.10000000000001"/>
      <point x="892.3" y="67.10000000000001" type="curve" smooth="yes"/>
      <point x="863.5999999999999" y="67.10000000000001"/>
      <point x="845.0" y="85.8"/>
      <point x="845.0" y="126.29999999999998" type="curve" smooth="yes"/>
      <point x="845.0" y="683.8000000000001" type="line" smooth="yes"/>
      <point x="845.0" y="844.0000000000001"/>
      <point x="745.1" y="949.1999999999999"/>
      <point x="539.8" y="949.1999999999999" type="curve" smooth="yes"/>
      <point x="306.7" y="949.1999999999999"/>
      <point x="164.20000000000002" y="824.6"/>
      <point x="164.20000000000002" y="699.2" type="curve" smooth="yes"/>
      <point x="164.20000000000002" y="653.6"/>
      <point x="192.6" y="622.8000000000001"/>
      <point x="240.20000000000002" y="622.8000000000001" type="curve" smooth="yes"/>
      <point x="293.0" y="622.8000000000001"/>
      <point x="326.6" y="649.5999999999999"/>
      <point x="326.6" y="697.9999999999999" type="curve" smooth="yes"/>
      <point x="326.6" y="766.3000000000001" type="line" smooth="yes"/>
      <point x="326.6" y="831.9"/>
      <point x="385.3999999999999" y="887.1"/>
      <point x="505.6" y="887.1" type="curve" smooth="yes"/>
      <point x="631.8000000000001" y="887.1"/>
      <point x="705.2" y="817.5"/>
      <point x="705.2" y="687.9" type="curve" smooth="yes"/>
      <point x="705.2" y="158.7" type="line"/>
      <point x="712.4000000000001" y="140.29999999999998" type="line"/>
    </contour>
    <contour>
      <point x="115.8" y="207.70000000000002" type="curve" smooth="yes"/>
      <point x="115.8" y="61.46868839484855"/>
      <point x="231.7" y="-22.4"/>
      <point x="395.30000000000007" y="-22.4" type="curve" smooth="yes"/>
      <point x="537.1999999999999" y="-22.4"/>
      <point x="673.4824596545678" y="45.94508548050613"/>
      <point x="759.9000000000001" y="166.3" type="curve"/>
      <point x="737.6999999999999" y="213.29999999999998" type="line"/>
      <point x="661.2318754302962" y="114.91302108117964"/>
      <point x="555.0999999999999" y="61.19999999999999"/>
      <point x="444.99999999999994" y="61.19999999999999" type="curve" smooth="yes"/>
      <point x="342.0" y="61.19999999999999"/>
      <point x="265.09999999999997" y="118.91569001717883"/>
      <point x="265.09999999999997" y="229.09999999999997" type="curve" smooth="yes"/>
      <point x="265.09999999999997" y="344.03091115885246"/>
      <point x="359.728" y="414.29999999999995"/>
      <point x="513.5999999999999" y="414.29999999999995" type="curve" smooth="yes"/>
      <point x="594.0837209302325" y="414.29999999999995"/>
      <point x="663.4962173233253" y="395.339543251072"/>
      <point x="726.8" y="372.4" type="curve"/>
      <point x="737.6000000000001" y="428.79999999999995" type="line"/>
      <point x="673.5618361749767" y="454.2054502607538"/>
      <point x="587.9963414634146" y="472.90000000000003"/>
      <point x="499.19999999999993" y="472.90000000000003" type="curve" smooth="yes"/>
      <point x="261.3968944099379" y="472.90000000000003"/>
      <point x="115.8" y="359.59599999999995"/>
    </contour>
  </outline>
</glyph>
<glyph name="b" format="2">
  <advance width="1151.6"/>
  <unicode hex="0062"/>
  <outline>
    <contour>
      <point x="320.8" y="1418.4" type="line" smooth="yes"/>
      <point x="320.8" y="1447.2"/>
      <point x="305.6" y="1463.6"/>
      <point x="277.79999999999995" y="1463.6" type="curve"/>
      <point x="260.4" y="1463.6"/>
      <point x="236.79999999999998" y="1455.3999999999999"/>
      <point x="204.8" y="1444.3999999999999" type="curve" smooth="yes"/>
      <point x="67.0" y="1398.8" type="line" smooth="yes"/>
      <point x="41.0" y="1389.9"/>
      <point x="30.0" y="1378.8"/>
      <point x="30.0" y="1362.9999999999998" type="curve" smooth="yes"/>
      <point x="30.0" y="1348.1000000000001"/>
      <point x="40.800000000000004" y="1337.9"/>
      <point x="62.599999999999994" y="1335.3" type="curve" smooth="yes"/>
      <point x="142.99999999999997" y="1333.8" type="line" smooth="yes"/>
      <point x="168.5" y="1331.6999999999998"/>
      <point x="180.0" y="1318.1000000000001"/>
      <point x="180.0" y="1286.2" type="curve" smooth="yes"/>
      <point x="180.0" y="24.799999999999997" type="line" smooth="yes"/>
      <point x="180.0" y="-1.200000000000001"/>
      <point x="192.8" y="-13.2"/>
      <point x="212.40000000000003" y="-13.2" type="curve" smooth="yes"/>
      <point x="231.8274725274725" y="-13.2"/>
      <point x="247.7" y="-2.999999999999999"/>
      <point x="267.5999999999999" y="13.200000000000003" type="curve" smooth="yes"/>
      <point x="320.8" y="130.0" type="line"/>
    </contour>
    <contour>
      <point x="276.3" y="658.8000000000001" type="line"/>
      <point x="359.2579795061705" y="787.7011483772088"/>
      <point x="469.50000000000006" y="861.7"/>
      <point x="596.5000000000001" y="861.7" type="curve" smooth="yes"/>
      <point x="776.2" y="861.7"/>
      <point x="907.6" y="716.885"/>
      <point x="907.6" y="464.9" type="curve" smooth="yes"/>
      <point x="907.6" y="201.8"/>
      <point x="767.9" y="56.89999999999999"/>
      <point x="589.7" y="56.89999999999999" type="curve" smooth="yes"/>
      <point x="462.3" y="56.89999999999999"/>
      <point x="343.0" y="134.2"/>
      <point x="271.5" y="273.40000000000003" type="curve"/>
      <point x="239.2" y="214.8" type="line"/>
      <point x="309.6" y="68.8"/>
      <point x="446.8" y="-22.4"/>
      <point x="605.6" y="-22.4" type="curve" smooth="yes"/>
      <point x="855.5999999999999" y="-22.4"/>
      <point x="1058.4" y="170.0"/>
      <point x="1058.4" y="480.0" type="curve" smooth="yes"/>
      <point x="1058.4" y="752.8000000000001"/>
      <point x="886.3999999999999" y="949.6000000000001"/>
      <point x="646.0000000000001" y="949.6000000000001" type="curve" smooth="yes"/>
      <point x="492.80000000000007" y="949.6000000000001"/>
      <point x="350.77064452039883" y="862.4200922042788"/>
      <point x="254.39999999999998" y="714.4" type="curve"/>
    </contour>
  </outline>
</glyph>
<glyph name="c" format="2">
  <advance width="989.4"/>
  <unicode hex="0063"/>
  <anchor x="538.2" y="1074.8000000000002" name="center"/>
  <outline>
    <contour>
      <point x="914.6" y="700.5999999999999" type="curve" smooth="yes"/>
      <point x="914.6" y="830.6"/>
      <point x="781.0" y="950.0"/>
      <point x="564.6" y="950.0" type="curve" smooth="yes"/>
      <point x="281.6" y="950.0"/>
      <point x="94.4" y="732.2123161764706"/>
      <point x="94.4" y="452.20000000000005" type="curve" smooth="yes"/>
      <point x="94.4" y="169.0002049180328"/>
      <point x="273.20000000000005" y="-22.0"/>
      <point x="548.4" y="-22.0" type="curve" smooth="yes"/>
      <point x="758.4" y="-22.0"/>
      <point x="911.398559109949" y="110.18943347295898"/>
      <point x="923.8000000000001" y="263.59999999999997" type="curve" smooth="yes"/>
      <point x="924.6003359023225" y="281.50302312090224"/>
      <point x="917.82" y="295.99999999999994"/>
      <point x="900.6" y="296.2" type="curve" smooth="yes"/>
      <point x="886.6285714285714" y="296.29999999999995"/>
      <point x="878.9021368991251" y="287.91495829387674"/>
      <point x="868.2" y="269.59999999999997" type="curve" smooth="yes"/>
      <point x="834.5025330097704" y="170.51435372203278"/>
      <point x="732.9739130434783" y="87.99999999999997"/>
      <point x="584.5" y="87.99999999999997" type="curve" smooth="yes"/>
      <point x="379.3999999999999" y="87.99999999999997"/>
      <point x="231.2" y="236.2143965516981"/>
      <point x="231.2" y="498.1000000000001" type="curve" smooth="yes"/>
      <point x="231.2" y="723.8155705188434"/>
      <point x="357.9954545454546" y="878.3000000000001"/>
      <point x="540.4" y="878.3000000000001" type="curve" smooth="yes"/>
      <point x="672.5799999999999" y="878.3000000000001"/>
      <point x="752.0000000000001" y="812.2294117647058"/>
      <point x="752.0000000000001" y="719.4000000000001" type="curve" smooth="yes"/>
      <point x="752.0000000000001" y="691.4" type="line" smooth="yes"/>
      <point x="752.0000000000001" y="641.0190123456791"/>
      <point x="782.0" y="609.4"/>
      <point x="831.5999999999999" y="609.4" type="curve" smooth="yes"/>
      <point x="880.8000000000001" y="609.4"/>
      <point x="914.6" y="648.5877777777779"/>
    </contour>
  </outline>
</glyph>
<glyph name="d" format="2">
  <advance width="1180.2"/>
  <unicode hex="0064"/>
  <outline>
    <contour>
      <point x="834.9" y="165.29999999999998" type="line"/>
      <point x="834.9" y="85.1" type="line" smooth="yes"/>
      <point x="834.9" y="23.399999999999995"/>
      <point x="861.1" y="0.0"/>
      <point x="917.7" y="0.0" type="curve" smooth="yes"/>
      <point x="1063.6" y="0.0" type="line" smooth="yes"/>
      <point x="1090.3000000000002" y="0.0"/>
      <point x="1105.0" y="11.399999999999999"/>
      <point x="1105.0" y="30.599999999999998" type="curve" smooth="yes"/>
      <point x="1105.0" y="48.499999999999986"/>
      <point x="1091.9999999999998" y="57.79999999999999"/>
      <point x="1068.1" y="64.6" type="curve" smooth="yes"/>
      <point x="1020.4999999999998" y="74.6" type="line" smooth="yes"/>
      <point x="989.9" y="81.69999999999999"/>
      <point x="972.2" y="99.6"/>
      <point x="972.2" y="135.4" type="curve" smooth="yes"/>
      <point x="972.2" y="1418.4" type="line" smooth="yes"/>
      <point x="972.2" y="1447.2"/>
      <point x="957.0" y="1463.6"/>
      <point x="929.5999999999999" y="1463.6" type="curve"/>
      <point x="911.8" y="1463.6"/>
      <point x="887.8000000000001" y="1455.1999999999998"/>
      <point x="856.2" y="1444.3999999999999" type="curve" smooth="yes"/>
      <point x="718.3999999999999" y="1398.8" type="line" smooth="yes"/>
      <point x="692.4000000000001" y="1389.9"/>
      <point x="681.4" y="1378.8"/>
      <point x="681.4" y="1362.9999999999998" type="curve" smooth="yes"/>
      <point x="681.4" y="1348.1000000000001"/>
      <point x="692.1999999999999" y="1337.9"/>
      <point x="714.0" y="1335.3" type="curve" smooth="yes"/>
      <point x="794.4" y="1333.8" type="line" smooth="yes"/>
      <point x="819.9" y="1331.6999999999998"/>
      <point x="831.4" y="1318.1000000000001"/>
      <point x="831.4" y="1286.2" type="curve" smooth="yes"/>
      <point x="831.4" y="176.6" type="line"/>
    </contour>
    <contour>
      <point x="93.8" y="447.2" type="curve" smooth="yes"/>
      <point x="93.8" y="174.4"/>
      <point x="265.8" y="-22.4"/>
      <point x="506.2" y="-22.4" type="curve" smooth="yes"/>
      <point x="659.4" y="-22.4"/>
      <point x="801.3114404501209" y="65.01215239295558"/>
      <point x="897.8000000000001" y="213.2" type="curve"/>
      <point x="875.9" y="268.4" type="line"/>
      <point x="793.1678449338481" y="139.8552733293266"/>
      <point x="682.7" y="66.3"/>
      <point x="555.7" y="66.3" type="curve" smooth="yes"/>
      <point x="376.0" y="66.3"/>
      <point x="244.59999999999997" y="210.805"/>
      <point x="244.59999999999997" y="462.30000000000007" type="curve" smooth="yes"/>
      <point x="244.59999999999997" y="725.4"/>
      <point x="384.3" y="870.3"/>
      <point x="562.5" y="870.3" type="curve" smooth="yes"/>
      <point x="689.9" y="870.3"/>
      <point x="809.2" y="792.9999999999999"/>
      <point x="880.6999999999999" y="653.8000000000002" type="curve"/>
      <point x="913.0" y="712.4000000000001" type="line"/>
      <point x="842.6" y="858.4000000000001"/>
      <point x="705.4" y="949.6000000000001"/>
      <point x="546.6" y="949.6000000000001" type="curve" smooth="yes"/>
      <point x="296.59999999999997" y="949.6000000000001"/>
      <point x="93.8" y="757.1999999999999"/>
    </contour>
  </outline>
</glyph>
<glyph name="e" format="2">
  <advance width="1022.4"/>
  <unicode hex="0065"/>
  <anchor x="542.8" y="1073.6" name="center"/>
  <outline>
    <contour>
      <point x="930.2" y="586.6" type="curve" smooth="yes"/>
      <point x="930.2" y="802.3076923076924"/>
      <point x="773.2636363636366" y="950.0"/>
      <point x="552.2999999999998" y="950.0" type="curve" smooth="yes"/>
      <point x="275.741095890411" y="950.0"/>
      <point x="93.8" y="734.4110694183864"/>
      <point x="93.8" y="453.3" type="curve" smooth="yes"/>
      <point x="93.8" y="170.09759519038076"/>
      <point x="271.5" y="-22.0"/>
      <point x="550.7" y="-22.0" type="curve" smooth="yes"/>
      <point x="766.0387283236995" y="-22.0"/>
      <point x="921.8" y="111.10000000000001"/>
      <point x="933.8000000000001" y="264.8" type="curve" smooth="yes"/>
      <point x="934.2" y="283.3"/>
      <point x="927.14" y="297.5"/>
      <point x="910.2" y="297.7" type="curve" smooth="yes"/>
      <point x="896.4777777777778" y="297.9"/>
      <point x="888.2013544340107" y="289.5094810380751"/>
      <point x="878.0999999999999" y="271.1" type="curve" smooth="yes"/>
      <point x="844.4023582021714" y="170.7135877363214"/>
      <point x="737.1782608695652" y="86.5"/>
      <point x="586.4" y="86.5" type="curve" smooth="yes"/>
      <point x="376.8" y="86.5"/>
      <point x="230.6" y="234.10000000000002"/>
      <point x="230.6" y="498.7" type="curve" smooth="yes"/>
      <point x="230.6" y="724.1999999999999"/>
      <point x="353.93456090651557" y="878.3000000000001"/>
      <point x="534.2" y="878.3000000000001" type="curve" smooth="yes"/>
      <point x="683.8676258992805" y="878.3000000000001"/>
      <point x="781.0" y="765.7939393939395"/>
      <point x="781.0" y="603.2" type="curve" smooth="yes"/>
      <point x="781.0" y="570.6"/>
      <point x="762.8" y="555.7"/>
      <point x="725.9" y="555.7" type="curve" smooth="yes"/>
      <point x="173.5" y="555.7" type="line"/>
      <point x="173.5" y="494.0" type="line"/>
      <point x="823.9000000000001" y="494.0" type="line" smooth="yes"/>
      <point x="893.2" y="494.0"/>
      <point x="930.2" y="524.8"/>
    </contour>
  </outline>
</glyph>
<glyph name="f" format="2">
  <advance width="680.8"/>
  <unicode hex="0066"/>
  <outline>
    <contour>
      <point x="402.8" y="135.50000000000003" type="curve" smooth="yes"/>
      <point x="402.8" y="851.5999999999999" type="line"/>
      <point x="577.3000000000001" y="851.5999999999999" type="line" smooth="yes"/>
      <point x="627.5999999999999" y="851.5999999999999"/>
      <point x="651.2" y="869.2597014925374"/>
      <point x="651.2" y="894.0000000000001" type="curve" smooth="yes"/>
      <point x="651.2" y="914.1"/>
      <point x="637.9" y="923.4000000000001"/>
      <point x="611.5999999999999" y="923.4000000000001" type="curve" smooth="yes"/>
      <point x="370.90000000000003" y="923.4000000000001" type="line"/>
      <point x="395.79999999999995" y="887.4" type="line"/>
      <point x="395.79999999999995" y="928.3" type="line" smooth="yes"/>
      <point x="395.79999999999995" y="1020.9000000000001"/>
      <point x="278.79999999999995" y="1095.2000000000003"/>
      <point x="278.79999999999995" y="1233.4999999999998" type="curve" smooth="yes"/>
      <point x="278.79999999999995" y="1331.4"/>
      <point x="331.3351648351648" y="1387.3"/>
      <point x="418.29999999999995" y="1387.6999999999998" type="curve" smooth="yes"/>
      <point x="489.3901234567901" y="1387.6999999999998"/>
      <point x="525.3000000000001" y="1348.7000000000003"/>
      <point x="525.3000000000001" y="1280.6" type="curve" smooth="yes"/>
      <point x="525.3000000000001" y="1242.9999999999998" type="line" smooth="yes"/>
      <point x="525.3000000000001" y="1189.4814814814813"/>
      <point x="556.1" y="1156.0"/>
      <point x="602.9" y="1156.0" type="curve" smooth="yes"/>
      <point x="647.5000000000001" y="1156.0"/>
      <point x="678.1" y="1189.2117647058822"/>
      <point x="678.1" y="1250.4" type="curve" smooth="yes"/>
      <point x="678.1" y="1358.8382978723403"/>
      <point x="589.0246753246754" y="1445.2000000000003"/>
      <point x="435.20000000000005" y="1445.2000000000003" type="curve" smooth="yes"/>
      <point x="274.027446300716" y="1445.2000000000003"/>
      <point x="165.1" y="1342.0000000000002"/>
      <point x="165.1" y="1199.5" type="curve" smooth="yes"/>
      <point x="165.1" y="1064.4999999999998"/>
      <point x="264.9" y="998.4999999999999"/>
      <point x="264.9" y="916.3000000000001" type="curve" smooth="yes"/>
      <point x="264.9" y="876.4999999999999" type="line"/>
      <point x="304.2" y="923.4000000000001" type="line"/>
      <point x="137.30000000000004" y="923.4000000000001" type="line" smooth="yes"/>
      <point x="114.6" y="923.4000000000001"/>
      <point x="102.90000000000002" y="911.9"/>
      <point x="102.90000000000002" y="895.6" type="curve" smooth="yes"/>
      <point x="102.90000000000002" y="877.8000000000001"/>
      <point x="118.5" y="867.1999999999999"/>
      <point x="160.4" y="854.2" type="curve" smooth="yes"/>
      <point x="208.10000000000002" y="841.1" type="line" smooth="yes"/>
      <point x="249.00000000000003" y="828.4"/>
      <point x="262.0" y="810.4000000000001"/>
      <point x="262.0" y="777.0" type="curve" smooth="yes"/>
      <point x="262.0" y="135.29999999999998" type="line" smooth="yes"/>
      <point x="262.0" y="101.49999999999997"/>
      <point x="242.4" y="82.6"/>
      <point x="208.0" y="74.9" type="curve" smooth="yes"/>
      <point x="157.0" y="64.99999999999999" type="line" smooth="yes"/>
      <point x="131.0" y="58.89999999999999"/>
      <point x="117.70000000000002" y="49.29999999999999"/>
      <point x="117.70000000000002" y="30.199999999999992" type="curve" smooth="yes"/>
      <point x="117.70000000000002" y="10.999999999999998"/>
      <point x="132.49999999999997" y="0.0"/>
      <point x="157.90000000000003" y="0.0" type="curve" smooth="yes"/>
      <point x="551.3" y="0.0" type="line" smooth="yes"/>
      <point x="577.5" y="0.0"/>
      <point x="592.3999999999999" y="10.999999999999998"/>
      <point x="592.3999999999999" y="30.699999999999996" type="curve" smooth="yes"/>
      <point x="592.3999999999999" y="49.599999999999994"/>
      <point x="579.0" y="61.8"/>
      <point x="552.3" y="64.69999999999999" type="curve" smooth="yes"/>
      <point x="456.0" y="74.99999999999999" type="line" smooth="yes"/>
      <point x="421.49999999999994" y="78.6"/>
      <point x="402.8" y="100.8"/>
    </contour>
  </outline>
</glyph>
